<?xml version="1.0" encoding="UTF-8"?>
<svg version="1.1" xmlns="http://www.w3.org/2000/svg" width="512" height="512">
<path d="M0 0 C1.50874233 -0.00186984 3.01748418 -0.00417123 4.52622527 -0.00686532 C8.6598953 -0.01296831 12.79354505 -0.0128515 16.92721856 -0.01167095 C21.39018255 -0.01146656 25.8531401 -0.01698928 30.31610107 -0.02172852 C39.05507257 -0.03002724 47.79403732 -0.032783 56.53301243 -0.03334089 C63.63751511 -0.03381639 70.74201558 -0.03587284 77.84651756 -0.03904152 C97.99706661 -0.04784573 118.14761033 -0.05246122 138.29816131 -0.05171105 C139.3839885 -0.05167109 140.4698157 -0.05163113 141.58854675 -0.05158997 C143.21928012 -0.05152864 143.21928012 -0.05152864 144.8829576 -0.05146609 C162.50277808 -0.05105961 180.1225772 -0.06063008 197.7423915 -0.07472833 C215.84210803 -0.0890961 233.94181414 -0.0959983 252.04153651 -0.09513456 C262.20003105 -0.09480274 272.35850317 -0.09754313 282.51699257 -0.10831261 C291.16565262 -0.11742284 299.8142801 -0.11958852 308.46294288 -0.11280318 C312.87338935 -0.10954072 317.28377336 -0.10947144 321.69421387 -0.11815643 C325.73644891 -0.12603434 329.77857208 -0.12457685 333.82080444 -0.1158723 C335.27835619 -0.11434016 336.73591634 -0.11614262 338.19345818 -0.12173238 C358.65066718 -0.19495281 358.65066718 -0.19495281 367.46720886 4.32121277 C368.21486511 4.68601746 368.96252136 5.05082214 369.73283386 5.42668152 C378.06480074 11.1516336 382.08002288 18.84098463 386.46720886 27.69621277 C387.17119279 29.09211019 387.87631217 30.48743543 388.58244324 31.88224792 C390.19289121 35.0715511 391.79310412 38.26576111 393.38713074 41.46330261 C395.75744015 46.21744962 398.14064703 50.96501883 400.52738571 55.71093655 C403.92875516 62.47447494 407.3245679 69.24079211 410.71720886 76.00871277 C411.17732109 76.92646925 411.17732109 76.92646925 411.64672852 77.86276627 C413.70510721 81.96949948 415.75902074 86.07844401 417.81095886 90.18840027 C418.34247559 91.24948502 418.87399231 92.31056976 419.4216156 93.40380859 C419.90781372 94.37928146 420.39401184 95.35475433 420.89494324 96.35978699 C421.32109924 97.21289459 421.74725525 98.0660022 422.18632507 98.94496155 C425.47924076 105.93641229 425.47275836 114.16784424 423.15861511 121.47746277 C420.1610182 127.91132931 416.45551063 133.51569931 410.21720886 137.13371277 C408.67571384 137.68826011 407.12418725 138.21534585 405.56608582 138.72135925 C404.75259171 138.98714279 403.9390976 139.25292633 403.10095215 139.52676392 C402.47931686 139.72705704 401.85768158 139.92735016 401.21720886 140.13371277 C401.22089603 141.04738995 401.22458321 141.96106712 401.22838211 142.90243149 C401.31666143 165.11872436 401.38288354 187.33498705 401.42445755 209.5514183 C401.44509604 220.29505964 401.47324123 231.038584 401.51896667 241.78215027 C401.55879503 251.14459855 401.58463231 260.50696213 401.59356284 269.86949277 C401.59878437 274.8284079 401.61108357 279.7870807 401.64012909 284.74591827 C401.66723498 289.41131102 401.67566365 294.0763611 401.66963959 298.7418251 C401.67074199 300.45592484 401.67872464 302.17003578 401.69403076 303.88406754 C401.71388382 306.22151075 401.70916611 308.55765411 401.69822693 310.89512634 C401.7019141 312.20407238 401.70560127 313.51301842 401.70940018 314.86162949 C401.13665553 318.66923055 400.2488246 319.84316157 397.21720886 322.13371277 C395.28251648 322.64837646 395.28251648 322.64837646 393.24650574 322.66716003 C392.4789093 322.68299637 391.71131287 322.6988327 390.92045593 322.71514893 C389.69062988 322.70770912 389.69062988 322.70770912 388.43595886 322.70011902 C387.58545959 322.7063176 386.73496033 322.71251617 385.85868835 322.71890259 C384.06333052 322.72599581 382.26790684 322.72283536 380.47257996 322.71012878 C377.72606939 322.69625752 374.98296317 322.73034324 372.23674011 322.76847839 C370.49064553 322.76942958 368.74454668 322.7675708 366.99845886 322.76261902 C366.17857483 322.77587723 365.3586908 322.78913544 364.51396179 322.80279541 C363.74636536 322.7902623 362.97876892 322.77772919 362.18791199 322.76481628 C361.18008667 322.76337364 361.18008667 322.76337364 360.15190125 322.76190186 C357.00557479 321.74029865 355.92845812 319.89153055 354.21720886 317.13371277 C353.7361908 314.06478882 353.7361908 314.06478882 353.7631073 310.59928894 C353.76356049 308.64783211 353.76356049 308.64783211 353.76402283 306.6569519 C353.78444645 305.24685548 353.80531039 303.83676538 353.82658386 302.42668152 C353.83404966 300.97651959 353.83974099 299.52634753 353.84373474 298.07617188 C353.85896474 294.27011475 353.8982227 290.46467387 353.94255066 286.65885925 C353.98356093 282.77100459 354.00175797 278.88304978 354.02189636 274.99504089 C354.06472049 267.37431807 354.13293863 259.75410196 354.21720886 252.13371277 C353.33460388 252.15466003 352.4519989 252.1756073 351.54264832 252.19718933 C348.25315318 252.26555372 344.96441792 252.31560226 341.67448425 252.35343933 C340.25346429 252.37349698 338.83252627 252.40075054 337.41178894 252.43547058 C335.36364992 252.48425288 333.31660611 252.50673816 331.26799011 252.52433777 C330.03733826 252.54528503 328.8066864 252.5662323 327.53874207 252.58781433 C324.21720886 252.13371277 324.21720886 252.13371277 319.21720886 248.13371277 C319.21720886 223.71371277 319.21720886 199.29371277 319.21720886 174.13371277 C219.55720886 174.13371277 119.89720886 174.13371277 17.21720886 174.13371277 C17.21720886 198.55371277 17.21720886 222.97371277 17.21720886 248.13371277 C11.97049887 252.33108076 11.38062889 252.63011141 5.16642761 252.52433777 C4.507621 252.51867798 3.84881439 252.51301819 3.17004395 252.50718689 C1.08083671 252.48492516 -1.00660887 252.43475607 -3.09529114 252.38371277 C-4.51779228 252.36363421 -5.9403205 252.34538581 -7.36286926 252.32902527 C-10.83674194 252.28509635 -14.30959439 252.21614373 -17.78279114 252.13371277 C-17.77390869 252.93693466 -17.76502625 253.74015656 -17.75587463 254.56771851 C-17.67565802 262.14494137 -17.61479119 269.72195776 -17.57554245 277.29949474 C-17.55468567 281.19502087 -17.52640383 285.09019554 -17.48103333 288.98551941 C-17.43750605 292.74621334 -17.41363966 296.50656967 -17.40328217 300.26749611 C-17.39590302 301.70082729 -17.38149294 303.13414042 -17.35987091 304.5673275 C-17.33075157 306.57779731 -17.32915651 308.58860832 -17.32868958 310.59928894 C-17.31980713 311.7429039 -17.31092468 312.88651886 -17.30177307 314.06478882 C-17.89452282 317.84656754 -19.03891113 319.49830463 -21.78279114 322.13371277 C-23.71748352 322.76863098 -23.71748352 322.76863098 -25.75349426 322.78068542 C-26.5210907 322.79644623 -27.28868713 322.81220703 -28.07954407 322.82844543 C-29.30937012 322.8132637 -29.30937012 322.8132637 -30.56404114 322.79777527 C-31.41454041 322.8025589 -32.26503967 322.80734253 -33.14131165 322.81227112 C-34.93669996 322.81566851 -36.73215027 322.80647713 -38.52742004 322.78556824 C-41.2741043 322.75879744 -44.01670258 322.7853183 -46.76325989 322.81730652 C-48.50936265 322.81400239 -50.25546287 322.80759608 -52.00154114 322.79777527 C-52.82142517 322.80789642 -53.6413092 322.81801758 -54.48603821 322.82844543 C-55.25363464 322.81268463 -56.02123108 322.79692383 -56.81208801 322.78068542 C-57.48397156 322.77670746 -58.1558551 322.77272949 -58.84809875 322.76863098 C-61.96517395 321.74568396 -63.0137468 319.83745959 -64.78279114 317.13371277 C-65.27498245 313.75419903 -65.27498245 313.75419903 -65.2638092 309.81283569 C-65.2672269 309.0857748 -65.2706446 308.35871391 -65.27416587 307.60962087 C-65.2807431 305.17868966 -65.25877262 302.74886803 -65.2368927 300.31803894 C-65.23576418 298.57348151 -65.23639817 296.82892217 -65.23866272 295.08436584 C-65.23981063 290.35117531 -65.21628884 285.61839005 -65.18836689 280.88529372 C-65.16336609 275.93787295 -65.16101228 270.99044294 -65.15626526 266.04296875 C-65.14383161 256.67552229 -65.11100468 247.30826249 -65.0708673 237.94089824 C-65.02616176 227.27595715 -65.0041656 216.61100715 -64.98408556 205.94599569 C-64.94227243 184.00846385 -64.87191275 162.07110007 -64.78279114 140.13371277 C-66.43976013 139.68125183 -66.43976013 139.68125183 -68.13020325 139.21965027 C-76.54866395 136.71678861 -81.46762109 130.91185994 -85.68904114 123.46574402 C-87.56817892 119.45915382 -87.98464502 115.92291051 -88.09529114 111.50871277 C-88.13267395 110.54707214 -88.17005676 109.58543152 -88.20857239 108.59465027 C-87.13412823 99.861095 -82.1877792 91.65640153 -78.27497864 83.88761902 C-77.74945404 82.83702805 -77.22392944 81.78643707 -76.68247986 80.70401001 C-75.57328499 78.4886263 -74.4621581 76.27420895 -73.34919739 74.06071472 C-71.67929716 70.73899199 -70.01567761 67.4141855 -68.35310364 64.08879089 C-63.00467817 53.41021982 -57.60330577 42.76538332 -51.9962616 32.21990967 C-49.66199734 27.82943775 -47.41971348 23.40577259 -45.22029114 18.94621277 C-40.57279928 10.41133287 -34.48060811 5.27322249 -25.43513489 1.82511902 C-17.0951097 -0.34893762 -8.55261603 -0.01005279 0 0 Z " fill="#010101" transform="translate(87.78279113769531,134.8662872314453)"/>
<path d="M0 0 C1.52993206 -0.00417481 3.05986103 -0.00965314 4.58978426 -0.01631981 C8.78663902 -0.03077396 12.9832974 -0.0265298 17.18016291 -0.019153 C21.70924378 -0.01442354 26.23828202 -0.02692925 30.76734924 -0.03717041 C39.63748575 -0.05436831 48.50755146 -0.05519633 57.37770031 -0.04995751 C64.58760896 -0.04591629 71.79749668 -0.0473588 79.00740433 -0.05270576 C80.54657245 -0.0538284 80.54657245 -0.0538284 82.11683489 -0.05497371 C84.20137957 -0.05650519 86.28592425 -0.05804353 88.37046893 -0.05958868 C107.92006112 -0.0733174 127.46961329 -0.0678735 147.01920457 -0.05640347 C164.90236471 -0.04647152 182.78542138 -0.05941045 200.66856556 -0.08333766 C219.03267292 -0.10772318 237.39673208 -0.11733782 255.76085532 -0.11068493 C266.07022906 -0.10719139 276.37952323 -0.10943365 286.68888474 -0.12693596 C295.46538869 -0.14165111 304.24175704 -0.14230238 313.01825832 -0.12486505 C317.49534599 -0.11634688 321.97219134 -0.1142254 326.44926643 -0.1295166 C330.55015404 -0.14334945 334.65059141 -0.13861877 338.75145288 -0.11927737 C340.23255012 -0.11551271 341.71368331 -0.11845281 343.19474857 -0.12888902 C352.92734446 -0.1925759 360.37875105 0.41269696 368.00375366 6.78630066 C370.1770778 9.44005364 371.70650388 11.93571988 373.22109985 15.00975037 C373.77227478 16.11570557 374.32344971 17.22166077 374.8913269 18.36112976 C375.47762164 19.56262309 376.06377925 20.76418333 376.64981079 21.96580505 C377.27034516 23.21877642 377.89184434 24.47127036 378.51425171 25.72331238 C380.15033647 29.02016593 381.77470626 32.32264904 383.39620972 35.62669373 C385.96788055 40.86122827 388.5582194 46.08657838 391.14598083 51.31317139 C392.08099467 53.20303878 393.01407787 55.09385096 393.947052 56.98472595 C397.72331407 64.62515251 401.58882524 72.20802497 405.68527222 79.68241882 C408.13418579 84.18708482 408.13418579 84.18708482 408.13418579 86.38768005 C251.71418579 86.38768005 95.29418579 86.38768005 -65.86581421 86.38768005 C-64.24145053 82.32677086 -62.47427936 78.43241802 -60.53695679 74.52122498 C-60.20653381 73.85059525 -59.87611084 73.17996552 -59.53567505 72.48901367 C-58.44645679 70.28078354 -57.35392684 68.07422126 -56.26034546 65.8681488 C-55.88477697 65.11044001 -55.50920849 64.35273121 -55.12225914 63.57206154 C-53.13292919 59.56087698 -51.14037815 55.55130813 -49.14584351 51.54270935 C-47.50318942 48.23960807 -45.86740741 44.9332423 -44.23764038 41.62376404 C-42.26199685 37.61202381 -40.27444268 33.60639758 -38.2784481 29.60474586 C-37.52368072 28.08669893 -36.7729946 26.56661512 -36.02665138 25.0444088 C-26.01768537 4.65224934 -26.01768537 4.65224934 -17.26643568 1.02918011 C-11.67411461 -0.46521387 -5.74945284 -0.02545427 0 0 Z " fill="#D29E51" transform="translate(84.86581420898438,150.61231994628906)"/>
<path d="M0 0 C143.22 0 286.44 0 434 0 C434 53.79 434 107.58 434 163 C429.05 163 424.1 163 419 163 C418.99191315 161.21514694 418.98382629 159.43029388 418.97549438 157.59135437 C418.89813392 140.80110069 418.81053913 124.01092821 418.71247292 107.22078228 C418.66231571 98.58804286 418.6158732 89.9553131 418.578125 81.32250977 C418.54522067 73.79961388 418.50539817 66.27679216 418.45720994 58.75397807 C418.43192938 54.76939092 418.41015275 50.78485308 418.39665604 46.80020714 C418.38384973 43.0516273 418.361811 39.3032164 418.33261681 35.55472946 C418.32352979 34.17727164 418.31784818 32.79978659 418.31578636 31.42230034 C418.31247192 29.54469414 418.29583307 27.66712542 418.2784729 25.78959656 C418.27294214 24.73783076 418.26741138 23.68606497 418.26171303 22.60242748 C418.18167931 19.76480268 418.18167931 19.76480268 416 17 C412.62105383 15.87368461 410.06759315 15.871132 406.50440311 15.86577892 C405.83860911 15.86342669 405.1728151 15.86107446 404.48684552 15.85865095 C402.23999852 15.85195634 399.99320929 15.85241931 397.74635315 15.85282898 C396.12556731 15.84953067 394.5047823 15.84580517 392.88399833 15.8416875 C388.41767909 15.83165613 383.95137328 15.8279489 379.48504436 15.82529819 C374.67310887 15.82139864 369.86118406 15.81182024 365.04925537 15.80308533 C353.42413848 15.78331361 341.79902072 15.77325495 330.17389122 15.76435754 C324.70379145 15.75997681 319.23369267 15.75460954 313.76359367 15.74936867 C295.58851224 15.73235759 277.41343141 15.7178615 259.23834324 15.71061993 C254.52079327 15.70870994 249.80324331 15.70678962 245.08569336 15.70483398 C243.9131275 15.70435024 242.74056164 15.7038665 241.53246348 15.7033681 C222.52050536 15.6950606 203.50861 15.669711 184.49667931 15.63725331 C164.99254972 15.60422574 145.48845208 15.58617517 125.98429435 15.58297569 C115.02723068 15.58080686 104.07025861 15.5720037 93.11322212 15.54651451 C83.78569688 15.52486643 74.45828548 15.51672802 65.13073797 15.52648129 C60.36873097 15.53104283 55.60695917 15.52903271 50.84498405 15.50971985 C46.48948068 15.49220735 42.13438616 15.49298799 37.77887916 15.50861714 C36.19949539 15.51101143 34.62008418 15.50657629 33.04074258 15.49478849 C30.90047064 15.47979781 28.7616717 15.48925032 26.62143803 15.50501537 C25.43074241 15.50403856 24.24004679 15.50306176 23.01326948 15.50205535 C19.37758689 16.10285415 18.19810183 17.09336989 16 20 C15.39659982 22.7851685 15.39659982 22.7851685 15.48101807 25.90985107 C15.46710526 27.11857376 15.45319244 28.32729645 15.43885803 29.57264709 C15.44357092 30.90878431 15.44866486 32.24492022 15.45410156 33.58105469 C15.44536589 34.99050538 15.43488012 36.39994616 15.42277527 37.80937195 C15.39489339 41.63347207 15.39151105 45.45724895 15.39249516 49.28143597 C15.3893679 53.27870121 15.36375365 57.27582046 15.34051514 61.27301025 C15.2999371 68.84126731 15.27961023 76.40943816 15.26654124 83.97778726 C15.25067727 92.59448026 15.21226423 101.21102644 15.17194796 109.82763433 C15.08952436 127.5517134 15.03624751 145.2757705 15 163 C10.05 163 5.1 163 0 163 C0 109.21 0 55.42 0 0 Z " fill="#E1E1E1" transform="translate(39,278)"/>
<path d="M0 0 C157.41 0 314.82 0 477 0 C469.82994197 8.60406964 469.82994197 8.60406964 462.34012902 9.37834883 C460.94769926 9.39514621 459.55501267 9.39570088 458.16253853 9.38311005 C457.38811383 9.38806956 456.61368914 9.39302908 455.81579703 9.39813888 C453.21729212 9.41110622 450.61930011 9.40270679 448.02078247 9.39440918 C446.140393 9.39929754 444.26000654 9.40548709 442.3796252 9.41286707 C437.20946352 9.4292966 432.03945402 9.42694252 426.86927533 9.4214921 C421.29451444 9.41882563 415.71979447 9.43334649 410.14505005 9.44558716 C399.22237231 9.46665939 388.29974763 9.47118099 377.37705196 9.46939927 C368.50044461 9.46809257 359.62385384 9.47189109 350.7472496 9.47932434 C348.19210112 9.48142349 345.63695264 9.4835211 343.08180416 9.48561716 C341.81010717 9.48666069 340.53841019 9.48770422 339.22817694 9.48877937 C322.004336 9.50231587 304.78050303 9.50990442 287.55665779 9.50545502 C286.88307136 9.50528306 286.20948492 9.50511111 285.51548678 9.50493394 C282.10146895 9.50404505 278.68745115 9.50310024 275.27343334 9.50213593 C274.59539647 9.5019449 273.9173596 9.50175387 273.21877616 9.50155704 C271.84762082 9.50116995 270.47646548 9.50077962 269.10531015 9.50038607 C247.76954397 9.49441588 226.43388625 9.50985485 205.09814453 9.54199219 C181.12798671 9.57806703 157.15790723 9.59735837 133.1877135 9.59245348 C120.49569591 9.59020701 107.80378584 9.59547802 95.1117897 9.62034607 C84.30697558 9.64133591 73.50232794 9.64497412 62.69750704 9.62604648 C57.18358721 9.61687451 51.66997798 9.61579056 46.15608215 9.63640213 C41.10898687 9.65506029 36.06245769 9.65066643 31.0153843 9.62785631 C29.18905305 9.62365753 27.36267883 9.62791334 25.53639294 9.64145225 C9.08373237 9.75512029 9.08373237 9.75512029 3.3043021 5.4625268 C2 4 2 4 0 0 Z " fill="#D09D50" transform="translate(18,252)"/>
<path d="M0 0 C5.28 0 10.56 0 16 0 C16 20.79 16 41.58 16 63 C10.72 63 5.44 63 0 63 C0 42.21 0 21.42 0 0 Z " fill="#D7D7D7" transform="translate(74,308)"/>
<path d="M0 0 C4.95 0 9.9 0 15 0 C15 20.46 15 40.92 15 62 C10.05 62 5.1 62 0 62 C0 41.54 0 21.08 0 0 Z " fill="#DFDFDF" transform="translate(423,309)"/>
</svg>
