<?xml version="1.0" encoding="UTF-8"?>
<svg version="1.1" xmlns="http://www.w3.org/2000/svg" width="512" height="512">
<path d="M0 0 C1.18734741 0.0146228 1.18734741 0.0146228 2.39868164 0.02954102 C14.03046708 0.38172994 21.92445156 5.31419805 30.125 13.4375 C34.31087799 18.09204558 38.20431019 22.99591935 42.15766907 27.84733582 C50.57598121 38.15676077 59.40240262 48.10989523 68.375 57.9375 C68.84605368 58.45396072 69.31710736 58.97042144 69.8024354 59.50253248 C92.81080154 84.64606832 114.29931678 105.36515953 150.10168076 107.58381271 C168.88446788 108.38252645 188.058035 106.91796382 206.6492157 104.19148254 C207.56340649 104.05997047 208.47759727 103.9284584 209.41949081 103.79296112 C211.09853746 103.54265721 212.77490336 103.27314123 214.44682693 102.97899628 C220.24229678 102.09340324 224.81699025 102.89317289 230.125 105.4375 C233.93025673 108.59505346 236.81817537 111.6536998 237.37339699 116.69119 C237.37225783 117.93743213 237.37225783 117.93743213 237.37109566 119.20885086 C237.37507775 120.17126544 237.37905985 121.13368002 237.38316262 122.12525868 C237.37733693 123.17972715 237.37151125 124.23419562 237.36550903 125.32061768 C237.36807231 127.00408424 237.36807231 127.00408424 237.37068737 128.72156024 C237.37399104 132.49575281 237.36296396 136.26976902 237.35205078 140.04394531 C237.35148686 142.74401247 237.35171472 145.4440687 237.35293579 148.14413452 C237.35398489 153.96414274 237.34770572 159.78410614 237.33646011 165.60410309 C237.32021141 174.01885229 237.31499775 182.4335798 237.31248413 190.84834298 C237.30810604 204.50047011 237.29479384 218.15257335 237.27587891 231.8046875 C237.25752306 245.06705607 237.24336511 258.32941816 237.23486328 271.59179688 C237.23433783 272.40918277 237.23381239 273.22656866 237.23327102 274.06872383 C237.23066096 278.16927677 237.22813354 282.26982976 237.22564721 286.37038279 C237.20491116 320.39277252 237.16968252 354.41513333 237.125 388.4375 C237.72973145 388.48430908 238.33446289 388.53111816 238.95751953 388.5793457 C240.15803955 388.6889563 240.15803955 388.6889563 241.3828125 388.80078125 C242.17316895 388.86821533 242.96352539 388.93564941 243.77783203 389.00512695 C247.58965138 389.7073042 250.52228598 391.5987886 253.125 394.4375 C256.87577968 400.92934644 256.60557548 406.5482525 256.5625 413.875 C256.58248047 415.07705078 256.60246094 416.27910156 256.62304688 417.51757812 C256.61927386 424.35805588 256.35710189 428.95030822 252.125 434.4375 C246.64174001 438.77841416 242.71805326 439.55972055 235.86915588 439.57794189 C233.94069824 439.58650711 233.94069824 439.58650711 231.97328186 439.59524536 C230.55062876 439.59649062 229.12797555 439.59761574 227.70532227 439.59863281 C226.20547361 439.60326264 224.70562614 439.60828752 223.20578003 439.61367798 C219.13349744 439.62678558 215.06123132 439.63324338 210.98893094 439.63768864 C208.44473057 439.64062117 205.9005347 439.64472625 203.35633659 439.64919281 C195.39588872 439.66286156 187.43545113 439.67253205 179.47499233 439.6763947 C170.28566538 439.68087826 161.09648695 439.69844251 151.90720516 439.7273953 C144.80306809 439.74900186 137.69897286 439.75909838 130.59480327 439.76043582 C126.35193255 439.76148431 122.10920157 439.76740175 117.86636543 439.78525543 C113.87643112 439.80171911 109.88674189 439.80390001 105.89678574 439.79511642 C104.43306129 439.79434521 102.96932374 439.79869989 101.5056324 439.80857468 C99.50640414 439.82127094 97.50707765 439.81363411 95.50782776 439.80499268 C94.38935739 439.80645924 93.27088701 439.8079258 92.1185236 439.8094368 C88.66046375 439.37978269 86.80989016 438.65822261 84.125 436.4375 C83.795 434.7875 83.465 433.1375 83.125 431.4375 C79.165 431.4375 75.205 431.4375 71.125 431.4375 C70.795 433.0875 70.465 434.7375 70.125 436.4375 C66.70945316 439.18285271 64.05432066 439.81275364 59.73478127 439.81502342 C58.65974047 439.82284666 57.58469968 439.83066991 56.47708189 439.83873022 C55.30189981 439.83203805 54.12671773 439.82534589 52.91592407 439.81845093 C51.66294033 439.8231309 50.4099566 439.82781087 49.11900365 439.83263266 C45.64344954 439.84516136 42.16814241 439.83896387 38.69258738 439.82967401 C34.94334136 439.82289133 31.19413806 439.83336095 27.44490051 439.84161377 C20.10050756 439.85496244 12.75620651 439.8520681 5.41180994 439.84337585 C-0.55769861 439.83660313 -6.52718138 439.8356808 -12.49669266 439.8389473 C-13.34603005 439.839407 -14.19536744 439.83986669 -15.07044233 439.84034032 C-16.79583355 439.8412995 -18.52122476 439.84227214 -20.24661596 439.8432581 C-36.4311878 439.85181558 -52.6157087 439.84197279 -68.80027218 439.825857 C-82.68588408 439.81245833 -96.57142072 439.81477749 -110.45703125 439.82861328 C-126.58023843 439.84467111 -142.70340091 439.85098648 -158.82661498 439.84177649 C-160.54630191 439.84082084 -162.26598886 439.83987773 -163.98567581 439.8389473 C-165.2548587 439.83825306 -165.2548587 439.83825306 -166.54968166 439.83754479 C-172.51065455 439.83495515 -178.47159909 439.83932545 -184.4325676 439.84638596 C-191.69914193 439.85480362 -198.96561904 439.85251544 -206.23218225 439.83654372 C-209.9393764 439.82866382 -213.64640853 439.82556448 -217.35360146 439.83549118 C-221.37319405 439.84609148 -225.3923782 439.83342701 -229.41195679 439.81845093 C-230.58267743 439.82514309 -231.75339806 439.83183526 -232.95959508 439.83873022 C-240.6089697 439.78333326 -245.74232269 439.15248701 -251.6875 434 C-256.9490911 427.83642185 -256.24174636 421.95357521 -256.25 414.125 C-256.27449219 412.91392578 -256.29898437 411.70285156 -256.32421875 410.45507812 C-256.34685019 403.56380495 -256.12658717 398.97463083 -251.875 393.4375 C-248.37256186 390.3423221 -245.72327485 389.25872296 -241.16796875 388.8359375 C-240.36254639 388.75778809 -239.55712402 388.67963867 -238.72729492 388.59912109 C-238.1160376 388.54578613 -237.50478027 388.49245117 -236.875 388.4375 C-236.87651888 387.86038236 -236.87803776 387.28326471 -236.87960267 386.68865865 C-236.96911288 352.48479917 -237.03774515 318.28096632 -237.07926132 284.07701525 C-237.08426415 279.97020723 -237.08944144 275.86339946 -237.09472656 271.7565918 C-237.0957758 270.93899952 -237.09682505 270.12140725 -237.09790608 269.27903945 C-237.11531183 256.04028533 -237.14685045 242.80160068 -237.18361118 229.56288778 C-237.22101589 215.97897925 -237.24323485 202.3951071 -237.25135398 188.81114918 C-237.25684274 180.42893534 -237.27417911 172.04691787 -237.30666587 163.66476447 C-237.32780796 157.91698344 -237.33420075 152.16930394 -237.32900551 146.42148685 C-237.3264432 143.10510477 -237.33255971 139.78913824 -237.3518219 136.47280121 C-237.37169435 132.87538651 -237.36694813 129.27881504 -237.35601807 125.68138123 C-237.36766943 124.63565128 -237.3793208 123.58992134 -237.39132524 122.51250261 C-237.33999411 116.27101343 -236.54235633 112.53965655 -232.875 107.4375 C-229.46294235 104.46053695 -225.34248763 102.94722961 -220.875 102.4375 C-217.98225624 102.77441208 -215.16273099 103.18694312 -212.29638672 103.67626953 C-179.53325841 108.78283218 -136.31784408 115.40615752 -107.60113907 95.09309959 C-92.42044054 83.89050751 -79.25051126 70.2007013 -66.5625 56.3125 C-66.07202525 55.77602498 -65.5815505 55.23954996 -65.07621288 54.68681812 C-56.24808565 45.00836106 -47.56555889 35.20350311 -39.25166321 25.07806396 C-38.10158374 23.68162313 -38.10158374 23.68162313 -36.92827034 22.25697136 C-35.52250155 20.53915904 -34.12828419 18.81178583 -32.74931145 17.0723896 C-24.09813972 6.45121603 -13.84308206 -0.19125603 0 0 Z M-29.44171143 35.86868286 C-30.41814606 36.84815384 -30.41814606 36.84815384 -31.41430664 37.84741211 C-32.09720261 38.52855576 -32.78009857 39.2096994 -33.48368835 39.91148376 C-35.75337709 42.17675038 -38.01936403 44.44568018 -40.28515625 46.71484375 C-41.85299764 48.2820122 -43.4209875 49.84903213 -44.98912048 51.41590881 C-48.28026701 54.70557787 -51.56958973 57.99705719 -54.85766602 61.28979492 C-59.08374283 65.52156904 -63.3142918 69.74883927 -67.5462122 73.97476864 C-70.78636549 77.21131763 -74.0241445 80.45023332 -77.26119804 83.68988228 C-78.82066753 85.25002139 -80.38088718 86.80941102 -81.94185066 88.36805534 C-84.11868476 90.54236504 -86.29231281 92.71982857 -88.46508789 94.89819336 C-89.11806854 95.54914978 -89.77104919 96.2001062 -90.44381714 96.87078857 C-93.44382747 99.27847988 -93.44382747 99.27847988 -94.875 102.4375 C-32.175 102.4375 30.525 102.4375 95.125 102.4375 C91.04982343 97.68312733 86.99303157 93.16443323 82.56884766 88.76782227 C81.94374298 88.14257156 81.31863831 87.51732086 80.67459106 86.87312317 C78.63177921 84.83100149 76.58546093 82.79243327 74.5390625 80.75390625 C73.11252317 79.32923428 71.68620616 77.90433968 70.26010132 76.47923279 C66.52396155 72.74689313 62.78482738 69.01756763 59.04504395 65.28887939 C55.22221303 61.47631671 51.40224613 57.66088678 47.58203125 53.84570312 C40.09914133 46.37350629 32.61308224 38.90449322 25.125 31.4375 C23.31863327 33.24386673 22.30276438 34.68213713 21.0625 36.875 C20.55009766 37.77025391 20.55009766 37.77025391 20.02734375 38.68359375 C18.98784095 40.59429362 18.98784095 40.59429362 18.125 43.4375 C16.5 44.4375 16.5 44.4375 14.125 45.4375 C13.17625 45.97375 12.2275 46.51 11.25 47.0625 C5.04045571 49.67775084 -3.116968 49.70156531 -9.453125 47.5703125 C-11.5625 46.5 -11.5625 46.5 -14.875 44.4375 C-15.865 44.1075 -16.855 43.7775 -17.875 43.4375 C-18.9296875 41.640625 -18.9296875 41.640625 -19.875 39.4375 C-20.22820312 38.73109375 -20.58140625 38.0246875 -20.9453125 37.296875 C-21.921875 35.34375 -22.8984375 33.390625 -23.875 31.4375 C-26.20269597 31.4375 -27.86534426 34.29984507 -29.44171143 35.86868286 Z " fill="#5AB58C" transform="translate(255.875,36.5625)"/>
<path d="M0 0 C1.18734741 0.0146228 1.18734741 0.0146228 2.39868164 0.02954102 C14.03046708 0.38172994 21.92445156 5.31419805 30.125 13.4375 C34.31087799 18.09204558 38.20431019 22.99591935 42.15766907 27.84733582 C50.57598121 38.15676077 59.40240262 48.10989523 68.375 57.9375 C68.84605368 58.45396072 69.31710736 58.97042144 69.8024354 59.50253248 C92.81080154 84.64606832 114.29931678 105.36515953 150.10168076 107.58381271 C168.88446788 108.38252645 188.058035 106.91796382 206.6492157 104.19148254 C207.56340649 104.05997047 208.47759727 103.9284584 209.41949081 103.79296112 C211.09853746 103.54265721 212.77490336 103.27314123 214.44682693 102.97899628 C220.24229678 102.09340324 224.81699025 102.89317289 230.125 105.4375 C233.93025673 108.59505346 236.81817537 111.6536998 237.37339699 116.69119 C237.37225783 117.93743213 237.37225783 117.93743213 237.37109566 119.20885086 C237.37507775 120.17126544 237.37905985 121.13368002 237.38316262 122.12525868 C237.37733693 123.17972715 237.37151125 124.23419562 237.36550903 125.32061768 C237.36807231 127.00408424 237.36807231 127.00408424 237.37068737 128.72156024 C237.37399104 132.49575281 237.36296396 136.26976902 237.35205078 140.04394531 C237.35148686 142.74401247 237.35171472 145.4440687 237.35293579 148.14413452 C237.35398489 153.96414274 237.34770572 159.78410614 237.33646011 165.60410309 C237.32021141 174.01885229 237.31499775 182.4335798 237.31248413 190.84834298 C237.30810604 204.50047011 237.29479384 218.15257335 237.27587891 231.8046875 C237.25752306 245.06705607 237.24336511 258.32941816 237.23486328 271.59179688 C237.23433783 272.40918277 237.23381239 273.22656866 237.23327102 274.06872383 C237.23066096 278.16927677 237.22813354 282.26982976 237.22564721 286.37038279 C237.20491116 320.39277252 237.16968252 354.41513333 237.125 388.4375 C237.72973145 388.48430908 238.33446289 388.53111816 238.95751953 388.5793457 C240.15803955 388.6889563 240.15803955 388.6889563 241.3828125 388.80078125 C242.17316895 388.86821533 242.96352539 388.93564941 243.77783203 389.00512695 C247.58965138 389.7073042 250.52228598 391.5987886 253.125 394.4375 C256.87577968 400.92934644 256.60557548 406.5482525 256.5625 413.875 C256.58248047 415.07705078 256.60246094 416.27910156 256.62304688 417.51757812 C256.61927386 424.35805588 256.35710189 428.95030822 252.125 434.4375 C246.64174001 438.77841416 242.71805326 439.55972055 235.86915588 439.57794189 C233.94069824 439.58650711 233.94069824 439.58650711 231.97328186 439.59524536 C230.55062876 439.59649062 229.12797555 439.59761574 227.70532227 439.59863281 C226.20547361 439.60326264 224.70562614 439.60828752 223.20578003 439.61367798 C219.13349744 439.62678558 215.06123132 439.63324338 210.98893094 439.63768864 C208.44473057 439.64062117 205.9005347 439.64472625 203.35633659 439.64919281 C195.39588872 439.66286156 187.43545113 439.67253205 179.47499233 439.6763947 C170.28566538 439.68087826 161.09648695 439.69844251 151.90720516 439.7273953 C144.80306809 439.74900186 137.69897286 439.75909838 130.59480327 439.76043582 C126.35193255 439.76148431 122.10920157 439.76740175 117.86636543 439.78525543 C113.87643112 439.80171911 109.88674189 439.80390001 105.89678574 439.79511642 C104.43306129 439.79434521 102.96932374 439.79869989 101.5056324 439.80857468 C99.50640414 439.82127094 97.50707765 439.81363411 95.50782776 439.80499268 C94.38935739 439.80645924 93.27088701 439.8079258 92.1185236 439.8094368 C88.66046375 439.37978269 86.80989016 438.65822261 84.125 436.4375 C83.795 434.7875 83.465 433.1375 83.125 431.4375 C79.165 431.4375 75.205 431.4375 71.125 431.4375 C70.795 433.0875 70.465 434.7375 70.125 436.4375 C66.70945316 439.18285271 64.05432066 439.81275364 59.73478127 439.81502342 C58.65974047 439.82284666 57.58469968 439.83066991 56.47708189 439.83873022 C55.30189981 439.83203805 54.12671773 439.82534589 52.91592407 439.81845093 C51.66294033 439.8231309 50.4099566 439.82781087 49.11900365 439.83263266 C45.64344954 439.84516136 42.16814241 439.83896387 38.69258738 439.82967401 C34.94334136 439.82289133 31.19413806 439.83336095 27.44490051 439.84161377 C20.10050756 439.85496244 12.75620651 439.8520681 5.41180994 439.84337585 C-0.55769861 439.83660313 -6.52718138 439.8356808 -12.49669266 439.8389473 C-13.34603005 439.839407 -14.19536744 439.83986669 -15.07044233 439.84034032 C-16.79583355 439.8412995 -18.52122476 439.84227214 -20.24661596 439.8432581 C-36.4311878 439.85181558 -52.6157087 439.84197279 -68.80027218 439.825857 C-82.68588408 439.81245833 -96.57142072 439.81477749 -110.45703125 439.82861328 C-126.58023843 439.84467111 -142.70340091 439.85098648 -158.82661498 439.84177649 C-160.54630191 439.84082084 -162.26598886 439.83987773 -163.98567581 439.8389473 C-165.2548587 439.83825306 -165.2548587 439.83825306 -166.54968166 439.83754479 C-172.51065455 439.83495515 -178.47159909 439.83932545 -184.4325676 439.84638596 C-191.69914193 439.85480362 -198.96561904 439.85251544 -206.23218225 439.83654372 C-209.9393764 439.82866382 -213.64640853 439.82556448 -217.35360146 439.83549118 C-221.37319405 439.84609148 -225.3923782 439.83342701 -229.41195679 439.81845093 C-230.58267743 439.82514309 -231.75339806 439.83183526 -232.95959508 439.83873022 C-240.6089697 439.78333326 -245.74232269 439.15248701 -251.6875 434 C-256.9490911 427.83642185 -256.24174636 421.95357521 -256.25 414.125 C-256.27449219 412.91392578 -256.29898437 411.70285156 -256.32421875 410.45507812 C-256.34685019 403.56380495 -256.12658717 398.97463083 -251.875 393.4375 C-248.37256186 390.3423221 -245.72327485 389.25872296 -241.16796875 388.8359375 C-240.36254639 388.75778809 -239.55712402 388.67963867 -238.72729492 388.59912109 C-238.1160376 388.54578613 -237.50478027 388.49245117 -236.875 388.4375 C-236.87651888 387.86038236 -236.87803776 387.28326471 -236.87960267 386.68865865 C-236.96911288 352.48479917 -237.03774515 318.28096632 -237.07926132 284.07701525 C-237.08426415 279.97020723 -237.08944144 275.86339946 -237.09472656 271.7565918 C-237.0957758 270.93899952 -237.09682505 270.12140725 -237.09790608 269.27903945 C-237.11531183 256.04028533 -237.14685045 242.80160068 -237.18361118 229.56288778 C-237.22101589 215.97897925 -237.24323485 202.3951071 -237.25135398 188.81114918 C-237.25684274 180.42893534 -237.27417911 172.04691787 -237.30666587 163.66476447 C-237.32780796 157.91698344 -237.33420075 152.16930394 -237.32900551 146.42148685 C-237.3264432 143.10510477 -237.33255971 139.78913824 -237.3518219 136.47280121 C-237.37169435 132.87538651 -237.36694813 129.27881504 -237.35601807 125.68138123 C-237.36766943 124.63565128 -237.3793208 123.58992134 -237.39132524 122.51250261 C-237.33999411 116.27101343 -236.54235633 112.53965655 -232.875 107.4375 C-229.46294235 104.46053695 -225.34248763 102.94722961 -220.875 102.4375 C-217.98225624 102.77441208 -215.16273099 103.18694312 -212.29638672 103.67626953 C-179.53325841 108.78283218 -136.31784408 115.40615752 -107.60113907 95.09309959 C-92.42044054 83.89050751 -79.25051126 70.2007013 -66.5625 56.3125 C-66.07202525 55.77602498 -65.5815505 55.23954996 -65.07621288 54.68681812 C-56.24808565 45.00836106 -47.56555889 35.20350311 -39.25166321 25.07806396 C-38.10158374 23.68162313 -38.10158374 23.68162313 -36.92827034 22.25697136 C-35.52250155 20.53915904 -34.12828419 18.81178583 -32.74931145 17.0723896 C-24.09813972 6.45121603 -13.84308206 -0.19125603 0 0 Z M-29.44171143 35.86868286 C-30.41814606 36.84815384 -30.41814606 36.84815384 -31.41430664 37.84741211 C-32.09720261 38.52855576 -32.78009857 39.2096994 -33.48368835 39.91148376 C-35.75337709 42.17675038 -38.01936403 44.44568018 -40.28515625 46.71484375 C-41.85299764 48.2820122 -43.4209875 49.84903213 -44.98912048 51.41590881 C-48.28026701 54.70557787 -51.56958973 57.99705719 -54.85766602 61.28979492 C-59.08374283 65.52156904 -63.3142918 69.74883927 -67.5462122 73.97476864 C-70.78636549 77.21131763 -74.0241445 80.45023332 -77.26119804 83.68988228 C-78.82066753 85.25002139 -80.38088718 86.80941102 -81.94185066 88.36805534 C-84.11868476 90.54236504 -86.29231281 92.71982857 -88.46508789 94.89819336 C-89.11806854 95.54914978 -89.77104919 96.2001062 -90.44381714 96.87078857 C-93.44382747 99.27847988 -93.44382747 99.27847988 -94.875 102.4375 C-32.175 102.4375 30.525 102.4375 95.125 102.4375 C91.04982343 97.68312733 86.99303157 93.16443323 82.56884766 88.76782227 C81.94374298 88.14257156 81.31863831 87.51732086 80.67459106 86.87312317 C78.63177921 84.83100149 76.58546093 82.79243327 74.5390625 80.75390625 C73.11252317 79.32923428 71.68620616 77.90433968 70.26010132 76.47923279 C66.52396155 72.74689313 62.78482738 69.01756763 59.04504395 65.28887939 C55.22221303 61.47631671 51.40224613 57.66088678 47.58203125 53.84570312 C40.09914133 46.37350629 32.61308224 38.90449322 25.125 31.4375 C23.31863327 33.24386673 22.30276438 34.68213713 21.0625 36.875 C20.55009766 37.77025391 20.55009766 37.77025391 20.02734375 38.68359375 C18.98784095 40.59429362 18.98784095 40.59429362 18.125 43.4375 C16.5 44.4375 16.5 44.4375 14.125 45.4375 C13.17625 45.97375 12.2275 46.51 11.25 47.0625 C5.04045571 49.67775084 -3.116968 49.70156531 -9.453125 47.5703125 C-11.5625 46.5 -11.5625 46.5 -14.875 44.4375 C-15.865 44.1075 -16.855 43.7775 -17.875 43.4375 C-18.9296875 41.640625 -18.9296875 41.640625 -19.875 39.4375 C-20.22820312 38.73109375 -20.58140625 38.0246875 -20.9453125 37.296875 C-21.921875 35.34375 -22.8984375 33.390625 -23.875 31.4375 C-26.20269597 31.4375 -27.86534426 34.29984507 -29.44171143 35.86868286 Z M-221.875 119.4375 C-221.97252813 120.87524898 -222.00055451 122.3177742 -222.00084114 123.75882721 C-222.00344889 124.69723497 -222.00605664 125.63564273 -222.00874341 126.60248709 C-222.00651268 127.64555722 -222.00428196 128.68862735 -222.00198364 129.76330566 C-222.00354363 130.86193011 -222.00510362 131.96055455 -222.00671089 133.09247065 C-222.01072607 136.80449895 -222.00752924 140.51648696 -222.00439453 144.22851562 C-222.00574834 146.87725445 -222.00749174 149.52599042 -222.00970459 152.17472839 C-222.01416298 158.64065076 -222.01318551 165.10656155 -222.01029195 171.57248437 C-222.00803819 176.82512341 -222.00772528 182.07775918 -222.00881577 187.33039856 C-222.008969 188.07654652 -222.00912223 188.82269448 -222.00928011 189.59145299 C-222.00959982 191.10699872 -222.00992403 192.62254446 -222.0102527 194.13809019 C-222.01310769 208.36623018 -222.00982016 222.59436374 -222.00445233 236.82250267 C-221.99998428 249.04426933 -222.0007602 261.26602649 -222.00537109 273.48779297 C-222.01071651 287.6632692 -222.012833 301.8387398 -222.00975883 316.0142169 C-222.00944026 317.52434508 -222.00912589 319.03447326 -222.00881577 320.54460144 C-222.00866149 321.2877114 -222.00850721 322.03082136 -222.00834826 322.79644981 C-222.00748301 328.04584523 -222.00894616 333.29523709 -222.01129532 338.54463196 C-222.01409316 344.93748776 -222.0133554 351.33033127 -222.00801457 357.72318566 C-222.00537734 360.9880542 -222.00490663 364.25289786 -222.00766373 367.51776695 C-222.0103721 371.04909695 -222.00699795 374.58036815 -222.00198364 378.11169434 C-222.00421436 379.15476447 -222.00644509 380.1978346 -222.00874341 381.27251291 C-222.00613566 382.21092067 -222.00352791 383.14932843 -222.00084114 384.11617279 C-222.00067879 384.93240915 -222.00051644 385.74864551 -222.00034916 386.5896163 C-222.0773237 388.45438619 -222.0773237 388.45438619 -220.875 389.4375 C-218.28860962 389.53257821 -215.7290144 389.56306376 -213.14233398 389.55102539 C-212.3326416 389.55117142 -211.52294922 389.55131744 -210.6887207 389.5514679 C-207.99948492 389.55076854 -205.31031751 389.5429751 -202.62109375 389.53515625 C-200.76164284 389.53329215 -198.90219144 389.53186821 -197.04273987 389.53086853 C-192.13870904 389.52704271 -187.23470764 389.51721188 -182.33068848 389.50616455 C-177.33048908 389.49595181 -172.33028494 389.49137121 -167.33007812 389.48632812 C-157.51170579 389.47558967 -147.69335534 389.45851248 -137.875 389.4375 C-137.875 384.4875 -137.875 379.5375 -137.875 374.4375 C-139.79803955 374.41768066 -141.7210791 374.39786133 -143.70239258 374.37744141 C-150.05279357 374.30969803 -156.40303502 374.2329249 -162.75325489 374.14997292 C-166.60377708 374.10000546 -170.45427178 374.0536756 -174.30493164 374.015625 C-178.02033639 373.97877764 -181.73551137 373.93241948 -185.45071983 373.87943649 C-186.86886252 373.86088956 -188.28705446 373.84578267 -189.70527077 373.83415604 C-191.69008633 373.8172995 -193.67477538 373.78712925 -195.65942383 373.75634766 C-197.35486076 373.73636215 -197.35486076 373.73636215 -199.08454895 373.7159729 C-201.875 373.4375 -201.875 373.4375 -204.875 371.4375 C-206.21342457 367.42222628 -206.01954838 363.55886796 -206.01544189 359.3719635 C-206.01841302 358.43300545 -206.02138414 357.49404739 -206.0244453 356.52663606 C-206.03314682 353.36678816 -206.03464176 350.20697809 -206.03613281 347.04711914 C-206.04075988 344.78718484 -206.04578438 342.52725133 -206.05117798 340.26731873 C-206.06431284 334.11866386 -206.0707488 327.97001991 -206.07518864 321.8213532 C-206.07811699 317.98315422 -206.08222129 314.14495825 -206.08669281 310.30676079 C-206.0988018 299.68235048 -206.10918436 289.05794278 -206.1125679 278.43352604 C-206.11278747 277.75358706 -206.11300703 277.07364808 -206.11323325 276.3731049 C-206.11345153 275.691533 -206.11366981 275.0099611 -206.1138947 274.3077355 C-206.11433817 272.92659255 -206.11478473 271.54544959 -206.11523438 270.16430664 C-206.11556652 269.13666316 -206.11556652 269.13666316 -206.11590537 268.08825921 C-206.11985532 256.98162946 -206.13731596 245.87506524 -206.1605939 234.76846082 C-206.18429357 223.36877645 -206.19651096 211.96913606 -206.19793582 200.56942266 C-206.19898604 194.16750558 -206.20494006 187.76568096 -206.22275543 181.3637867 C-206.23917902 175.34493593 -206.24141948 169.3262477 -206.23261642 163.30738258 C-206.23184304 161.09501461 -206.2362282 158.8826381 -206.24607468 156.6702919 C-206.25870377 153.65667184 -206.25296672 150.64363536 -206.24249268 147.63002014 C-206.25054908 146.74879976 -206.25860548 145.86757938 -206.26690602 144.95965534 C-206.23783397 141.3981564 -206.21428515 139.06897665 -204.508564 135.89429283 C-202.14771006 133.78891153 -200.48175321 133.9363131 -197.34960938 133.93579102 C-196.21833618 133.92641006 -195.08706299 133.91702911 -193.92150879 133.90736389 C-192.08864319 133.92421486 -192.08864319 133.92421486 -190.21875 133.94140625 C-188.9649353 133.93995102 -187.71112061 133.93849579 -186.41931152 133.93699646 C-183.76580253 133.93865805 -181.11372146 133.94816987 -178.46044922 133.97094727 C-175.06055198 133.99933316 -171.66155274 133.99659539 -168.26158905 133.98385715 C-165.01808478 133.97522767 -161.77472612 133.99034618 -158.53125 134.00390625 C-156.6983844 133.99950279 -156.6983844 133.99950279 -154.82849121 133.99501038 C-153.13158142 134.01403664 -153.13158142 134.01403664 -151.40039062 134.03344727 C-150.4035022 134.03885025 -149.40661377 134.04425323 -148.3795166 134.04981995 C-145.875 134.4375 -145.875 134.4375 -144.05700684 135.7440033 C-142.05194965 138.61670896 -142.45398898 141.06941186 -142.875 144.4375 C-155.98513179 154.27009884 -175.4913801 148.07341956 -191.875 148.4375 C-191.875 218.0675 -191.875 287.6975 -191.875 359.4375 C-173.395 359.4375 -154.915 359.4375 -135.875 359.4375 C-132.905 356.1375 -129.935 352.8375 -126.875 349.4375 C-118.8746541 344.28105174 -110.36279285 344.83474023 -101.16015625 344.87109375 C-99.5378738 344.86584882 -97.91559439 344.85956918 -96.2933197 344.85231018 C-92.90511654 344.84194414 -89.51733436 344.84641211 -86.12915039 344.86108398 C-81.8106769 344.87826395 -77.49353504 344.85476744 -73.17521 344.81959438 C-69.82831694 344.79751805 -66.4817375 344.79908643 -63.13479424 344.8073597 C-61.5437518 344.80817368 -59.95268504 344.80141727 -58.3617115 344.78658867 C-49.40072765 344.71585717 -41.29203197 344.73276105 -33.875 350.4375 C-32.87615549 351.97357706 -31.88653492 353.51567816 -30.90455627 355.06259155 C-27.30140564 359.1508474 -24.46937642 360.0477958 -19.24104017 360.4366309 C-14.47477646 360.58883172 -9.72230224 360.53788237 -4.95507812 360.45922852 C-2.80614326 360.45668842 -0.65720059 360.45811765 1.49172974 360.46321106 C7.31407156 360.46579041 13.13474026 360.41292759 18.95669365 360.35004544 C25.04513917 360.29373331 31.13362428 360.28849292 37.22229004 360.27781677 C48.7467488 360.24985834 60.27043798 360.17602277 71.79455805 360.08567137 C87.37070864 359.9662056 102.9470701 359.9176722 118.52356339 359.86515141 C143.0579519 359.7805575 167.59071648 359.60125057 192.125 359.4375 C192.125 289.8075 192.125 220.1775 192.125 148.4375 C169.34855469 148.40011719 146.57210937 148.36273438 123.10546875 148.32421875 C108.71809309 148.29396035 94.3307247 148.26296789 79.94335938 148.22851562 C72.38891654 148.2104645 64.83447331 148.19260039 57.2800293 148.17504883 C56.33315709 148.17284114 55.38628488 148.17063345 54.41071957 148.16835886 C39.10913812 148.13295517 23.80755673 148.10811585 8.50594946 148.08715298 C-7.18884013 148.06541728 -22.88357641 148.0323882 -38.57832068 147.98879844 C-48.26869438 147.96224317 -57.95900161 147.94457638 -67.64940991 147.93815396 C-74.28769944 147.93291189 -80.9259052 147.91673491 -87.56414989 147.89183434 C-91.39839195 147.87777862 -95.23248394 147.86866361 -99.06675339 147.87249184 C-103.21721439 147.87651028 -107.36724652 147.85756367 -111.51765442 147.83622742 C-112.73845556 147.84107499 -113.95925669 147.84592257 -115.2170518 147.85091704 C-116.32377795 147.8414605 -117.4305041 147.83200396 -118.5707674 147.82226086 C-120.00895815 147.81941295 -120.00895815 147.81941295 -121.47620326 147.81650752 C-123.875 147.4375 -123.875 147.4375 -125.68307704 146.13220245 C-127.67831216 143.295333 -127.23286505 140.77757384 -126.875 137.4375 C-125.69213957 135.7425198 -125.69213957 135.7425198 -123.875 134.4375 C-121.41668564 134.06030184 -121.41668564 134.06030184 -118.42576694 134.05718327 C-117.28667364 134.04874332 -116.14758033 134.04030338 -114.97396904 134.03160769 C-113.08849583 134.04062276 -113.08849583 134.04062276 -111.16493225 134.04981995 C-109.8205044 134.04564935 -108.47608007 134.04017334 -107.13166231 134.03350013 C-103.42918005 134.01899056 -99.72691934 134.02330729 -96.02442467 134.03066695 C-92.03456705 134.03538278 -88.04475846 134.02290287 -84.05491638 134.01264954 C-76.23534145 133.99542492 -68.41584674 133.9946291 -60.59625775 133.99986244 C-54.24242624 134.0038986 -47.8886185 134.00246719 -41.53478813 133.99711418 C-40.63158173 133.99636576 -39.72837533 133.99561734 -38.79779903 133.99484624 C-36.96312455 133.99331481 -35.12845008 133.99177646 -33.29377561 133.99023127 C-16.07588066 133.97649296 1.14196889 133.98195324 18.35986281 133.99341648 C34.12240648 134.00335016 49.88483279 133.99040823 65.64735835 133.96648229 C81.82022236 133.94211786 97.99303164 133.93247687 114.16591364 133.93913502 C123.25061204 133.94263317 132.33522015 133.94035598 141.41990471 133.92288399 C149.15361748 133.90819515 156.88717638 133.9074829 164.62088602 133.9249549 C168.56874328 133.93349483 172.51632531 133.93554205 176.46416855 133.92030334 C180.07584796 133.90653452 183.68701431 133.91111745 187.29866344 133.93054258 C189.2291918 133.93612466 191.15974577 133.92196612 193.09022564 133.90718848 C194.23192669 133.91700277 195.37362775 133.92681706 196.5499258 133.93692875 C197.53709133 133.93703609 198.52425685 133.93714342 199.54133648 133.93725401 C202.8978578 134.58713985 204.08047704 135.73611179 206.125 138.4375 C206.62409532 140.40445805 206.62409532 140.40445805 206.62277794 142.51051331 C206.63197553 143.31719169 206.64117312 144.12387007 206.65064943 144.95499325 C206.63521874 146.27580064 206.63521874 146.27580064 206.61947632 147.62329102 C206.62430515 148.56310349 206.62913398 149.50291597 206.63410914 150.47120762 C206.64540322 153.62822112 206.6280431 156.7844288 206.61083984 159.94140625 C206.61298513 162.20148946 206.61686196 164.46157159 206.62234497 166.72164917 C206.63205377 172.86622128 206.61671564 179.01050366 206.59643888 185.15504074 C206.57889631 191.578048 206.58239242 198.00104593 206.5831604 204.42407227 C206.58128622 215.21148561 206.56401434 225.99876137 206.53662109 236.78613281 C206.50844615 247.887065 206.49427955 258.98789875 206.49560547 270.08886719 C206.49568538 270.77256366 206.49576529 271.45626014 206.49584763 272.16067469 C206.49592834 272.84318462 206.49600905 273.52569455 206.4960922 274.2288866 C206.4974019 286.22323573 206.48710786 298.21754375 206.47050858 310.21188354 C206.4634383 315.32185174 206.45978142 320.43180571 206.45872116 325.54177856 C206.45671514 331.55653531 206.44452876 337.57118828 206.42438889 343.5859108 C206.41853689 345.79665619 206.41608855 348.00741352 206.41724396 350.21816635 C206.41822236 353.22945832 206.40694367 356.2404577 206.39242554 359.25170898 C206.39552274 360.13224725 206.39861995 361.01278551 206.401811 361.92000675 C206.39213767 363.13002432 206.39213767 363.13002432 206.38226891 364.36448669 C206.38086006 365.05948493 206.37945121 365.75448317 206.37799966 366.47054195 C206.07513895 368.82514712 205.36285689 370.41935129 204.125 372.4375 C200.77318941 374.11340529 196.99142171 373.59159024 193.30465698 373.59571838 C192.3800653 373.60065636 191.45547362 373.60559434 190.502864 373.61068195 C187.38586305 373.62611444 184.26888277 373.63443309 181.15185547 373.64282227 C178.92498592 373.65239627 176.69811821 373.66240607 174.47125244 373.67282104 C168.40959242 373.6999279 162.34792457 373.7209061 156.28623724 373.74082303 C149.95742193 373.76264701 143.62863093 373.79005321 137.29983521 373.81687927 C126.6720684 373.86117034 116.04429393 373.90199736 105.41650391 373.94018555 C94.46857734 373.97953352 83.52066189 374.02095806 72.57275391 374.06518555 C71.89821835 374.06790982 71.2236828 374.07063409 70.52870677 374.07344092 C67.1448478 374.08712028 63.76098899 374.10084058 60.37713027 374.11458123 C32.29310999 374.2285675 4.20906545 374.33529855 -23.875 374.4375 C-23.875 379.3875 -23.875 384.3375 -23.875 389.4375 C7.31952891 389.46028983 38.51405564 389.4779979 69.70859089 389.48856533 C73.38751438 389.48981611 77.06643786 389.49111042 80.74536133 389.49243164 C81.47779964 389.49269395 82.21023795 389.49295626 82.96487135 389.49322652 C94.83997418 389.49758333 106.7150722 389.50547094 118.59017216 389.5146528 C130.76606031 389.52398903 142.94194591 389.52955554 155.11783749 389.53158849 C162.63705311 389.53296379 170.15625511 389.5373147 177.67546654 389.54541647 C183.43149272 389.55130426 189.18751008 389.55195904 194.94353867 389.55060768 C197.31196616 389.5508842 199.68039415 389.55289185 202.04881859 389.55670547 C205.26709787 389.56163603 208.48531754 389.56050066 211.70359802 389.55775452 C212.65396751 389.56066736 213.604337 389.5635802 214.58350557 389.56658131 C218.67779158 389.97590269 218.67779158 389.97590269 222.125 388.4375 C222.22252813 386.99975102 222.25055451 385.5572258 222.25084114 384.11617279 C222.25344889 383.17776503 222.25605664 382.23935727 222.25874341 381.27251291 C222.25651268 380.22944278 222.25428196 379.18637265 222.25198364 378.11169434 C222.25432363 376.46375767 222.25432363 376.46375767 222.25671089 374.78252935 C222.26072607 371.07050105 222.25752924 367.35851304 222.25439453 363.64648438 C222.25574834 360.99774555 222.25749174 358.34900958 222.25970459 355.70027161 C222.26416298 349.23434924 222.26318551 342.76843845 222.26029195 336.30251563 C222.25803819 331.04987659 222.25772528 325.79724082 222.25881577 320.54460144 C222.258969 319.79845348 222.25912223 319.05230552 222.25928011 318.28354701 C222.25959982 316.76800128 222.25992403 315.25245554 222.2602527 313.73690981 C222.26310769 299.50876982 222.25982016 285.28063626 222.25445233 271.05249733 C222.24998428 258.83073067 222.2507602 246.60897351 222.25537109 234.38720703 C222.26071651 220.2117308 222.262833 206.0362602 222.25975883 191.8607831 C222.25944026 190.35065492 222.25912589 188.84052674 222.25881577 187.33039856 C222.25866149 186.5872886 222.25850721 185.84417864 222.25834826 185.07855019 C222.25748301 179.82915477 222.25894616 174.57976291 222.26129532 169.33036804 C222.26409316 162.93751224 222.2633554 156.54466873 222.25801457 150.15181434 C222.25537734 146.8869458 222.25490663 143.62210214 222.25766373 140.35723305 C222.2603721 136.82590305 222.25699795 133.29463185 222.25198364 129.76330566 C222.25532973 128.19870047 222.25532973 128.19870047 222.25874341 126.60248709 C222.25483178 125.19487545 222.25483178 125.19487545 222.25084114 123.75882721 C222.25067879 122.94259085 222.25051644 122.12635449 222.25034916 121.2853837 C222.3273237 119.42061381 222.3273237 119.42061381 221.125 118.4375 C218.77436287 118.33786051 216.45307266 118.30386432 214.10186768 118.31165886 C213.35475226 118.31020542 212.60763684 118.30875198 211.83788157 118.30725449 C209.302383 118.30356805 206.76694356 118.30709306 204.23144531 118.31051636 C202.40813287 118.30936558 200.58482066 118.30777835 198.76150894 118.30578911 C193.72619705 118.30158981 188.69090395 118.30368917 183.65559196 118.30677533 C178.23495222 118.30902678 172.81431584 118.3055511 167.39367676 118.30279541 C156.76477588 118.29833597 146.13588205 118.29931495 135.5069809 118.30220805 C126.87285809 118.30446141 118.23873727 118.3047749 109.60461426 118.30368423 C107.76518607 118.30345439 107.76518607 118.30345439 105.88859773 118.30321989 C103.39785099 118.30290018 100.90710425 118.30257597 98.41635752 118.3022473 C75.69783324 118.29947349 52.97931265 118.30235581 30.26078898 118.3075899 C9.50328434 118.31233582 -11.25421417 118.3119112 -32.01171875 118.30712891 C-55.31081869 118.30178402 -78.60991519 118.2996667 -101.90901566 118.30274117 C-104.39088186 118.30305974 -106.87274806 118.30337411 -109.35461426 118.30368423 C-110.5759153 118.30383851 -111.79721633 118.30399279 -113.05552649 118.30415174 C-121.68476427 118.30501715 -130.31399987 118.30355349 -138.9432373 118.30120468 C-149.45151416 118.29840744 -159.95978354 118.29914334 -170.46805954 118.30448543 C-175.83515077 118.30712347 -181.20222952 118.30812578 -186.56932068 118.30483627 C-191.47419617 118.30187541 -196.37904749 118.30346259 -201.28392076 118.30881383 C-203.06653459 118.30993892 -204.84915042 118.30934483 -206.63176298 118.30693804 C-209.03849436 118.30393569 -211.44514088 118.30697681 -213.85186768 118.31165886 C-214.91117941 118.30814711 -214.91117941 118.30814711 -215.99189138 118.30456442 C-219.21237544 118.04510729 -219.21237544 118.04510729 -221.875 119.4375 Z " fill="#010000" transform="translate(255.875,36.5625)"/>
<path d="M0 0 C1.05931174 0.00351175 1.05931174 0.00351175 2.14002371 0.00709444 C2.88713912 0.005641 3.63425454 0.00418756 4.40400982 0.00269008 C6.93950838 -0.00099637 9.47494782 0.00252864 12.01044607 0.00595194 C13.83375851 0.00480116 15.65707072 0.00321394 17.48038244 0.0012247 C22.51569434 -0.00297461 27.55098743 -0.00087524 32.58629942 0.00221092 C38.00693916 0.00446237 43.42757554 0.00098668 48.84821463 -0.00176901 C59.4771155 -0.00622845 70.10600933 -0.00524947 80.73491049 -0.00235637 C89.36903329 -0.00010301 98.00315411 0.00021049 106.63727713 -0.00088018 C107.86356258 -0.00103341 109.08984804 -0.00118665 110.35329366 -0.00134452 C112.84404039 -0.00166423 115.33478713 -0.00198844 117.82553387 -0.00231712 C140.54405815 -0.00509093 163.26257873 -0.00220861 185.98110241 0.00302548 C206.73860705 0.0077714 227.49610555 0.00734678 248.25361013 0.00256449 C271.55271007 -0.00278039 294.85180657 -0.00489772 318.15090704 -0.00182325 C320.63277324 -0.00150468 323.11463944 -0.00119031 325.59650564 -0.00088018 C326.81780668 -0.00072591 328.03910772 -0.00057163 329.29741788 -0.00041268 C337.92665565 0.00045273 346.55589125 -0.00101093 355.18512869 -0.00335974 C365.69340555 -0.00615698 376.20167493 -0.00542108 386.70995092 -0.00007899 C392.07704216 0.00255905 397.44412091 0.00356136 402.81121206 0.00027186 C407.71608755 -0.00268901 412.62093888 -0.00110183 417.52581215 0.00424941 C419.30842598 0.0053745 421.09104181 0.00478041 422.87365437 0.00237362 C425.28038574 -0.00062872 427.68703227 0.00241239 430.09375906 0.00709444 C430.79996688 0.00475328 431.50617471 0.00241211 432.23378277 0 C437.00274104 0.01878524 437.00274104 0.01878524 438.11689138 1.13293558 C438.21441951 2.57068457 438.24244589 4.01320978 438.24273252 5.45426279 C438.24664415 6.86187443 438.24664415 6.86187443 438.25063479 8.29792267 C438.24728871 9.86252787 438.24728871 9.86252787 438.24387503 11.45874125 C438.24543502 12.55736569 438.24699501 13.65599014 438.24860227 14.78790623 C438.25261746 18.49993453 438.24942063 22.21192254 438.24628592 25.92395121 C438.24763973 28.57269003 438.24938312 31.221426 438.25159597 33.87016398 C438.25605437 40.33608634 438.2550769 46.80199713 438.25218333 53.26791996 C438.24992957 58.52055899 438.24961666 63.77319477 438.25070715 69.02583414 C438.25086038 69.7719821 438.25101362 70.51813006 438.25117149 71.28688857 C438.2514912 72.80243431 438.25181541 74.31798004 438.25214408 75.83352578 C438.25499908 90.06166577 438.25171155 104.28979932 438.24634372 118.51793826 C438.24187566 130.73970491 438.24265159 142.96146207 438.24726248 155.18322855 C438.2526079 169.35870479 438.25472439 183.53417538 438.25165021 197.70965248 C438.25133165 199.21978066 438.25101728 200.72990884 438.25070715 202.24003702 C438.25055287 202.98314699 438.2503986 203.72625695 438.25023965 204.49188539 C438.2493744 209.74128082 438.25083755 214.99067267 438.2531867 220.24006754 C438.25598454 226.63292334 438.25524678 233.02576686 438.24990596 239.41862124 C438.24726872 242.68348979 438.24679802 245.94833345 438.24955511 249.21320254 C438.25226349 252.74453253 438.24888933 256.27580373 438.24387503 259.80712992 C438.24610575 260.85020005 438.24833647 261.89327018 438.25063479 262.9679485 C438.24802704 263.90635626 438.24541929 264.84476402 438.24273252 265.81160837 C438.24257017 266.62784473 438.24240782 267.44408109 438.24224055 268.28505188 C438.11689138 270.13293558 438.11689138 270.13293558 437.11689138 271.13293558 C433.96924914 271.23100618 430.84353069 271.26283871 427.69548941 271.2531901 C426.69416465 271.25404453 425.6928399 271.25489895 424.66117197 271.25577927 C421.27847412 271.25743709 417.89582497 271.25190777 414.51313162 271.24646097 C412.09922172 271.24617914 409.68531173 271.24633676 407.27140188 271.24690348 C402.06031647 271.2471318 396.84924223 271.24428045 391.63816023 271.23866564 C384.10372849 271.23055274 376.56930281 271.22793564 369.03486717 271.22667765 C356.81196101 271.2244868 344.58906151 271.21782582 332.36615896 271.20837504 C320.48985722 271.19920178 308.61355728 271.19212052 296.73725271 271.18786722 C296.00570152 271.1876045 295.27415033 271.18734178 294.52043092 271.18707109 C290.8506041 271.18576609 287.18077728 271.18450238 283.51095045 271.18325919 C253.04625932 271.17288554 222.58157628 271.15519221 192.11689138 271.13293558 C192.11689138 266.18293558 192.11689138 261.23293558 192.11689138 256.13293558 C193.2788695 256.12962544 194.44084763 256.12631529 195.6380372 256.12290484 C223.20436204 256.04393312 250.77063826 255.95473076 278.33688848 255.85288397 C281.72782993 255.8403647 285.11877169 255.82793199 288.50971365 255.81555277 C289.18480566 255.81308678 289.85989766 255.81062078 290.555447 255.80808006 C301.49476956 255.76832718 312.43410247 255.73559105 323.3734552 255.70543577 C334.5933934 255.67435129 345.81328733 255.63560609 357.03317803 255.59014553 C363.3372576 255.56484696 369.64130582 255.54307564 375.94542265 255.52959162 C381.87395123 255.5168017 387.80237248 255.49478066 393.73084211 255.46555239 C395.91136025 255.45645253 398.09189569 255.45078081 400.27243185 255.44872195 C403.24050908 255.44541638 406.2082788 255.4299854 409.17629385 255.41140848 C410.48221754 255.41431059 410.48221754 255.41431059 411.81452352 255.41727132 C416.75980618 255.37369967 416.75980618 255.37369967 421.11689138 253.13293558 C422.45511747 249.11825732 422.26493606 245.25388864 422.2640624 241.06739908 C422.26957744 239.658962 422.26957744 239.658962 422.27520388 238.22207165 C422.28625499 235.0622272 422.29008694 231.90241562 422.29389334 228.74255472 C422.30015674 226.48262018 422.30680343 224.22268668 422.31380606 221.96275431 C422.33122328 215.81410273 422.34176907 209.66545892 422.35001159 203.51678878 C422.35515856 199.67858993 422.36123432 195.84039351 422.36752272 192.00219637 C422.38439049 181.37778772 422.39902702 170.75338121 422.40627146 160.12896162 C422.40818137 157.37255514 422.4101017 154.61614867 422.4120574 151.85974222 C422.41254114 151.17464657 422.41302488 150.48955092 422.41352328 149.7836948 C422.42182977 138.67704385 422.44717873 127.57050038 422.47963808 116.4638964 C422.51268287 105.06421072 422.53038475 93.66459899 422.5339157 82.26485825 C422.5362716 75.86290784 422.54530256 69.46112745 422.57037687 63.05922228 C422.59357064 57.04033757 422.59792591 51.02173589 422.58761549 45.00281817 C422.58711795 42.79044506 422.5935021 40.57805842 422.60717154 38.36572748 C422.62475528 35.35195964 422.61785104 32.33922261 422.60463858 29.32545573 C422.61560782 28.44423534 422.62657707 27.56301496 422.63787872 26.65509093 C422.62500738 25.44414831 422.62500738 25.44414831 422.61187601 24.2087422 C422.61334122 23.16543174 422.61334122 23.16543174 422.61483604 22.1010443 C421.86877791 19.1522758 420.50594103 17.96432743 418.11689138 16.13293558 C415.48235759 15.53796511 415.48235759 15.53796511 412.54181719 15.63236433 C411.40011613 15.62255004 410.25841508 15.61273575 409.08211702 15.60262406 C407.8273656 15.61222907 406.57261418 15.62183407 405.27983999 15.63173014 C403.93383495 15.62783819 402.58783401 15.62219861 401.24184281 15.61495924 C397.53961321 15.60017111 393.83780749 15.61040537 390.13559139 15.62469596 C386.14440712 15.63578284 382.15328342 15.62387079 378.16210318 15.61485392 C370.34229822 15.60090419 362.52265449 15.60849018 354.70285719 15.6235295 C345.60203301 15.64036808 336.50124923 15.6371821 327.4004143 15.63343542 C311.1661442 15.62755375 294.93195161 15.64174088 278.69770193 15.66638285 C262.93367498 15.69030848 247.16975159 15.69738597 231.40570974 15.68689066 C214.25086329 15.6754899 197.09606477 15.67354065 179.94121891 15.68798876 C178.11318036 15.68951465 176.28514181 15.691035 174.45710325 15.69254977 C173.55760539 15.69330758 172.65810753 15.69406539 171.73135216 15.69484617 C165.38279134 15.69959521 159.03425186 15.69773321 152.68569136 15.69348437 C144.95308432 15.68856555 137.22057533 15.69450701 129.48799079 15.71437866 C125.54029975 15.72427263 121.59275821 15.72933321 117.64505911 15.72148615 C114.03477252 15.71445642 110.42478833 15.72116981 106.81454176 15.73908978 C104.88234041 15.74508373 102.9501109 15.7362817 101.01792234 15.72704327 C99.87882903 15.73548321 98.73973573 15.74392315 97.56612444 15.75261885 C96.57912127 15.75364798 95.5921181 15.75467711 94.57520574 15.75573742 C92.1050419 15.95394586 92.1050419 15.95394586 90.33881432 17.34420538 C88.70832841 19.48063637 88.70832841 19.48063637 88.11689138 24.13293558 C83.49689138 24.13293558 78.87689138 24.13293558 74.11689138 24.13293558 C73.82814138 22.99856058 73.53939138 21.86418558 73.24189138 20.69543558 C72.87064138 19.51981058 72.49939138 18.34418558 72.11689138 17.13293558 C69.52389408 15.83643693 67.60877583 15.98454424 64.70502615 15.95593363 C63.57367743 15.94309839 62.4423287 15.93026316 61.27669668 15.91703898 C60.049625 15.90965204 58.82255331 15.90226511 57.55829763 15.89465433 C56.30306799 15.88658259 55.04783834 15.87851084 53.75457144 15.87019449 C51.09560332 15.85634565 48.43675957 15.8453309 45.77778006 15.83776957 C42.36999065 15.8266908 38.96285168 15.79227272 35.55529261 15.75259787 C32.3063585 15.72019539 29.05736872 15.7156589 25.80829763 15.70715433 C24.58325018 15.68964625 23.35820272 15.67213816 22.09603262 15.65409952 C20.39428129 15.65848788 20.39428129 15.65848788 18.65815115 15.66296488 C17.65824652 15.65709864 16.65834188 15.6512324 15.62813711 15.64518839 C13.07708108 15.91875077 13.07708108 15.91875077 11.48332739 17.58930784 C9.41835376 21.433267 9.70666302 25.01930575 9.74266958 29.3187266 C9.73869518 30.25853908 9.73472077 31.19835156 9.73062593 32.1666432 C9.72098263 35.32352883 9.73283349 38.4799686 9.74457693 41.63684183 C9.74214964 43.89692451 9.73843094 46.15700612 9.73351431 48.41708475 C9.72409312 54.56160572 9.73354115 60.70596775 9.74684644 66.85047632 C9.7581452 73.27348714 9.75405465 79.69648995 9.75209951 86.11950785 C9.75121604 96.9068939 9.76223745 107.69420247 9.78070974 118.4815684 C9.79971402 129.58249915 9.80679733 140.68335692 9.80121756 151.78430277 C9.79451497 165.15865811 9.79780395 178.53296439 9.81032133 191.90731913 C9.8149721 197.01729023 9.8158391 202.1272415 9.81373549 207.23721415 C9.8118551 213.25196335 9.81993731 219.2666186 9.83579588 225.28134638 C9.84004695 227.49209428 9.84088378 229.70285169 9.83810568 231.91360193 C9.83489506 234.92488673 9.84393753 237.93588885 9.85619497 240.94714457 C9.85241565 241.82768283 9.84863633 242.70822109 9.84474248 243.61544234 C9.85057467 244.42212072 9.85640686 245.2287991 9.86241579 246.05992228 C9.86328257 246.75492051 9.86414935 247.44991875 9.86504239 248.16597754 C10.16660831 250.52122824 10.87866369 252.1145001 12.11689138 254.13293558 C14.87282277 255.51090127 17.13468952 255.29592497 20.21894217 255.33825785 C21.50011923 255.35820307 22.78129629 255.37814829 24.1012969 255.39869791 C25.50493132 255.41568227 26.90856702 255.43256108 28.31220388 255.44934183 C29.74424736 255.46991098 31.17628476 255.49090745 32.60831594 255.51231486 C36.37955701 255.56753961 40.15085291 255.61694706 43.92218924 255.66516215 C47.76969174 255.71537425 51.61711451 255.77106182 55.46454763 255.82629496 C63.01526329 255.93388148 70.56604564 256.03481939 78.11689138 256.13293558 C78.11689138 261.08293558 78.11689138 266.03293558 78.11689138 271.13293558 C67.31231053 271.15605871 56.50773552 271.17385051 45.70313501 271.18474776 C40.68666669 271.18997665 35.67021523 271.19707441 30.65375662 271.20837504 C25.81679445 271.21920369 20.97984855 271.22521237 16.14287519 271.22781283 C14.29320853 271.22966712 12.44354281 271.2332878 10.59388304 271.23866564 C8.01242125 271.24587578 5.43102756 271.24692654 2.8495574 271.24646097 C2.07704138 271.25005625 1.30452536 271.25365153 0.50859976 271.25735575 C-4.76905645 271.24698774 -4.76905645 271.24698774 -5.88310862 270.13293558 C-5.98063674 268.6951866 -6.00866313 267.25266139 -6.00894976 265.81160837 C-6.0115575 264.87320061 -6.01416525 263.93479285 -6.01685202 262.9679485 C-6.0146213 261.92487837 -6.01239058 260.88180824 -6.01009226 259.80712992 C-6.01243224 258.15919325 -6.01243224 258.15919325 -6.0148195 256.47796494 C-6.01883469 252.76593663 -6.01563786 249.05394863 -6.01250315 245.34191996 C-6.01385696 242.69318113 -6.01560035 240.04444517 -6.01781321 237.39570719 C-6.0222716 230.92978483 -6.02129413 224.46387404 -6.01840056 217.99795121 C-6.0161468 212.74531218 -6.01583389 207.4926764 -6.01692438 202.24003702 C-6.01707761 201.49388906 -6.01723085 200.7477411 -6.01738872 199.9789826 C-6.01770843 198.46343686 -6.01803265 196.94789113 -6.01836132 195.43234539 C-6.02121631 181.2042054 -6.01792878 166.97607184 -6.01256095 152.74793291 C-6.00809289 140.52616626 -6.00886882 128.3044091 -6.01347971 116.08264261 C-6.01882513 101.90716638 -6.02094162 87.73169579 -6.01786745 73.55621868 C-6.01754888 72.0460905 -6.01723451 70.53596232 -6.01692438 69.02583414 C-6.01677011 68.28272418 -6.01661583 67.53961422 -6.01645688 66.77398577 C-6.01559163 61.52459035 -6.01705478 56.2751985 -6.01940393 51.02580363 C-6.02220178 44.63294782 -6.02146401 38.24010431 -6.01612319 31.84724993 C-6.01348596 28.58238138 -6.01301525 25.31753772 -6.01577234 22.05266863 C-6.01848072 18.52133864 -6.01510656 14.99006743 -6.01009226 11.45874125 C-6.01232298 10.41567112 -6.0145537 9.37260099 -6.01685202 8.29792267 C-6.01424427 7.35951491 -6.01163653 6.42110715 -6.00894976 5.45426279 C-6.0087874 4.63802644 -6.00862505 3.82179008 -6.00845778 2.98081928 C-5.74883726 -0.84647811 -3.24452257 0.01278039 0 0 Z " fill="#E78D5C" transform="translate(39.883108615875244,154.86706441640854)"/>
<path d="M0 0 C6.27 0 12.54 0 19 0 C19 69.63 19 139.26 19 211 C-35.30609955 211.40303034 -35.30609955 211.40303034 -58.05273438 211.48828125 C-73.76262023 211.54763205 -89.47196999 211.61742517 -105.18139648 211.75439453 C-116.62227485 211.85409914 -128.06271857 211.91858982 -139.50401932 211.94088495 C-145.56179968 211.95391695 -151.61833668 211.9845188 -157.67571831 212.05730057 C-163.37977969 212.12528048 -169.08208818 212.14609582 -174.78651619 212.13107681 C-176.87754475 212.13382345 -178.96863311 212.15365787 -181.05931091 212.19205475 C-196.90670705 212.46877871 -196.90670705 212.46877871 -202.15185642 208.78847027 C-204.56347656 206.09089661 -204.56347656 206.09089661 -206.37834167 203.40047932 C-209.09151492 199.38427186 -212.35366818 197.98566141 -217 197 C-222.57933612 196.44910447 -228.11268412 196.41146333 -233.71484375 196.43359375 C-235.3371262 196.42834882 -236.95940561 196.42206918 -238.5816803 196.41481018 C-241.96988346 196.40444414 -245.35766564 196.40891211 -248.74584961 196.42358398 C-253.0643231 196.44076395 -257.38146496 196.41726744 -261.69979 196.38209438 C-265.04668306 196.36001805 -268.3932625 196.36158643 -271.74020576 196.3698597 C-273.3312482 196.37067368 -274.92231496 196.36391727 -276.5132885 196.34908867 C-289.55350019 196.23843621 -289.55350019 196.23843621 -301 202 C-302.30176172 203.56003818 -303.57142442 205.14732669 -304.81054688 206.75756836 C-307.11625253 209.53491853 -308.34258233 210.81892573 -311.84985352 211.78494263 C-315.2786939 212.03874302 -318.59572439 212.01373219 -322.03125 211.87890625 C-323.8787384 211.85980446 -323.8787384 211.85980446 -325.7635498 211.84031677 C-329.67774585 211.79013915 -333.58721782 211.67725634 -337.5 211.5625 C-340.16139048 211.51223469 -342.82273659 211.47627486 -345.484375 211.43945312 C-351.99138933 211.34049431 -358.49489525 211.18530806 -365 211 C-365 204.73 -365 198.46 -365 192 C-363.25179522 191.99761165 -361.50359043 191.99522329 -359.70240974 191.99276257 C-318.197069 191.93539411 -276.69177898 191.86265741 -235.18649913 191.77101372 C-230.07713247 191.75974565 -224.96776555 191.74860718 -219.85839844 191.73754883 C-218.8412219 191.73534514 -217.82404537 191.73314146 -216.77604531 191.730871 C-200.30933276 191.69550536 -183.84262027 191.67063708 -167.37588383 191.64965298 C-150.47759972 191.6278851 -133.57936487 191.59482527 -116.68112266 191.55129844 C-106.25527843 191.52479878 -95.82949557 191.50709098 -85.40361933 191.50065396 C-78.25274502 191.49539494 -71.1019479 191.47916063 -63.95111497 191.45433434 C-59.82639575 191.44033703 -55.70181468 191.43114193 -51.57707024 191.43499184 C-47.79663147 191.43841331 -44.01648725 191.42797286 -40.23610877 191.40676448 C-38.22936789 191.39903977 -36.22258696 191.40592074 -34.21584523 191.41341704 C-23.95143607 191.33304781 -15.31419376 190.23734738 -7.69140625 182.96875 C-2.31269246 176.70807621 -0.88372967 170.18108463 -0.84178162 162.10308838 C-0.83684364 161.40955033 -0.83190566 160.71601228 -0.82681805 160.00145793 C-0.81146438 157.67838319 -0.80308822 155.35533604 -0.79467773 153.03222656 C-0.78509753 151.36663063 -0.77508737 149.70103713 -0.76467896 148.03544617 C-0.73763921 143.5131155 -0.71662459 138.9907744 -0.69667697 134.46840763 C-0.6748117 129.74248924 -0.64742565 125.01660294 -0.62062073 120.29071045 C-0.57070118 111.34124629 -0.5257596 102.3917643 -0.48259836 93.44226527 C-0.4332197 83.25371156 -0.3783039 73.06519006 -0.32291877 62.8766675 C-0.20911004 41.91780817 -0.10246497 20.95891759 0 0 Z " fill="#51A27D" transform="translate(429,185)"/>
<path d="M0 0 C159.06 0 318.12 0 482 0 C482 6.27 482 12.54 482 19 C480.08986618 19.00586624 478.17973236 19.01173248 476.2117157 19.01777649 C458.24415101 19.07489428 440.27670743 19.1474195 422.309268 19.23571491 C413.07118049 19.280715 403.83313189 19.32011986 394.5949707 19.34643555 C386.54467635 19.3693816 378.49450472 19.40274138 370.44430763 19.44870156 C366.18024189 19.47267976 361.91629803 19.49137831 357.65216637 19.49761391 C353.64088309 19.5036441 349.62991186 19.52356839 345.6187439 19.55427551 C344.14453609 19.56308905 342.67028756 19.56677149 341.19605446 19.56500816 C339.18707902 19.56336353 337.17811667 19.58176979 335.16923523 19.60127258 C334.043726 19.60588155 332.91821676 19.61049051 331.75860119 19.61523914 C329.01320363 19.7851801 329.01320363 19.7851801 327.1769228 21.27492046 C325.69713434 23.22999824 325.69713434 23.22999824 325 27 C320.38 27 315.76 27 311 27 C310.34 25.35 309.68 23.7 309 22 C305.69250499 19.79500332 304.69747366 19.74772386 300.85194111 19.73828697 C299.78004892 19.73082148 298.70815673 19.72335599 297.60378295 19.71566427 C296.4218913 19.717599 295.23999964 19.71953374 294.02229309 19.7215271 C292.14409765 19.7128385 292.14409765 19.7128385 290.22795886 19.70397437 C286.74583903 19.68813385 283.26379979 19.68474147 279.78164828 19.68332577 C276.02908621 19.67963876 272.27656873 19.66448682 268.52403259 19.65071106 C262.02031227 19.62841235 255.51660775 19.6134148 249.01285744 19.60334396 C239.60947483 19.58877265 230.20614728 19.56324022 220.80279692 19.53501268 C205.54733816 19.4895165 190.29187148 19.45291339 175.03637695 19.421875 C160.21507375 19.39170102 145.39378992 19.35735606 130.57250977 19.31738281 C129.20266105 19.31369049 129.20266105 19.31369049 127.80513863 19.30992357 C123.22382454 19.2975492 118.64251068 19.28509262 114.06119692 19.27259517 C76.04082464 19.16898507 38.02042892 19.0799435 0 19 C0 12.73 0 6.46 0 0 Z " fill="#CE7E52" transform="translate(15,441)"/>
<path d="M0 0 C3.64588169 -0.02682987 7.29156846 -0.04675569 10.9375 -0.0625 C11.97841797 -0.07087891 13.01933594 -0.07925781 14.09179688 -0.08789062 C15.08115234 -0.09111328 16.07050781 -0.09433594 17.08984375 -0.09765625 C18.46450806 -0.10551147 18.46450806 -0.10551147 19.86694336 -0.11352539 C22 0 22 0 23 1 C23.09752813 2.43774898 23.12555451 3.8802742 23.12584114 5.32132721 C23.12975276 6.72893885 23.12975276 6.72893885 23.13374341 8.16498709 C23.13039732 9.72959228 23.13039732 9.72959228 23.12698364 11.32580566 C23.12854363 12.42443011 23.13010362 13.52305455 23.13171089 14.65497065 C23.13572607 18.36699895 23.13252924 22.07898696 23.12939453 25.79101562 C23.13074834 28.43975445 23.13249174 31.08849042 23.13470459 33.73722839 C23.13916298 40.20315076 23.13818551 46.66906155 23.13529195 53.13498437 C23.13303819 58.38762341 23.13272528 63.64025918 23.13381577 68.89289856 C23.133969 69.63904652 23.13412223 70.38519448 23.13428011 71.15395299 C23.13459982 72.66949872 23.13492403 74.18504446 23.1352527 75.70059019 C23.13810769 89.92873018 23.13482016 104.15686374 23.12945233 118.38500267 C23.12498428 130.60676933 23.1257602 142.82852649 23.13037109 155.05029297 C23.13571651 169.2257692 23.137833 183.4012398 23.13475883 197.5767169 C23.13444026 199.08684508 23.13412589 200.59697326 23.13381577 202.10710144 C23.13366149 202.8502114 23.13350721 203.59332136 23.13334826 204.35894981 C23.13248301 209.60834523 23.13394616 214.85773709 23.13629532 220.10713196 C23.13909316 226.49998776 23.1383554 232.89283127 23.13301457 239.28568566 C23.13037734 242.5505542 23.12990663 245.81539786 23.13266373 249.08026695 C23.1353721 252.61159695 23.13199795 256.14286815 23.12698364 259.67419434 C23.12921436 260.71726447 23.13144509 261.7603346 23.13374341 262.83501291 C23.13113566 263.77342067 23.12852791 264.71182843 23.12584114 265.67867279 C23.12567879 266.49490915 23.12551644 267.31114551 23.12534916 268.1521163 C23 270 23 270 22 271 C18.85235776 271.09807059 15.72663931 271.12990313 12.57859802 271.12025452 C11.57727327 271.12110894 10.57594852 271.12196337 9.54428059 271.12284368 C6.16158273 271.12450151 2.77893358 271.11897218 -0.60375977 271.11352539 C-3.01766967 271.11324356 -5.43157965 271.11340118 -7.8454895 271.1139679 C-13.05657492 271.11419621 -18.26764915 271.11134487 -23.47873116 271.10573006 C-31.0131629 271.09761716 -38.54758857 271.09500005 -46.08202421 271.09374207 C-58.30493037 271.09155121 -70.52782988 271.08489023 -82.75073242 271.07543945 C-94.62703417 271.06626619 -106.5033341 271.05918494 -118.37963867 271.05493164 C-119.47696546 271.05453756 -119.47696546 271.05453756 -120.59646047 271.05413551 C-124.26628728 271.05283051 -127.93611411 271.05156679 -131.60594094 271.05032361 C-162.07063206 271.03994996 -192.53531511 271.02225663 -223 271 C-223 266.05 -223 261.1 -223 256 C-221.83802188 255.99668985 -220.67604376 255.99337971 -219.47885418 255.98996925 C-191.91252934 255.91099754 -164.34625312 255.82179517 -136.7800029 255.71994839 C-133.38906146 255.70742911 -129.9981197 255.6949964 -126.60717773 255.68261719 C-125.93208573 255.68015119 -125.25699372 255.6776852 -124.56144438 255.67514448 C-113.62212183 255.6353916 -102.68278892 255.60265547 -91.74343618 255.57250018 C-80.52349799 255.54141571 -69.30360405 255.50267051 -58.08371335 255.45720994 C-51.77963378 255.43191137 -45.47558557 255.41014005 -39.17146873 255.39665604 C-33.24294015 255.38386612 -27.31451891 255.36184507 -21.38604927 255.33261681 C-19.20553113 255.32351695 -17.02499569 255.31784522 -14.84445953 255.31578636 C-11.87638231 255.31248079 -8.90861258 255.29704982 -5.94059753 255.2784729 C-4.63467385 255.281375 -4.63467385 255.281375 -3.30236787 255.28433573 C1.6429148 255.24076408 1.6429148 255.24076408 6 253 C7.33822609 248.98532174 7.14804468 245.12095306 7.14717102 240.9344635 C7.15268605 239.52602642 7.15268605 239.52602642 7.1583125 238.08913606 C7.16936361 234.92929162 7.17319555 231.76948004 7.17700195 228.60961914 C7.18326536 226.3496846 7.18991204 224.0897511 7.19691467 221.82981873 C7.2143319 215.68116714 7.22487769 209.53252334 7.2331202 203.3838532 C7.23826717 199.54565435 7.24434294 195.70745793 7.25063133 191.86926079 C7.2674991 181.24485213 7.28213563 170.62044562 7.28938007 159.99602604 C7.29128998 157.23961956 7.29321032 154.48321309 7.29516602 151.72680664 C7.29564976 151.04171099 7.2961335 150.35661534 7.2966319 149.65075921 C7.30493838 138.54410826 7.33028734 127.4375648 7.36274669 116.33096082 C7.39579148 104.93127514 7.41349336 93.5316634 7.41702431 82.13192266 C7.41938021 75.72997225 7.42841118 69.32819186 7.45348549 62.9262867 C7.47667925 56.90740199 7.48103453 50.88880031 7.47072411 44.86988258 C7.47022657 42.65750948 7.47661071 40.44512284 7.49028015 38.2327919 C7.5078639 35.21902406 7.50095966 32.20628703 7.48774719 29.19252014 C7.49871644 28.31129976 7.50968568 27.43007938 7.52098733 26.52215534 C7.50811599 25.31121272 7.50811599 25.31121272 7.49498463 24.07580662 C7.49644984 23.03249616 7.49644984 23.03249616 7.49794465 21.96810871 C6.75226496 19.02083598 5.38645897 17.83177224 3 16 C0.3826873 15.40232041 0.3826873 15.40232041 -2.53660202 15.49219131 C-3.66970299 15.48074373 -4.80280395 15.46929614 -5.97024131 15.45750165 C-7.21536624 15.46526207 -8.46049118 15.47302248 -9.74334717 15.48101807 C-11.07911848 15.47514392 -12.41488305 15.46751746 -13.75063539 15.458287 C-17.42442452 15.43798365 -21.09782846 15.44259168 -24.77164817 15.45119452 C-28.73212297 15.45612981 -32.69249984 15.4380664 -36.65293884 15.42277527 C-43.51571628 15.39943587 -50.37838798 15.39071593 -57.24120331 15.39188385 C-67.16369495 15.39355141 -77.0860454 15.37323555 -87.00849941 15.34752855 C-103.10640809 15.3064204 -119.20429142 15.28312775 -135.30224609 15.27099609 C-150.94126829 15.25917224 -166.58024273 15.23898447 -182.21923828 15.20751953 C-183.6648613 15.20461538 -183.6648613 15.20461538 -185.13968882 15.20165256 C-189.97446158 15.19188815 -194.80923399 15.18195901 -199.64400625 15.17194796 C-239.76264813 15.08909003 -279.8812896 15.0351269 -320 15 C-320 14.67 -320 14.34 -320 14 C-214.4 14 -108.8 14 0 14 C0 9.38 0 4.76 0 0 Z " fill="#CE7E52" transform="translate(455,155)"/>
<path d="M0 0 C0.66554901 -0.00525696 1.33109802 -0.01051392 2.01681519 -0.01593018 C4.21140184 -0.0291067 6.4052598 -0.02040006 8.59985352 -0.01025391 C10.12915689 -0.01227557 11.65845932 -0.01518779 13.1877594 -0.01895142 C16.39137967 -0.02337177 19.5947488 -0.01695412 22.79833984 -0.00292969 C26.89856471 0.01414781 30.99819982 0.0043287 35.09840298 -0.01364708 C38.25633662 -0.02450523 41.41413126 -0.02102907 44.57206917 -0.0132637 C46.08349744 -0.01126655 47.59493846 -0.01370394 49.10635185 -0.02070236 C51.22228115 -0.02834899 53.33726578 -0.01666861 55.453125 0 C57.25703957 0.00358017 57.25703957 0.00358017 59.09739685 0.00723267 C62.71918379 0.43922462 64.44608692 1.12105476 67.29125977 3.38818359 C71.29125977 9.38818359 71.29125977 9.38818359 71.29125977 30.38818359 C42.91125977 30.38818359 14.53125977 30.38818359 -14.70874023 30.38818359 C-14.70874023 7.43195865 -14.70874023 7.43195865 -8.8780365 1.53744507 C-5.84089082 -0.07159035 -3.42881975 0.00680957 0 0 Z " fill="#B8B6B7" transform="translate(146.708740234375,395.61181640625)"/>
<path d="M0 0 C4.95 0 9.9 0 15 0 C15.71614583 2.31119792 16.43229167 4.62239583 17.1484375 6.93359375 C17.80882227 9.17798016 17.80882227 9.17798016 20 10 C22.03160472 10.12037961 24.0670744 10.17739122 26.10205078 10.20532227 C27.38322784 10.22526749 28.66440491 10.24521271 29.98440552 10.26576233 C31.38803994 10.28274669 32.79167563 10.29962549 34.1953125 10.31640625 C35.62735597 10.3369754 37.05939337 10.35797186 38.49142456 10.37937927 C42.26266563 10.43460403 46.03396152 10.48401147 49.80529785 10.53222656 C53.65280036 10.58243867 57.50022313 10.63812624 61.34765625 10.69335938 C68.8983719 10.8009459 76.44915426 10.9018838 84 11 C84 15.95 84 20.9 84 26 C73.19541915 26.02312312 62.39084414 26.04091493 51.58624363 26.05181217 C46.5697753 26.05704107 41.55332385 26.06413883 36.53686523 26.07543945 C31.69990306 26.0862681 26.86295716 26.09227679 22.02598381 26.09487724 C20.17631715 26.09673153 18.32665143 26.10035222 16.47699165 26.10573006 C13.89552986 26.1129402 11.31413618 26.11399095 8.73266602 26.11352539 C7.96014999 26.11712067 7.18763397 26.12071594 6.39170837 26.12442017 C1.11405216 26.11405216 1.11405216 26.11405216 0 25 C-0.08737645 23.14630389 -0.10698153 21.28932459 -0.09765625 19.43359375 C-0.09443359 18.30888672 -0.09121094 17.18417969 -0.08789062 16.02539062 C-0.07951172 14.84138672 -0.07113281 13.65738281 -0.0625 12.4375 C-0.05798828 11.24962891 -0.05347656 10.06175781 -0.04882812 8.83789062 C-0.03699686 5.89190588 -0.01906076 2.94594684 0 0 Z " fill="#CC7D51" transform="translate(34,400)"/>
<path d="M0 0 C2.72977064 -0.08126109 5.4571017 -0.14061663 8.1875 -0.1875 C8.95642578 -0.21263672 9.72535156 -0.23777344 10.51757812 -0.26367188 C15.17966931 -0.3236988 18.29661484 -0.13768156 22 3 C26 9 26 9 26 30 C-2.38 30 -30.76 30 -60 30 C-60 23.07 -60 16.14 -60 9 C-59.67 9 -59.34 9 -59 9 C-59 15.6 -59 22.2 -59 29 C-38.21 29 -17.42 29 4 29 C4.38822637 9.10569197 4.38822637 9.10569197 0 0 Z " fill="#9D9B9C" transform="translate(192,396)"/>
<path d="M0 0 C9.57 0 19.14 0 29 0 C29 6.27 29 12.54 29 19 C19.43 19 9.86 19 0 19 C0 12.73 0 6.46 0 0 Z " fill="#B46E48" transform="translate(468,441)"/>
<path d="M0 0 C4.29477197 2.46551724 4.29477197 2.46551724 6 5 C7.00649257 9.28521836 6.77048639 12.71585601 4.5 16.5 C1.02453346 18.58527993 -1.93999055 19.42777877 -6 19 C-10.32442933 16.68334143 -10.32442933 16.68334143 -12 14 C-12.8546223 10.80094086 -12.86726463 8.19731561 -12 5 C-9.06242482 0.67357125 -5.11655407 -1.06594876 0 0 Z " fill="#475461" transform="translate(259,52)"/>
</svg>
