<?xml version="1.0" encoding="UTF-8"?>
<svg version="1.1" xmlns="http://www.w3.org/2000/svg" width="512" height="512">
<path d="M0 0 C2.91069297 2.2273169 5.7523237 4.52155627 8.45019531 7.00268555 C11.51556083 8.85525672 14.61210444 8.95884907 18.10253906 9.2409668 C32.56192096 10.7706871 45.54351371 15.96842851 55.68847656 26.76049805 C69.73010841 45.41580893 70.73512119 68.60100056 68.13378906 91.0769043 C66.0699367 104.98396707 60.27560926 120.31183953 50.43847656 130.55737305 C47.88721985 134.37340171 47.93547769 137.61843096 47.85253906 142.1159668 C47.82289063 142.90422852 47.79324219 143.69249023 47.76269531 144.50463867 C47.69242613 146.43704126 47.64516773 148.37025695 47.60253906 150.3034668 C48.818125 150.42334961 50.03371094 150.54323242 51.28613281 150.66674805 C60.47398833 151.82559489 68.53082988 157.22343341 74.25878906 164.36987305 C81.13600827 174.06203247 83.55948401 184.53680961 81.97753906 196.3034668 C80.04509111 206.33931319 75.28001857 215.09474523 67.02050781 221.2175293 C58.70051156 226.74901791 51.44277313 228.55109478 41.60253906 229.3034668 C41.27253906 230.4790918 40.94253906 231.6547168 40.60253906 232.8659668 C33.57205819 253.72744042 17.95815 271.5147438 -0.39746094 283.3034668 C0.17472168 283.44333008 0.7469043 283.58319336 1.33642578 283.72729492 C35.68862599 292.25876569 65.36020932 309.20186474 84.85253906 339.6159668 C90.87094856 349.93860263 96.04820615 360.58831254 99.47753906 372.0534668 C99.66856201 372.68929688 99.85958496 373.32512695 100.05639648 373.98022461 C103.91482052 387.83205439 103.92849025 401.60922258 103.93847656 415.86987305 C103.94491357 418.03889552 103.95164259 420.20791715 103.95864868 422.37693787 C103.97055604 426.89616921 103.97433552 431.41532441 103.97314453 435.93457031 C103.97293997 441.72846605 104.00041206 447.52187883 104.03468895 453.31565952 C104.05688501 457.78256999 104.06098457 462.24936197 104.05992508 466.71632195 C104.06228549 468.85379665 104.07113369 470.99127441 104.08658981 473.12869453 C104.10613199 476.10600531 104.1004616 479.08224319 104.08837891 482.05957031 C104.09961792 482.941138 104.11085693 483.82270569 104.12243652 484.73098755 C104.11404755 485.54228622 104.10565857 486.3535849 104.09701538 487.18946838 C104.09810492 487.89158227 104.09919445 488.59369616 104.100317 489.31708622 C103.36848434 492.23746111 101.89797196 493.40121554 99.60253906 495.3034668 C97.12261868 495.80486345 97.12261868 495.80486345 94.28013611 495.80683136 C93.19478608 495.81726235 92.10943605 495.82769334 90.99119663 495.83844042 C89.79938251 495.82951753 88.60756838 495.82059464 87.37963867 495.81140137 C86.113142 495.81764133 84.84664534 495.82388129 83.54176998 495.83031034 C80.02389822 495.84703785 76.50645945 495.83874214 72.98858595 495.82636547 C69.19573981 495.81733114 65.40296917 495.83127663 61.61013794 495.84228516 C54.1790281 495.86009234 46.74807966 495.85622066 39.31696343 495.84463459 C33.27874948 495.83560916 27.24058082 495.8343724 21.20236206 495.83872986 C20.34369693 495.83934279 19.48503179 495.83995572 18.60034651 495.84058723 C16.85610555 495.8418661 15.11186461 495.84316295 13.36762369 495.84447759 C-2.99665648 495.85588983 -19.36084708 495.84275961 -35.72511256 495.82127613 C-49.77316678 495.80340455 -63.82108879 495.80650848 -77.86914062 495.82495117 C-94.1739733 495.84634654 -110.47872744 495.85479113 -126.7835722 495.84250212 C-128.5214761 495.84122789 -130.25938001 495.83997041 -131.99728394 495.83872986 C-132.85241532 495.83811276 -133.7075467 495.83749565 -134.58859116 495.83685985 C-140.62110181 495.83340294 -146.65356273 495.83924262 -152.68606567 495.84864807 C-160.03548847 495.85985464 -167.38474034 495.85685641 -174.7341435 495.8355251 C-178.48555617 495.82499645 -182.23668363 495.82092339 -185.98809433 495.8341217 C-190.05049918 495.84819824 -194.11218088 495.8314165 -198.17456055 495.81140137 C-199.36637467 495.82032425 -200.5581888 495.82924714 -201.78611851 495.83844042 C-202.87146853 495.82800943 -203.95681856 495.81757844 -205.07505798 495.80683136 C-206.01307723 495.80618195 -206.95109648 495.80553254 -207.91754055 495.80486345 C-211.14843837 495.15163226 -212.35038777 493.82942508 -214.39746094 491.3034668 C-214.90539551 489.25488281 -214.90539551 489.25488281 -214.91503906 487.05737305 C-214.93395203 485.81588501 -214.93395203 485.81588501 -214.95324707 484.54931641 C-214.94515015 483.66381104 -214.93705322 482.77830566 -214.92871094 481.8659668 C-214.93253784 480.94887939 -214.93636475 480.03179199 -214.94030762 479.08691406 C-214.94302643 477.15029806 -214.93566739 475.21364532 -214.91894531 473.27709961 C-214.89753488 470.31370127 -214.91874763 467.35272728 -214.94433594 464.3894043 C-214.94169266 462.50658645 -214.93656767 460.62377011 -214.92871094 458.7409668 C-214.93680786 457.85546143 -214.94490479 456.96995605 -214.95324707 456.05761719 C-214.86024616 449.95283527 -214.86024616 449.95283527 -212.55175781 446.71362305 C-210.39746094 445.3034668 -210.39746094 445.3034668 -207.39746094 445.3034668 C-207.39746094 440.3534668 -207.39746094 435.4034668 -207.39746094 430.3034668 C-209.04746094 429.9734668 -210.69746094 429.6434668 -212.39746094 429.3034668 C-214.84721372 425.62883763 -214.6682211 423.77248324 -214.69824219 419.3894043 C-214.70388687 418.70698166 -214.70953156 418.02455902 -214.71534729 417.32145691 C-214.72738815 415.10689644 -214.7211123 412.89302613 -214.70996094 410.6784668 C-214.70780579 409.92604706 -214.70565063 409.17362732 -214.70343018 408.39840698 C-214.65265771 397.42231057 -214.3169893 386.94919951 -211.39746094 376.3034668 C-211.20941895 375.60366699 -211.02137695 374.90386719 -210.82763672 374.18286133 C-205.9061898 356.38813082 -197.36132542 340.33655313 -185.39746094 326.3034668 C-184.61886719 325.36245117 -183.84027344 324.42143555 -183.03808594 323.4519043 C-163.97041818 301.33091719 -138.24610946 289.93700876 -110.39746094 283.3034668 C-111.11289063 282.80459961 -111.82832031 282.30573242 -112.56542969 281.79174805 C-131.10438737 268.43314594 -143.63783574 252.42681367 -152.39746094 231.3034668 C-152.39746094 230.6434668 -152.39746094 229.9834668 -152.39746094 229.3034668 C-153.739375 229.17391602 -153.739375 229.17391602 -155.10839844 229.04174805 C-166.14042182 227.75977518 -175.80363001 224.80641833 -183.39746094 216.3034668 C-191.17132551 205.81668214 -194.54441679 195.32567067 -192.77246094 182.3034668 C-190.84001298 172.26762041 -186.07494044 163.51218837 -177.81542969 157.3894043 C-171.37507107 153.10757901 -166.24037422 150.3034668 -158.39746094 150.3034668 C-158.04557211 145.74244618 -158.08218408 141.70885192 -159.39746094 137.3034668 C-162.11926315 135.0911419 -164.74836338 134.03820604 -168.00292969 132.74487305 C-177.69300441 128.63021531 -185.82334579 120.46747757 -193.39746094 113.3034668 C-194.10773438 112.63444336 -194.81800781 111.96541992 -195.54980469 111.27612305 C-207.72700718 99.47288454 -207.72700718 99.47288454 -209.08496094 93.0534668 C-208.18735488 89.46304255 -207.0753755 87.88048662 -204.39746094 85.3034668 C-201.4304769 84.707103 -198.88401215 84.38704474 -195.89746094 84.2409668 C-186.73106883 83.52406292 -178.60865142 81.58092417 -170.39746094 77.3034668 C-171.1825 76.87936523 -171.96753906 76.45526367 -172.77636719 76.01831055 C-185.72885857 68.78716505 -193.35315027 60.63086257 -197.77246094 46.2409668 C-199.2085081 40.69589393 -200.13264828 36.00116869 -199.39746094 30.3034668 C-197.36918142 27.64986905 -196.23900405 26.44056751 -192.90234375 25.89697266 C-191.97776367 25.93701416 -191.05318359 25.97705566 -190.10058594 26.01831055 C-189.06732178 26.04723389 -188.03405762 26.07615723 -186.96948242 26.10595703 C-185.87321533 26.15051025 -184.77694824 26.19506348 -183.64746094 26.2409668 C-164.92975657 26.58498811 -149.41940272 23.06317893 -133.33496094 13.3034668 C-130.19289563 11.47109602 -129.39619706 11.30348718 -125.52246094 11.3659668 C-122.39746094 12.3034668 -122.39746094 12.3034668 -119.39746094 14.3034668 C-118.77097656 13.8703418 -118.14449219 13.4372168 -117.49902344 12.9909668 C-116.68175781 12.4340918 -115.86449219 11.8772168 -115.02246094 11.3034668 C-114.21035156 10.7465918 -113.39824219 10.1897168 -112.56152344 9.6159668 C-110.39746094 8.3034668 -110.39746094 8.3034668 -108.39746094 8.3034668 C-108.47996094 7.0659668 -108.56246094 5.8284668 -108.64746094 4.5534668 C-108.84628572 1.57109512 -108.63545382 0.60334908 -106.74511719 -1.77856445 C-77.6713137 -25.53103952 -28.75451813 -20.97631148 0 0 Z " fill="#010101" transform="translate(311.3974609375,16.696533203125)"/>
<path d="M0 0 C6.70129503 5.36103602 12.29477882 11.62771956 18 18 C18.76570313 18.85078125 19.53140625 19.7015625 20.3203125 20.578125 C21.77719305 22.19688116 23.23291702 23.81667897 24.6875 25.4375 C27.27615003 28.30600409 29.88585146 31.1547665 32.5 34 C36.59166107 38.45335487 40.64822946 42.93659854 44.6875 47.4375 C47.27615003 50.30600409 49.88585146 53.1547665 52.5 56 C56.58917448 60.45064847 60.64369084 64.93078083 64.6796875 69.4296875 C66.36493078 71.29650581 68.05637929 73.15587242 69.7578125 75.0078125 C70.22993164 75.52182617 70.70205078 76.03583984 71.18847656 76.56542969 C72.13857995 77.59691515 73.09102096 78.62625279 74.04589844 79.65332031 C76.76134313 82.58722704 79.27720569 85.61187987 81.75 88.75 C84.1915404 91.54116432 84.75809528 91.94482875 88.5625 92.8125 C95.12615463 91.26109072 98.68473483 86.36137288 102.890625 81.4296875 C105.49005342 78.43553106 108.17763944 75.53079105 110.875 72.625 C115.19795439 67.96102368 119.47817292 63.26305119 123.72265625 58.52734375 C126.29809775 55.66917797 128.89685764 52.83289739 131.5 50 C134.85293117 46.35072829 138.18998357 42.68830402 141.5 39 C145.27537217 34.79315673 149.08980448 30.62325147 152.9140625 26.4609375 C156.52071377 22.53190399 160.09024727 18.57094043 163.65234375 14.6015625 C168.07026753 9.70582667 172.53722673 4.85482998 177 0 C182.37722282 2.50318993 186.59391956 5.03452761 191 9 C187.38585087 14.14742452 183.49209149 18.63446554 178.98828125 23.01953125 C176.53469742 25.46347428 174.29676498 28.05210417 172.0390625 30.67578125 C169.45246235 33.62410901 166.79150546 36.49902207 164.125 39.375 C160.37793372 43.42148003 156.63919241 47.47433399 152.9375 51.5625 C152.24527344 52.32691406 151.55304688 53.09132813 150.83984375 53.87890625 C147.00028345 58.13028371 147.00028345 58.13028371 145.625 63.5625 C145.75110629 66.87281147 145.75110629 66.87281147 147.125 68.9375 C149.98513349 70.55824231 151.76608669 70.51742613 155 70 C157.54242578 67.9614968 157.54242578 67.9614968 160 65 C161.2853707 63.72279903 162.5775927 62.45247211 163.875 61.1875 C167.05137454 58.01112546 170.03212575 54.72779222 172.9609375 51.32421875 C175.5475366 48.37589219 178.20846266 45.50094691 180.875 42.625 C191.17557098 31.52197074 191.17557098 31.52197074 201 20 C214.13887861 25.79824425 221.9636905 45.20118307 227 58 C228.57616984 62.62048541 229.91327557 67.24107405 231 72 C231.16867081 72.68220108 231.33734161 73.36440216 231.51112366 74.067276 C233.57025829 83.53703484 233.25161927 93.03238876 233.1953125 102.66796875 C233.19157573 104.55796661 233.1887319 106.44796642 233.18673706 108.33796692 C233.17915288 113.27806074 233.15955 118.21803429 233.1373291 123.15808105 C233.11313153 129.10373703 233.10406483 135.04943354 233.09242249 140.99512482 C233.07312194 149.99683316 233.03476314 158.99827835 233 168 C218.15 168 203.3 168 188 168 C187.96261719 163.55917969 187.92523438 159.11835938 187.88671875 154.54296875 C187.84861753 151.00397024 187.80754471 147.46503402 187.7644577 143.92609406 C187.71977828 140.18927547 187.68034707 136.45256953 187.65356445 132.71557617 C187.62757087 129.11679448 187.58719752 125.51843614 187.53681374 121.91991615 C187.52011809 120.54644343 187.5086206 119.17289743 187.50238609 117.79933739 C187.49277525 115.8767681 187.46303335 113.95433123 187.43237305 112.03198242 C187.42126999 110.93722092 187.41016693 109.84245941 187.39872742 108.71452332 C187.20873424 105.99947856 187.20873424 105.99947856 185.69172668 104.1464386 C182.84278074 102.215783 180.31818782 102.64447988 177 103 C161.65037098 118.34962902 173.35007791 146.29516949 173 168 C117.56 168 62.12 168 5 168 C4.67 147.54 4.34 127.08 4 106 C-0.16639391 102.87520457 -1.07362841 102.3711015 -6 103 C-7.77325903 104.09169281 -7.77325903 104.09169281 -9 106 C-9.47444701 108.80433977 -9.47444701 108.80433977 -9.43237305 112.03198242 C-9.45216721 113.27304245 -9.47196136 114.51410248 -9.49235535 115.79277039 C-9.49912509 117.14700163 -9.50557196 118.50123453 -9.51171875 119.85546875 C-9.52856405 121.24125261 -9.54671409 122.62702118 -9.56611633 124.01277161 C-9.61363938 127.65741192 -9.64343344 131.30199023 -9.66955566 134.94683838 C-9.69934983 138.66715659 -9.74572228 142.38726539 -9.79101562 146.10742188 C-9.87864321 153.40496529 -9.93856546 160.70200049 -10 168 C-24.85 168 -39.7 168 -55 168 C-55.25 152.6875 -55.25 152.6875 -55.29785156 147.8659668 C-55.3284668 146.61468994 -55.35908203 145.36341309 -55.390625 144.07421875 C-55.41157227 142.79119873 -55.43251953 141.50817871 -55.45410156 140.1862793 C-55.69623902 136.95062254 -55.69623902 136.95062254 -57.85058594 135.12036133 C-60.08411786 133.88413921 -60.08411786 133.88413921 -63 133 C-63 128.05 -63 123.1 -63 118 C-61.02 117.01 -59.04 116.02 -57 115 C-55.17104148 113.17104148 -55.8476763 110.24518648 -55.82421875 107.7890625 C-55.3129755 76.08804808 -49.76321893 45.37179604 -26.734375 21.66796875 C-25.87585938 20.84232422 -25.87585938 20.84232422 -25 20 C-21.9253198 21.34517259 -20.12428098 22.72906454 -18 25.3125 C-14.80171905 29.09415838 -11.49564794 32.74791845 -8.125 36.375 C-3.80176656 41.038714 0.47817786 45.73695432 4.72265625 50.47265625 C7.29809775 53.33082203 9.89685764 56.16710261 12.5 59 C16.59169207 63.45332617 20.64822977 67.93659888 24.6875 72.4375 C27.27615003 75.30600409 29.88585146 78.1547665 32.5 81 C36.59166107 85.45335487 40.64822946 89.93659854 44.6875 94.4375 C47.27615052 97.30600463 49.88591091 100.15471146 52.5 103 C55.91183695 106.71484832 59.31169328 110.43983161 62.6875 114.1875 C63.77417969 115.38826172 63.77417969 115.38826172 64.8828125 116.61328125 C66.30081483 118.21180417 67.69157673 119.83488826 69.0546875 121.48046875 C73.8910142 127.24830585 77.98382644 131.21551571 85.59765625 132.40625 C92.76880715 132.80969028 98.26858466 131.34346576 104 127 C108.99879828 122.31670202 113.50628551 117.16152018 118 112 C118.66902344 111.24074219 119.33804688 110.48148437 120.02734375 109.69921875 C121.07091053 108.5076645 122.10894162 107.31123296 123.140625 106.109375 C126.3513789 102.4669231 129.68058154 98.93126127 133.00244141 95.39013672 C136.94034109 91.3445095 136.94034109 91.3445095 138.1875 86.0625 C138.2469358 82.82568546 138.2469358 82.82568546 136 80 C132.5104063 79.11173979 131.3240712 78.89197627 128 80 C123.89179776 83.28420752 120.46935246 87.06946474 117 91 C116.39414062 91.67804688 115.78828125 92.35609375 115.1640625 93.0546875 C114.08420785 94.28203449 113.01404604 95.51796908 111.953125 96.76171875 C108.80733069 100.36679902 105.53014191 103.85112958 102.26196289 107.34521484 C99.99198099 109.78489766 97.83062417 112.21430625 95.76171875 114.83203125 C93.55050267 117.55315082 92.65566339 117.91257821 89.1875 118.375 C84.9915728 117.88136151 83.6389615 116.00995609 81 113 C79.54793433 111.55616911 78.08896576 110.11926347 76.625 108.6875 C73.26876154 105.33126154 70.09443359 101.88870223 67.00390625 98.2890625 C64.43130036 95.35037429 61.78057349 92.48863478 59.125 89.625 C54.80229839 84.96078625 50.52183148 80.2630561 46.27734375 75.52734375 C43.70190225 72.66917797 41.10314236 69.83289739 38.5 67 C34.40830793 62.54667383 30.35177023 58.06340112 26.3125 53.5625 C23.72384997 50.69399591 21.11414854 47.8452335 18.5 45 C14.41140485 40.54998208 10.35564499 36.07219243 6.32421875 31.5703125 C4.63089337 29.69769385 2.92728164 27.83971178 1.20703125 25.9921875 C-3.85979269 20.54178509 -8.67749492 15.074872 -13 9 C-11.58680023 7.87064804 -10.16928595 6.74669374 -8.75 5.625 C-7.96109375 4.99851562 -7.1721875 4.37203125 -6.359375 3.7265625 C-4.28818811 2.21089263 -2.32930503 1.05780366 0 0 Z " fill="#85DBFE" transform="translate(167,329)"/>
<path d="M0 0 C2.95987338 2.80992385 5.30468659 5.71038764 7.625 9.0625 C15.18993167 19.98042684 15.18993167 19.98042684 25.61474609 27.66601562 C28.42006403 29.66976501 28.94465579 30.72240538 29.62931824 34.15652466 C29.84702978 38.40467238 29.84044238 42.60100883 29.75390625 46.8515625 C29.7459148 48.43231058 29.74074673 50.01307522 29.73826599 51.59384155 C29.72603061 54.90802778 29.69110121 58.22088889 29.63793945 61.53466797 C29.5704153 65.75416839 29.54116098 69.97272844 29.52694798 74.19271278 C29.51170169 78.24578423 29.47736567 82.2986305 29.44140625 86.3515625 C29.43349154 87.49210524 29.43349154 87.49210524 29.42541695 88.65568924 C29.22149096 112.44869623 23.16846831 133.91723216 7 152 C6.26136719 152.83273437 5.52273438 153.66546875 4.76171875 154.5234375 C-4.73393313 164.62519482 -16.01201859 171.30577243 -29 176 C-30.16789062 176.44279297 -30.16789062 176.44279297 -31.359375 176.89453125 C-51.84793386 184.26895935 -74.40276441 182.31971681 -94.1015625 173.46875 C-103.84620489 168.5307641 -112.26840153 162.71866938 -120 155 C-120.77085937 154.24074219 -121.54171875 153.48148438 -122.3359375 152.69921875 C-139.83978993 134.44861494 -145.38103326 111.72368051 -145.1953125 87.07421875 C-145.19157093 85.59064426 -145.18872939 84.10706725 -145.18673706 82.62348938 C-145.17919044 78.76515583 -145.15962197 74.9069788 -145.1373291 71.04870605 C-145.11667448 67.0930391 -145.1076939 63.13734625 -145.09765625 59.18164062 C-145.0763652 51.45435661 -145.04234135 43.72720044 -145 36 C-143.66174919 35.90497444 -143.66174919 35.90497444 -142.29646301 35.80802917 C-141.12588852 35.72209 -139.95531403 35.63615082 -138.74926758 35.54760742 C-137.58897537 35.46363205 -136.42868317 35.37965668 -135.23323059 35.2931366 C-112.76095385 33.2557172 -90.95120866 21.41000677 -73.890625 7.28515625 C-71.59772418 5.4725252 -69.66636287 4.13255704 -67 3 C-63.89418853 9.34665821 -63.55496022 15.22819486 -63.37915039 22.18334961 C-63.41340673 26.55718141 -63.41340673 26.55718141 -61 30 C-44.72685493 32.3132074 -27.47810292 23.6704152 -14.60620117 14.2734375 C-9.09966711 10.07123097 -4.23105322 5.50806201 0 0 Z " fill="#FEDFCB" transform="translate(314,119)"/>
<path d="M0 0 C2.22040218 1.59751708 4.19550318 3.11795075 6.0703125 5.109375 C10.92768429 10.23524473 15.54814869 9.84881694 22.3828125 10.05859375 C32.75579024 10.61652285 43.23713225 14.82744471 50.4375 22.375 C58.58100182 32.51392942 61.84209154 43.72473867 61.6875 56.5625 C61.68073242 57.38693604 61.67396484 58.21137207 61.66699219 59.06079102 C61.40503382 74.7645862 58.47683786 90.20016507 49.4375 103.375 C47.25 105.18359375 47.25 105.18359375 45.4375 106.375 C34.38411768 97.95035903 26.6521934 86.24727017 19.60986328 74.44165039 C17.62524119 70.81334694 17.62524119 70.81334694 14.4375 68.375 C9.89204343 67.82648135 9.89204343 67.82648135 5.92578125 69.5859375 C4.15125627 71.71909352 2.60978677 73.94657309 1.0625 76.25 C-1.55491543 80.02585399 -4.13753699 83.28417972 -7.5625 86.375 C-8.06523437 86.89320312 -8.56796875 87.41140625 -9.0859375 87.9453125 C-13.45609452 92.20096759 -18.21548271 94.97623134 -23.625 97.6875 C-24.29764893 98.02499268 -24.97029785 98.36248535 -25.66333008 98.71020508 C-29.89032652 100.75419223 -34.01414459 102.20981662 -38.5625 103.375 C-38.68625 102.61058594 -38.81 101.84617187 -38.9375 101.05859375 C-40.2687096 94.14462389 -42.23145089 88.42833904 -45.5625 82.25 C-45.90667969 81.61118896 -46.25085938 80.97237793 -46.60546875 80.31420898 C-49.03897284 75.89332685 -49.03897284 75.89332685 -52.5625 72.375 C-55.97749591 71.70792452 -55.97749591 71.70792452 -59.5625 72.375 C-62.04840397 74.61528537 -62.04840397 74.61528537 -64.5625 77.375 C-83.05255229 95.56193668 -105.46397724 107.59159418 -131.5625 110.375 C-132.47644531 110.49488281 -133.39039063 110.61476563 -134.33203125 110.73828125 C-145.74599358 111.59056833 -155.78594921 104.60554967 -164.1640625 97.5078125 C-165.35128906 96.45207031 -165.35128906 96.45207031 -166.5625 95.375 C-167.96628906 94.13363281 -167.96628906 94.13363281 -169.3984375 92.8671875 C-171.80204463 90.7194265 -174.18933928 88.55628815 -176.5625 86.375 C-173.39880619 84.26587079 -170.67091312 83.35704098 -167.0625 82.1875 C-155.85203207 78.34349529 -146.8818258 72.23864619 -139.625 62.875 C-138.18428376 59.48507943 -138.09055128 57.0157473 -138.5625 53.375 C-141.49947912 50.47170183 -143.70310007 50.0367746 -147.75 49.9375 C-156.04806316 49.3732317 -162.70327186 46.36739241 -168.5625 40.375 C-173.5625 32.875 -173.5625 32.875 -173.5625 28.375 C-172.44875 28.34921875 -171.335 28.3234375 -170.1875 28.296875 C-150.08456766 27.63550672 -130.06174274 22.45947937 -113.5625 10.375 C-112.25648079 8.25950069 -112.25648079 8.25950069 -113.125 5.1875 C-112.5625 1.375 -112.5625 1.375 -110.4453125 -0.60546875 C-106.91168894 -3.08924763 -103.67388114 -5.25453962 -99.5625 -6.625 C-99.211875 -6.13 -98.86125 -5.635 -98.5 -5.125 C-95.53148128 -2.82679196 -93.24336234 -3.34156604 -89.5625 -3.625 C-86.15377924 -4.94822859 -86.15377924 -4.94822859 -82.75 -6.8125 C-54.31109111 -20.84231401 -25.95982262 -17.71237519 0 0 Z " fill="#2C4355" transform="translate(303.5625,30.625)"/>
<path d="M0 0 C6.70129503 5.36103602 12.29477882 11.62771956 18 18 C18.76570313 18.85078125 19.53140625 19.7015625 20.3203125 20.578125 C21.77719305 22.19688116 23.23291702 23.81667897 24.6875 25.4375 C27.27615003 28.30600409 29.88585146 31.1547665 32.5 34 C36.59166107 38.45335487 40.64822946 42.93659854 44.6875 47.4375 C47.27615003 50.30600409 49.88585146 53.1547665 52.5 56 C56.58917448 60.45064847 60.64369084 64.93078083 64.6796875 69.4296875 C66.36493078 71.29650581 68.05637929 73.15587242 69.7578125 75.0078125 C70.22993164 75.52182617 70.70205078 76.03583984 71.18847656 76.56542969 C72.13857995 77.59691515 73.09102096 78.62625279 74.04589844 79.65332031 C76.76134313 82.58722704 79.27720569 85.61187987 81.75 88.75 C84.1915404 91.54116432 84.75809528 91.94482875 88.5625 92.8125 C95.12615463 91.26109072 98.68473483 86.36137288 102.890625 81.4296875 C105.49005342 78.43553106 108.17763944 75.53079105 110.875 72.625 C115.19795439 67.96102368 119.47817292 63.26305119 123.72265625 58.52734375 C126.29809775 55.66917797 128.89685764 52.83289739 131.5 50 C134.85293117 46.35072829 138.18998357 42.68830402 141.5 39 C145.27537217 34.79315673 149.08980448 30.62325147 152.9140625 26.4609375 C156.52071377 22.53190399 160.09024727 18.57094043 163.65234375 14.6015625 C168.07026753 9.70582667 172.53722673 4.85482998 177 0 C182.37722282 2.50318993 186.59391956 5.03452761 191 9 C187.38585087 14.14742452 183.49209149 18.63446554 178.98828125 23.01953125 C176.53469742 25.46347428 174.29676498 28.05210417 172.0390625 30.67578125 C169.45246235 33.62410901 166.79150546 36.49902207 164.125 39.375 C160.37793372 43.42148003 156.63919241 47.47433399 152.9375 51.5625 C152.24527344 52.32691406 151.55304688 53.09132813 150.83984375 53.87890625 C150.23269531 54.57886719 149.62554687 55.27882813 149 56 C148.41863281 56.65355469 147.83726562 57.30710937 147.23828125 57.98046875 C145.67503656 60.52998769 145.89512029 61.81757289 146.25 64.75 C146.41370075 69.17646818 145.60286013 71.16468194 142.6875 74.5 C140.53506753 76.70206928 138.58146791 78.27902139 136 80 C134.2675 79.7215625 134.2675 79.7215625 132.5 79.4375 C129.0798794 79.3304244 128.01864704 79.98520543 125.27734375 82.16015625 C122.36568502 84.97111781 119.67738429 87.96670964 117 91 C116.39414062 91.67804688 115.78828125 92.35609375 115.1640625 93.0546875 C114.08420785 94.28203449 113.01404604 95.51796908 111.953125 96.76171875 C108.80733069 100.36679902 105.53014191 103.85112958 102.26196289 107.34521484 C99.99198099 109.78489766 97.83062417 112.21430625 95.76171875 114.83203125 C93.55050267 117.55315082 92.65566339 117.91257821 89.1875 118.375 C84.9915728 117.88136151 83.6389615 116.00995609 81 113 C79.54793433 111.55616911 78.08896576 110.11926347 76.625 108.6875 C73.26876154 105.33126154 70.09443359 101.88870223 67.00390625 98.2890625 C64.43130036 95.35037429 61.78057349 92.48863478 59.125 89.625 C54.80229839 84.96078625 50.52183148 80.2630561 46.27734375 75.52734375 C43.70190225 72.66917797 41.10314236 69.83289739 38.5 67 C34.40830793 62.54667383 30.35177023 58.06340112 26.3125 53.5625 C23.72384997 50.69399591 21.11414854 47.8452335 18.5 45 C14.41140485 40.54998208 10.35564499 36.07219243 6.32421875 31.5703125 C4.63089337 29.69769385 2.92728164 27.83971178 1.20703125 25.9921875 C-3.85979269 20.54178509 -8.67749492 15.074872 -13 9 C-11.58680023 7.87064804 -10.16928595 6.74669374 -8.75 5.625 C-7.96109375 4.99851562 -7.1721875 4.37203125 -6.359375 3.7265625 C-4.28818811 2.21089263 -2.32930503 1.05780366 0 0 Z " fill="#FCCC4B" transform="translate(167,329)"/>
<path d="M0 0 C55.44 0 110.88 0 168 0 C168 3.63 168 7.26 168 11 C112.56 11 57.12 11 0 11 C0 7.37 0 3.74 0 0 Z " fill="#56CAED" transform="translate(172,486)"/>
<path d="M0 0 C3.87098695 2.81526324 6.83492661 5.99117504 9.921875 9.6015625 C12.35384242 12.40838204 14.85853101 15.14427115 17.375 17.875 C20.7707416 21.56517006 24.15115565 25.26705881 27.5 29 C30.81001669 32.68830432 34.14709421 36.35070475 37.5 40 C41.59166107 44.45335487 45.64822946 48.93659854 49.6875 53.4375 C52.27615003 56.30600409 54.88585146 59.1547665 57.5 62 C61.58917448 66.45064847 65.64369084 70.93078083 69.6796875 75.4296875 C72.77656474 78.86023501 75.90518079 82.26119455 79.03930664 85.65771484 C82.2823659 89.18275429 85.41703379 92.78177498 88.46484375 96.4765625 C91.59026542 99.57812599 94.54515981 100.30755701 98.875 100.375 C99.69742188 100.40335937 100.51984375 100.43171875 101.3671875 100.4609375 C108.13004234 99.27693621 112.54048645 93.59842027 116.9375 88.75 C117.55794189 88.07541748 118.17838379 87.40083496 118.81762695 86.70581055 C122.34740264 82.85628691 125.83002346 78.9694186 129.23828125 75.01171875 C132.04105997 71.81120646 134.93297531 68.69235428 137.81323242 65.56176758 C140.72833296 62.39166422 143.62406136 59.2057954 146.5 56 C150.27537217 51.79315673 154.08980448 47.62325147 157.9140625 43.4609375 C160.79422607 40.32332914 163.65531614 37.16979059 166.5 34 C169.810018 30.31169423 173.14722126 26.64941305 176.5 23 C183.44853319 15.43242227 190.35532513 7.83730882 197 0 C198.98 1.98 198.98 1.98 201 4 C200.61255615 4.4125 200.2251123 4.825 199.82592773 5.25 C190.6856725 14.95790734 190.6856725 14.95790734 181.828125 24.921875 C179.30930759 27.78514607 176.7167229 30.57776956 174.125 33.375 C170.37808424 37.4216222 166.63919495 41.47433119 162.9375 45.5625 C162.24527344 46.32691406 161.55304688 47.09132813 160.83984375 47.87890625 C160.23269531 48.57886719 159.62554687 49.27882813 159 50 C158.41863281 50.65355469 157.83726562 51.30710937 157.23828125 51.98046875 C155.67503656 54.52998769 155.89512029 55.81757289 156.25 58.75 C156.41370075 63.17646818 155.60286013 65.16468194 152.6875 68.5 C150.53506753 70.70206928 148.58146791 72.27902139 146 74 C144.2675 73.7215625 144.2675 73.7215625 142.5 73.4375 C139.0798794 73.3304244 138.01864704 73.98520543 135.27734375 76.16015625 C132.36568502 78.97111781 129.67738429 81.96670964 127 85 C126.39414062 85.67804688 125.78828125 86.35609375 125.1640625 87.0546875 C124.08420785 88.28203449 123.01404604 89.51796908 121.953125 90.76171875 C118.80733069 94.36679902 115.53014191 97.85112958 112.26196289 101.34521484 C109.99198099 103.78489766 107.83062417 106.21430625 105.76171875 108.83203125 C103.55050267 111.55315082 102.65566339 111.91257821 99.1875 112.375 C94.9915728 111.88136151 93.6389615 110.00995609 91 107 C89.54793433 105.55616911 88.08896576 104.11926347 86.625 102.6875 C83.26876154 99.33126154 80.09443359 95.88870223 77.00390625 92.2890625 C74.43130036 89.35037429 71.78057349 86.48863478 69.125 83.625 C64.80229839 78.96078625 60.52183148 74.2630561 56.27734375 69.52734375 C53.70190225 66.66917797 51.10314236 63.83289739 48.5 61 C44.40830793 56.54667383 40.35177023 52.06340112 36.3125 47.5625 C33.72384997 44.69399591 31.11414854 41.8452335 28.5 39 C24.41140485 34.54998208 20.35564499 30.07219243 16.32421875 25.5703125 C14.63089337 23.69769385 12.92728164 21.83971178 11.20703125 19.9921875 C6.14020731 14.54178509 1.32250508 9.074872 -3 3 C-2.01 2.01 -1.02 1.02 0 0 Z " fill="#F8B128" transform="translate(157,335)"/>
<path d="M0 0 C3.79000529 1.2633351 4.32015268 2.64463742 6.5 5.9375 C19.3190079 23.95403292 40.52064202 36.02928063 62.04296875 40.3046875 C77.62800492 42.83373881 94.0752541 42.22851727 109 37 C109.63969727 36.78037598 110.27939453 36.56075195 110.93847656 36.33447266 C129.99291126 29.68001981 147.31216608 17.36773012 158 0 C158.99 0.495 158.99 0.495 160 1 C155.75991625 9.45366698 151.33734299 16.91233407 145 24 C144.26136719 24.83273437 143.52273438 25.66546875 142.76171875 26.5234375 C133.26606687 36.62519482 121.98798141 43.30577243 109 48 C107.83210938 48.44279297 107.83210938 48.44279297 106.640625 48.89453125 C86.15206614 56.26895935 63.59723559 54.31971681 43.8984375 45.46875 C34.15379511 40.5307641 25.73159847 34.71866938 18 27 C17.22914063 26.24074219 16.45828125 25.48148437 15.6640625 24.69921875 C9.0016152 17.75253735 3.06968976 9.20906927 0 0 Z " fill="#F9C9AF" transform="translate(176,247)"/>
<path d="M0 0 C1.01900391 0.00676758 1.01900391 0.00676758 2.05859375 0.01367188 C3.70576874 0.0252717 5.35289726 0.04319801 7 0.0625 C7.64939736 2.43657592 8.29460053 4.8116639 8.9375 7.1875 C9.21110352 8.18523437 9.21110352 8.18523437 9.49023438 9.203125 C12.76235981 21.33973569 12.33044178 31.9758151 10 44.25 C9.71382812 45.82104492 9.71382812 45.82104492 9.421875 47.42382812 C8.95649786 49.97176797 8.4824538 52.51774867 8 55.0625 C0.61768827 48.88665587 0.61768827 48.88665587 -2.1875 45.5 C-5.32836144 41.80860554 -8.57813157 38.23884546 -11.875 34.6875 C-16.96832545 29.19132158 -22.00054607 23.6443276 -27 18.0625 C-28.68707239 16.18711524 -30.37456427 14.31210775 -32.0625 12.4375 C-34.03125 10.25 -34.03125 10.25 -36 8.0625 C-35 6.0625 -35 6.0625 -33.26928711 5.39233398 C-32.15952515 5.10338257 -32.15952515 5.10338257 -31.02734375 4.80859375 C-29.80047852 4.48665039 -29.80047852 4.48665039 -28.54882812 4.15820312 C-27.68708984 3.94099609 -26.82535156 3.72378906 -25.9375 3.5 C-25.10283203 3.27892578 -24.26816406 3.05785156 -23.40820312 2.83007812 C-15.56457596 0.8065079 -8.10250063 -0.07234376 0 0 Z " fill="#E2ECF7" transform="translate(218,314.9375)"/>
<path d="M0 0 C15.19440614 -0.46993009 28.95243528 0.48854059 43 7 C41.00396217 9.33682478 39.00408331 11.67008578 37 14 C36.49339844 14.59039062 35.98679687 15.18078125 35.46484375 15.7890625 C31.26016578 20.64458743 26.91557492 25.3628066 22.55102539 30.07397461 C17.12497418 35.9340421 11.78073063 41.86575013 6.48046875 47.83984375 C5.66191406 48.75894531 4.84335937 49.67804688 4 50.625 C3.2575 51.46289062 2.515 52.30078125 1.75 53.1640625 C1.1725 53.76992188 0.595 54.37578125 0 55 C-0.33 55 -0.66 55 -1 55 C-1.68276334 51.39869578 -2.3431332 47.79360996 -3 44.1875 C-3.28617187 42.68026367 -3.28617187 42.68026367 -3.578125 41.14257812 C-5.46926235 30.64001177 -5.46779414 21.33269854 -3.0625 10.9375 C-2.78889648 9.67776367 -2.78889648 9.67776367 -2.50976562 8.39257812 C-1.17125496 2.34250992 -1.17125496 2.34250992 0 0 Z " fill="#E2EBF6" transform="translate(287,315)"/>
<path d="M0 0 C7.92 0 15.84 0 24 0 C24.84466873 4.28971046 25.67600398 8.58131261 26.5 12.875 C26.73847656 14.07898438 26.97695313 15.28296875 27.22265625 16.5234375 C30.63630526 34.46947803 30.63630526 34.46947803 27.27734375 39.6640625 C26.11912109 40.63472656 26.11912109 40.63472656 24.9375 41.625 C24.1228125 42.34816406 23.308125 43.07132812 22.46875 43.81640625 C21.6540625 44.53699219 20.839375 45.25757813 20 46 C18.62003409 47.49746301 17.26318321 49.01677511 15.9375 50.5625 C15.36902344 51.22378906 14.80054688 51.88507813 14.21484375 52.56640625 C13.81394531 53.03949219 13.41304688 53.51257813 13 54 C8.30018343 51.88611151 5.28479527 48.60520932 1.75 44.9375 C1.1003125 44.30650391 0.450625 43.67550781 -0.21875 43.02539062 C-3.25573644 39.86398982 -5.42705599 37.41413562 -5.578125 32.9140625 C-5.44473447 31.27014775 -5.24323638 29.63128318 -5 28 C-4.83661133 26.89889893 -4.67322266 25.79779785 -4.50488281 24.66333008 C-3.89206926 20.90922224 -3.20733295 17.17489435 -2.5 13.4375 C-2.26152344 12.14263672 -2.02304688 10.84777344 -1.77734375 9.51367188 C-1.1920036 6.34112828 -0.59697704 3.17037448 0 0 Z " fill="#FC5774" transform="translate(244,349)"/>
<path d="M0 0 C2.65076391 2.02705476 4.19376745 4.27355405 6.125 7 C10.17959833 11.85565879 15.84330703 13.59241645 21.96484375 14.3828125 C29.31859128 14.66674098 36.95925174 13.71312002 42.58984375 8.5390625 C43.80280975 7.08645276 44.90613191 5.54428436 46 4 C48.34414848 1.12652768 49.26780724 0.14020712 52.9375 -0.5625 C57.08958249 0.2001274 58.55795207 1.59593318 61 5 C61.10638723 10.0001996 59.05352486 13.16352005 56 17 C50.95404893 22.24002611 45.81521445 25.52060754 39 28 C37.9275 28.4125 36.855 28.825 35.75 29.25 C24.42780225 31.51443955 12.13283089 30.48836537 2.1875 24.3125 C-3.23543224 20.3586894 -8.4236282 15.3020075 -11 9 C-10.81225297 5.93346518 -10.46117551 3.76862586 -8.875 1.125 C-5.83167192 -0.70099685 -3.45750445 -0.42460581 0 0 Z " fill="#050404" transform="translate(231,231)"/>
<path d="M0 0 C2.265625 0.40625 2.265625 0.40625 4.078125 2.40625 C4.6659375 3.39625 4.6659375 3.39625 5.265625 4.40625 C4.29625 4.53 3.326875 4.65375 2.328125 4.78125 C-1.5282401 5.87427165 -3.29740722 7.88492755 -5.859375 10.90625 C-23.14542678 31.13151261 -48.66196044 40.3530583 -74.33203125 43.75 C-85.92713749 44.48503051 -95.79336598 37.77612475 -104.3359375 30.5390625 C-105.12742188 29.83523437 -105.91890625 29.13140625 -106.734375 28.40625 C-107.67023438 27.57867187 -108.60609375 26.75109375 -109.5703125 25.8984375 C-111.97391963 23.7506765 -114.36121428 21.58753815 -116.734375 19.40625 C-113.72817407 17.40211605 -112.30520298 16.49126971 -108.734375 16.40625 C-106.484375 18.46875 -106.484375 18.46875 -105.21875 19.87890625 C-98.41662617 26.87793366 -87.09586207 32.57003528 -77.296875 32.84375 C-75.77269919 32.73844331 -74.25134792 32.58789401 -72.734375 32.40625 C-71.71085937 32.31085938 -70.68734375 32.21546875 -69.6328125 32.1171875 C-45.30615357 29.31660148 -23.4725395 18.61596596 -5.42578125 2.3125 C-2.734375 0.40625 -2.734375 0.40625 0 0 Z " fill="#243645" transform="translate(243.734375,97.59375)"/>
<path d="M0 0 C2.27230396 2.17695693 3.97098095 4.72757085 5.75 7.3125 C6.81355382 8.78887849 7.87866696 10.2641349 8.9453125 11.73828125 C9.46512695 12.46611816 9.98494141 13.19395508 10.52050781 13.94384766 C16.14333146 21.75827353 22.3585745 30.36453334 31 35 C34.11589377 34.91070591 35.48649319 34.46449532 37.80078125 32.37109375 C38.29964844 31.73300781 38.79851562 31.09492187 39.3125 30.4375 C39.82425781 29.79683594 40.33601563 29.15617187 40.86328125 28.49609375 C41.23839844 28.00238281 41.61351562 27.50867188 42 27 C42.495 27.99 42.495 27.99 43 29 C41.70703125 31.93359375 41.70703125 31.93359375 39.8125 35.4375 C39.20019531 36.59121094 38.58789062 37.74492187 37.95703125 38.93359375 C36.15245961 41.76111619 34.81437424 43.25895695 32 45 C20.94661768 36.57535903 13.2146934 24.87227017 6.17236328 13.06665039 C4.18774119 9.43834694 4.18774119 9.43834694 1 7 C-3.54545657 6.45148135 -3.54545657 6.45148135 -7.51171875 8.2109375 C-9.28624373 10.34409352 -10.82771323 12.57157309 -12.375 14.875 C-14.99241543 18.65085399 -17.57503699 21.90917972 -21 25 C-21.50273437 25.51820312 -22.00546875 26.03640625 -22.5234375 26.5703125 C-26.89359452 30.82596759 -31.65298271 33.60123134 -37.0625 36.3125 C-38.07147339 36.81873901 -38.07147339 36.81873901 -39.10083008 37.33520508 C-43.32782652 39.37919223 -47.45164459 40.83481662 -52 42 C-52.17015625 41.154375 -52.3403125 40.30875 -52.515625 39.4375 C-53.96001984 32.67650288 -55.68673027 27.05528605 -59 21 C-59 20.34 -59 19.68 -59 19 C-58.07272095 18.99383667 -58.07272095 18.99383667 -57.12670898 18.98754883 C-39.99691497 18.78882732 -24.52945848 17.82814933 -11 6 C-8.58172545 3.31663436 -8.58172545 3.31663436 -7 1 C-4.261631 -0.3691845 -3.04710166 -0.57894932 0 0 Z " fill="#243745" transform="translate(317,92)"/>
<path d="M0 0 C0.33 15.84 0.66 31.68 1 48 C-7.96753275 46.50541121 -12.7209422 42.11767423 -18 35 C-20.91634925 29.2940993 -21.13354018 21.89612012 -19.34765625 15.7578125 C-16.45895158 9.38530521 -11.62343418 3.93185399 -5.1875 1.0625 C-2 0 -2 0 0 0 Z " fill="#F8BFA8" transform="translate(154,182)"/>
<path d="M0 0 C9.65686695 3.21895565 13.87408142 5.82269736 19 14.3125 C21.01492862 21.74254928 20.99589476 28.90669615 17.45703125 35.859375 C12.42137426 43.25760565 7.7099005 45.82252487 -1 48 C-0.67 32.16 -0.34 16.32 0 0 Z " fill="#F8BFA8" transform="translate(358,182)"/>
<path d="M0 0 C0.33 0 0.66 0 1 0 C1 28.05 1 56.1 1 85 C-13.85 85 -28.7 85 -44 85 C-44 81.37 -44 77.74 -44 74 C-29.48 74 -14.96 74 0 74 C0 49.58 0 25.16 0 0 Z " fill="#57C3E5" transform="translate(399,412)"/>
<path d="M0 0 C9.9 0 19.8 0 30 0 C29 9 29 9 27 19 C19.08 19 11.16 19 3 19 C0 6.75 0 6.75 0 0 Z " fill="#E0465A" transform="translate(241,315)"/>
<path d="M0 0 C0.33 0 0.66 0 1 0 C1 5.94 1 11.88 1 18 C15.52 18 30.04 18 45 18 C45 21.63 45 25.26 45 29 C30.15 29 15.3 29 0 29 C0 19.43 0 9.86 0 0 Z " fill="#56C7EA" transform="translate(112,468)"/>
<path d="M0 0 C4.44525377 1.31711223 4.44525377 1.31711223 6.375 4 C7.02999645 8.61584506 6.83804961 13.28050334 6.8125 17.9375 C6.83248047 19.22591797 6.85246094 20.51433594 6.87304688 21.84179688 C6.87240234 23.07865234 6.87175781 24.31550781 6.87109375 25.58984375 C6.87294678 26.72284912 6.8747998 27.85585449 6.87670898 29.02319336 C6.26577932 32.6480427 5.29105384 33.82133909 2.375 36 C-1.125 36.5625 -1.125 36.5625 -4.625 36 C-9.254232 31.41994356 -9.16766731 27.78536953 -9.22070312 21.5625 C-9.20974609 20.386875 -9.19878906 19.21125 -9.1875 18 C-9.21134766 16.824375 -9.23519531 15.64875 -9.25976562 14.4375 C-9.24342439 4.85063984 -9.24342439 4.85063984 -6.31640625 1.6875 C-3.625 0 -3.625 0 0 0 Z " fill="#070605" transform="translate(302.625,176)"/>
<path d="M0 0 C3.14360362 0.57739658 4.81119223 1.33051819 7.01293945 3.65649414 C9.46624839 8.11171231 8.76876528 13.62157113 8.6875 18.5625 C8.70683594 19.738125 8.72617188 20.91375 8.74609375 22.125 C8.69171872 31.69500517 8.69171872 31.69500517 5.71484375 34.83984375 C2.45909511 36.95440215 0.87110758 37.29180783 -2.9375 36.5625 C-5.80971567 34.37638126 -6.82678453 33.19587604 -7.45507812 29.6015625 C-7.45958984 28.47492188 -7.46410156 27.34828125 -7.46875 26.1875 C-7.47390625 24.95515625 -7.4790625 23.7228125 -7.484375 22.453125 C-7.46890625 21.16921875 -7.4534375 19.8853125 -7.4375 18.5625 C-7.45296875 17.27859375 -7.4684375 15.9946875 -7.484375 14.671875 C-7.47921875 13.43953125 -7.4740625 12.2071875 -7.46875 10.9375 C-7.46423828 9.81085938 -7.45972656 8.68421875 -7.45507812 7.5234375 C-6.64760092 2.90405846 -4.57125531 0.87534676 0 0 Z " fill="#070605" transform="translate(209.9375,175.4375)"/>
<path d="M0 0 C1.22875977 1.45117188 1.22875977 1.45117188 2.62890625 3.46875 C6.04604366 8.17832609 9.90724087 12.31341105 13.9375 16.5 C19.0965516 21.88976085 24.12785327 27.34901713 29 33 C30.43477343 34.6482108 31.87168563 36.29456739 33.3125 37.9375 C33.96863281 38.68902344 34.62476563 39.44054687 35.30078125 40.21484375 C36.88954848 42.08624197 36.88954848 42.08624197 39 43 C38.67 45.31 38.34 47.62 38 50 C33.58734916 46.39783605 29.7610445 42.72758713 26.07421875 38.39453125 C23.48886319 35.40993058 20.81127918 32.51862635 18.125 29.625 C13.03167455 24.12882158 7.99945393 18.5818276 3 13 C1.31292761 11.12461524 -0.37456427 9.24960775 -2.0625 7.375 C-3.375 5.91666667 -4.6875 4.45833333 -6 3 C-4.60722783 0.21445565 -3.01148006 0 0 0 Z " fill="#CDD8E9" transform="translate(188,320)"/>
<path d="M0 0 C1.98 0.66 3.96 1.32 6 2 C4.00396217 4.33682478 2.00408331 6.67008578 0 9 C-0.50660156 9.59039062 -1.01320313 10.18078125 -1.53515625 10.7890625 C-5.73983422 15.64458743 -10.08442508 20.3628066 -14.44897461 25.07397461 C-19.87502582 30.9340421 -25.21926937 36.86575013 -30.51953125 42.83984375 C-31.33808594 43.75894531 -32.15664063 44.67804688 -33 45.625 C-33.7425 46.46289062 -34.485 47.30078125 -35.25 48.1640625 C-35.8275 48.76992188 -36.405 49.37578125 -37 50 C-37.33 50 -37.66 50 -38 50 C-38.875 46.8125 -38.875 46.8125 -39 43 C-36.5 40.5625 -36.5 40.5625 -34.7890625 39.34765625 C-32.85515059 37.89088855 -31.43964186 36.34596909 -29.875 34.5 C-26.71107064 30.79008283 -23.44137419 27.19791802 -20.125 23.625 C-8.92077974 12.63034617 -8.92077974 12.63034617 0 0 Z " fill="#CED9EA" transform="translate(324,320)"/>
<path d="M0 0 C0.33 0 0.66 0 1 0 C1.58930007 3.48487326 1.70965801 6.52462002 1 10 C-1.56987404 13.48931787 -4.76543483 16.13904758 -8 19 C-9.37996591 20.49746301 -10.73681679 22.01677511 -12.0625 23.5625 C-12.63097656 24.22378906 -13.19945312 24.88507813 -13.78515625 25.56640625 C-14.18605469 26.03949219 -14.58695312 26.51257813 -15 27 C-19.69981657 24.88611151 -22.71520473 21.60520932 -26.25 17.9375 C-26.8996875 17.30650391 -27.549375 16.67550781 -28.21875 16.02539062 C-31.67571504 12.42680622 -33.41787581 10.10787431 -33.421875 5.00390625 C-33.31518038 3.66613073 -33.18664494 2.3289811 -33 1 C-32.484375 1.680625 -31.96875 2.36125 -31.4375 3.0625 C-28.97666242 6.02812477 -26.35569168 8.67154282 -23.59375 11.3515625 C-22 13 -22 13 -20.4375 15.4375 C-19.03675842 17.28155513 -19.03675842 17.28155513 -16.26953125 17.453125 C-11.85063654 16.84070949 -10.00069195 14.56227872 -7.25 11.3125 C-6.76917969 10.78205078 -6.28835938 10.25160156 -5.79296875 9.70507812 C-3.10683862 6.65605855 -1.23712034 3.87678992 0 0 Z " fill="#DE455A" transform="translate(272,376)"/>
<path d="M0 0 C0.68964844 0.47050781 1.37929687 0.94101563 2.08984375 1.42578125 C7.95802081 5.31375042 13.21666657 8.10956281 20 10 C20.33 13.63 20.66 17.26 21 21 C13.1147393 20.24902279 8.43985088 15.99613833 3.48046875 10.171875 C1.23240347 6.87392171 0.62945254 3.91659358 0 0 Z " fill="#F7B09A" transform="translate(134,209)"/>
<path d="M0 0 C1 2 1 2 0.5390625 3.8828125 C-2.16810942 10.52348208 -6.02064273 15.0105104 -12 19 C-14.75414533 20.09710583 -17.0422111 20.56977616 -20 21 C-19.67 17.37 -19.34 13.74 -19 10 C-17.535625 9.649375 -16.07125 9.29875 -14.5625 8.9375 C-8.66662445 7.20490319 -4.55997531 4.02026808 0 0 Z " fill="#F9B29B" transform="translate(377,209)"/>
</svg>
