<?xml version="1.0" encoding="UTF-8"?>
<svg version="1.1" xmlns="http://www.w3.org/2000/svg" width="512" height="512">
<path d="M0 0 C1.1266658 -0.00619858 2.2533316 -0.01239716 3.41413879 -0.01878357 C5.78658185 -0.02585091 8.15907483 -0.0227621 10.53149414 -0.01000977 C14.11765344 0.00380273 17.70117174 -0.03020325 21.28710938 -0.06835938 C36.51962622 -0.12094033 50.14286219 0.57358573 62.89453125 9.81640625 C63.87292969 10.5021875 64.85132813 11.18796875 65.859375 11.89453125 C74.42058719 18.89393853 79.78980746 27.83941194 85.08203125 37.37890625 C85.76468613 38.58581798 86.44827681 39.7922009 87.1328125 40.99804688 C103.37084526 69.74731082 103.37084526 69.74731082 98.83203125 86.94140625 C97.12145192 91.87857597 94.31095796 95.6170043 90.95703125 99.56640625 C90.17328125 100.55640625 89.38953125 101.54640625 88.58203125 102.56640625 C88.04578125 103.22640625 87.50953125 103.88640625 86.95703125 104.56640625 C87.80265625 105.06140625 88.64828125 105.55640625 89.51953125 106.06640625 C96.33045901 110.65006379 100.87733912 116.63305657 102.95703125 124.56640625 C103.37148546 127.7257315 103.43475649 130.82036601 103.39453125 134.00390625 C103.38317139 135.26122559 103.38317139 135.26122559 103.37158203 136.54394531 C103.20931496 142.61533943 102.51515497 147.49607995 98.95703125 152.56640625 C98.54453125 153.19546875 98.13203125 153.82453125 97.70703125 154.47265625 C93.23499879 160.46924523 86.26923675 164.16021289 78.95703125 165.56640625 C76.62402192 165.60528974 74.28993324 165.61126975 71.95703125 165.56640625 C72.0034375 166.11425781 72.04984375 166.66210938 72.09765625 167.2265625 C72.81436276 182.96850916 66.11836979 198.84135883 55.82421875 210.5769043 C53.60500096 212.98598344 51.3069532 215.28372605 48.95703125 217.56640625 C48.32796875 218.18128906 47.69890625 218.79617187 47.05078125 219.4296875 C41.23656487 224.73653123 34.69275392 229.01926172 26.95703125 230.56640625 C27.28703125 237.16640625 27.61703125 243.76640625 27.95703125 250.56640625 C33.49478383 253.0308711 33.49478383 253.0308711 39.03295898 255.49438477 C41.44280279 256.56610601 43.85255038 257.63804084 46.26199341 258.71066284 C55.31668536 262.74153085 64.37690743 266.75828862 73.4609375 270.72265625 C74.97871721 271.38654863 76.49645872 272.05052832 78.01416016 272.71459961 C80.17380499 273.65952233 82.33409366 274.60273113 84.49725342 275.5395813 C108.7418493 286.04076313 126.45278232 299.66319251 142.47265625 320.64990234 C145.21716625 324.19338976 148.05977436 327.65751503 150.89453125 331.12890625 C151.96620356 332.44266125 153.03782114 333.75646089 154.109375 335.0703125 C154.84389893 335.96580811 154.84389893 335.96580811 155.59326172 336.87939453 C156.82817152 338.40700404 158.02214523 339.9674834 159.2109375 341.53125 C160.07525391 342.53865234 160.07525391 342.53865234 160.95703125 343.56640625 C161.61703125 343.56640625 162.27703125 343.56640625 162.95703125 343.56640625 C164.1848393 341.97119868 164.1848393 341.97119868 165.35546875 339.859375 C165.82863525 339.0547583 166.30180176 338.2501416 166.78930664 337.42114258 C167.55295532 336.1008606 167.55295532 336.1008606 168.33203125 334.75390625 C169.42004614 332.90647379 170.50993725 331.0601452 171.6015625 329.21484375 C172.15924316 328.27092773 172.71692383 327.32701172 173.29150391 326.35449219 C177.21972823 319.77866079 181.35950252 313.33520941 185.48681641 306.88330078 C186.96861694 304.54814849 188.4237849 302.19800847 189.875 299.84375 C201.44257441 281.24234724 201.44257441 281.24234724 210.95703125 278.56640625 C211.28703125 275.59640625 211.61703125 272.62640625 211.95703125 269.56640625 C211.17328125 269.46328125 210.38953125 269.36015625 209.58203125 269.25390625 C206.95703125 268.56640625 206.95703125 268.56640625 204.95703125 265.56640625 C204.69696903 262.4865694 204.69696903 262.4865694 204.68287659 258.61579895 C204.67763991 257.90425854 204.67240323 257.19271813 204.66700786 256.45961589 C204.65197508 254.06913083 204.65130199 251.67885921 204.65063477 249.28833008 C204.64301529 247.57674802 204.63458816 245.86516939 204.62541199 244.15359497 C204.60343469 239.49841869 204.59466334 234.8433081 204.58958554 230.18808579 C204.5859447 227.27919308 204.57970596 224.37031764 204.57258415 221.4614315 C204.548075 211.31143817 204.53503533 201.16149602 204.53149414 191.01147461 C204.52786138 181.55417787 204.49798838 172.09720618 204.45608956 162.64000875 C204.42137478 154.51928465 204.40594547 146.39866815 204.40524811 138.27787036 C204.40445547 133.42839024 204.39572338 128.57924081 204.36725044 123.72983742 C204.34105065 119.16525054 204.33887519 114.60126799 204.35490608 110.03664017 C204.35671927 108.36453749 204.35004157 106.69239994 204.33408737 105.02037239 C204.18729552 88.63227918 204.18729552 88.63227918 209.95703125 82.56640625 C215.10508565 77.34285466 219.95782228 75.27897163 227.26953125 75.19140625 C234.12848362 75.32301143 238.64550694 76.50676522 243.703125 81.1796875 C249.12785205 87.04671843 250.25903518 92.82867742 250.19512939 100.7197113 C250.1966884 101.52435871 250.19824741 102.32900611 250.19985366 103.15803677 C250.20280157 105.84560001 250.19164901 108.53291937 250.18066406 111.22045898 C250.18013966 113.15084836 250.18057588 115.0812382 250.18190002 117.0116272 C250.18323257 121.16458296 250.1788293 125.31747955 250.17029572 129.47042656 C250.1579082 136.03843232 250.16486554 142.6063283 250.17572021 149.17433167 C250.20418002 167.84973087 250.21659452 186.52503542 250.18701172 205.20043945 C250.17083061 215.51782005 250.17595145 225.83496103 250.204808 236.15231663 C250.21910668 241.61041465 250.22211071 247.06801395 250.19858551 252.52609062 C250.17646515 257.65877105 250.18195976 262.79067637 250.20857048 267.9233284 C250.21334216 269.80547541 250.20787273 271.68768084 250.19133949 273.56976128 C250.17022909 276.14282086 250.18610854 278.7131502 250.21099854 281.28611755 C250.18857303 282.39916886 250.18857303 282.39916886 250.16569448 283.53470606 C250.27375117 288.83593823 251.91064335 291.36341087 255.49375701 294.97225624 C260.22316943 300.12466899 261.28580505 307.59538665 261.17163086 314.34741211 C260.39759849 322.35103014 256.85036977 329.12073882 252.64453125 335.81640625 C252.12181641 336.66775146 251.59910156 337.51909668 251.06054688 338.39624023 C249.37458691 341.12945603 247.66936525 343.84964394 245.95703125 346.56640625 C245.09779053 347.93079834 245.09779053 347.93079834 244.22119141 349.32275391 C240.71605895 354.87426372 237.18220284 360.40706419 233.64013672 365.93505859 C231.08589961 369.92832341 228.55035548 373.93327307 226.01953125 377.94140625 C225.54 378.70074463 225.06046875 379.46008301 224.56640625 380.24243164 C220.51131859 386.67212621 216.48322282 393.11859085 212.45703125 399.56640625 C199.99495413 419.51905468 199.99495413 419.51905468 194.23681641 428.55078125 C193.05363962 430.41425084 191.88522021 432.28620683 190.71875 434.16015625 C184.64595116 443.68796491 178.60662928 449.99490413 167.64453125 453.25390625 C151.5872129 455.12103629 141.58842023 448.44721345 129.13769531 439.17211914 C126.10136692 436.93634531 123.02826515 434.7539796 119.95703125 432.56640625 C119.967024 433.82428452 119.967024 433.82428452 119.97721863 435.10757446 C120.03741053 443.02295998 120.08304667 450.93826827 120.11246777 458.85383034 C120.12810212 462.9229982 120.14929934 466.99197642 120.18334961 471.06103516 C120.21602308 474.99029776 120.23390104 478.91937832 120.24166298 482.84876633 C120.2471922 484.34544107 120.25798949 485.84210622 120.27422142 487.33870316 C120.29610268 489.44037402 120.29899383 491.54129937 120.29760742 493.64306641 C120.30760017 495.43509995 120.30760017 495.43509995 120.3177948 497.26333618 C119.84245184 501.6154696 118.42406748 504.99484836 115.421875 508.2109375 C111.56390963 511.16114631 109.51049824 512.68849252 104.6883831 512.70621395 C103.78713514 512.71190519 102.88588718 512.71759643 101.95732868 512.72346014 C100.96085571 512.72464001 99.96438274 512.72581989 98.93771362 512.72703552 C97.88400924 512.73212334 96.83030485 512.73721116 95.74467003 512.74245316 C92.19029571 512.75823278 88.6359418 512.76671723 85.08154297 512.77514648 C82.54253508 512.78468052 80.00352852 512.79457148 77.46452332 512.80479431 C69.82714516 512.83351729 62.18976415 512.8532697 54.55235165 512.87018666 C52.39524803 512.87498104 50.23814491 512.87996445 48.08104181 512.88499188 C34.68705322 512.91596547 21.29306032 512.94265252 7.89904594 512.95941067 C4.79565295 512.96336021 1.69226003 512.96736319 -1.41113281 512.97143555 C-2.18247255 512.97244391 -2.95381229 512.97345227 -3.74852596 512.97449119 C-16.23965503 512.99149268 -28.73058579 513.03259465 -41.22161807 513.08345854 C-54.04510015 513.13524661 -66.8684803 513.1643546 -79.69206607 513.17160755 C-86.89235836 513.17626867 -94.09232607 513.19100718 -101.2925148 513.23135185 C-108.06742535 513.26926721 -114.84168493 513.27664333 -121.6167202 513.26334572 C-124.10317258 513.26339975 -126.5896492 513.27372848 -129.07600975 513.29509735 C-132.47192708 513.32272253 -135.86581584 513.31329303 -139.26174927 513.29466248 C-140.24483791 513.3114574 -141.22792654 513.32825233 -142.24080575 513.3455562 C-148.28106541 513.26279453 -151.7777521 512.0488242 -156.47932994 508.22478348 C-161.38534885 503.02151658 -161.50159507 496.21815015 -161.4765625 489.4296875 C-161.48180435 488.5872197 -161.4870462 487.74475189 -161.4924469 486.87675476 C-161.49882837 485.10949805 -161.49758077 483.34219864 -161.48901367 481.57495117 C-161.48045756 478.87537497 -161.509391 476.17788589 -161.54101562 473.47851562 C-161.54262682 471.75390688 -161.54205167 470.02929441 -161.5390625 468.3046875 C-161.55029648 467.50251297 -161.56153046 466.70033844 -161.57310486 465.87385559 C-161.52472515 461.98215859 -161.2697454 459.9542736 -159.26196289 456.52026367 C-157.04296875 454.56640625 -157.04296875 454.56640625 -153.04296875 454.56640625 C-153.04296875 448.62640625 -153.04296875 442.68640625 -153.04296875 436.56640625 C-154.69296875 436.23640625 -156.34296875 435.90640625 -158.04296875 435.56640625 C-161.97966128 431.27216525 -161.4609029 426.28550299 -161.4152832 420.79418945 C-161.41893387 419.81465805 -161.42258453 418.83512665 -161.42634583 417.82591248 C-161.43444724 414.58949407 -161.42083934 411.35357718 -161.40625 408.1171875 C-161.40573114 405.86142477 -161.40624985 403.60566158 -161.40776062 401.34989929 C-161.4076709 396.6196722 -161.39724577 391.88961555 -161.37915039 387.15942383 C-161.35652848 381.11491093 -161.35590751 375.07064844 -161.36266804 369.02610493 C-161.36602139 364.36506451 -161.35935116 359.70408047 -161.3495388 355.04305077 C-161.34570516 352.8156584 -161.34453093 350.58825974 -161.34612465 348.36086464 C-161.34649833 345.23565521 -161.33378865 342.11075792 -161.31762695 338.9855957 C-161.32010437 338.07562836 -161.32258179 337.16566101 -161.32513428 336.2281189 C-161.20090817 321.06520583 -156.84494799 308.39206987 -146.046875 297.56494141 C-140.80494862 292.74020504 -135.71098103 289.47258489 -129.23046875 286.56640625 C-128.26109375 286.11692627 -127.29171875 285.66744629 -126.29296875 285.2043457 C-122.88622667 283.63585106 -119.4666673 282.09738068 -116.04296875 280.56640625 C-115.05251556 280.12237457 -115.05251556 280.12237457 -114.04205322 279.66937256 C-105.80855164 275.97864231 -97.56192267 272.31801825 -89.30859375 268.671875 C-80.28226443 264.68327438 -71.28356133 260.63482157 -62.29296875 256.56640625 C-61.61322998 256.25891449 -60.93349121 255.95142273 -60.2331543 255.63461304 C-56.50240048 253.94673088 -52.77255516 252.25687034 -49.04296875 250.56640625 C-48.71296875 243.96640625 -48.38296875 237.36640625 -48.04296875 230.56640625 C-50.02296875 229.90640625 -52.00296875 229.24640625 -54.04296875 228.56640625 C-71.57696585 219.20283679 -83.55403165 204.54889958 -89.97265625 185.859375 C-91.98661944 179.15575468 -92.68998758 172.54082722 -93.04296875 165.56640625 C-94.01234375 165.62828125 -94.98171875 165.69015625 -95.98046875 165.75390625 C-104.81650403 165.64744799 -110.57284286 161.9911965 -116.87109375 155.9765625 C-123.54853649 148.56652262 -124.36324007 140.60494552 -124.25390625 130.91796875 C-123.67281739 121.68511237 -120.32175662 114.22630175 -113.34375 108.06640625 C-109.51267578 105.17372999 -105.50600206 103.29697019 -101.04296875 101.56640625 C-101.82220703 100.56673828 -101.82220703 100.56673828 -102.6171875 99.546875 C-111.38457446 87.95966303 -117.54413501 75.43733447 -116.04296875 60.56640625 C-113.38412132 44.07324326 -106.44039726 32.74489892 -92.89770508 22.9465332 C-89.97312518 20.8903931 -87.01884398 18.8831646 -84.04345703 16.90136719 C-82.30021916 15.73807396 -80.57428457 14.54893349 -78.8515625 13.35546875 C-68.69302282 6.50604086 -59.31552583 4.32059592 -47.04296875 5.56640625 C-42.59097587 6.61560203 -38.33291684 7.98856714 -34.04296875 9.56640625 C-32.55796875 10.06140625 -32.55796875 10.06140625 -31.04296875 10.56640625 C-28.83447869 9.32441287 -26.90793984 7.8244758 -24.8828125 6.3046875 C-16.76554999 1.33607427 -9.43030366 -0.04409885 0 0 Z " fill="#020101" transform="translate(206.04296875,-0.56640625)"/>
<path d="M0 0 C2.32517668 0.99912945 3.74076713 2.23152859 5.55981445 3.9909668 C6.2372168 4.63743164 6.91461914 5.28389648 7.61254883 5.94995117 C8.31057617 6.62993164 9.00860352 7.30991211 9.7277832 8.01049805 C21.37801807 20.21836778 21.37801807 20.21836778 36.8527832 25.26049805 C41.28937845 25.1387622 44.413706 24.01493968 48.22387695 21.7956543 C49.9152832 20.82299805 49.9152832 20.82299805 52.9152832 19.82299805 C52.91674976 20.44291248 52.91821632 21.06282692 52.91972733 21.70152664 C52.95677305 36.78285976 53.01575774 51.86393358 53.09918594 66.94507217 C53.13900173 74.23820619 53.17138122 81.5312319 53.1862793 88.82446289 C53.19928278 95.18098479 53.22621367 101.53726865 53.26989627 107.89365649 C53.29254094 111.2596317 53.30819212 114.62531301 53.30716705 117.99137115 C53.30952286 121.74843854 53.33649283 125.50456808 53.36938477 129.26147461 C53.3643544 130.37853287 53.35932404 131.49559113 53.35414124 132.64649963 C53.36805405 133.67011093 53.38196686 134.69372223 53.39630127 135.74835205 C53.39998844 136.63696049 53.40367561 137.52556892 53.40747452 138.44110489 C54.08854371 141.63568208 55.34613788 142.86168178 57.9152832 144.82299805 C62.9722122 144.68018297 62.9722122 144.68018297 66.9152832 141.82299805 C67.22958899 139.5658729 67.22958899 139.5658729 67.1937561 136.91293335 C67.20491959 135.87524307 67.21608307 134.8375528 67.22758484 133.76841736 C67.22974503 132.62546707 67.23190521 131.48251678 67.23413086 130.30493164 C67.24417648 129.10495041 67.25422211 127.90496918 67.26457214 126.66862488 C67.2902157 123.37335604 67.30703929 120.07826039 67.32000017 116.7829318 C67.33560426 113.34088423 67.36240308 109.8989246 67.38803101 106.4569397 C67.43486719 99.93695972 67.47158778 93.41696329 67.50470388 86.89690077 C67.54289117 79.47493413 67.59231015 72.05305571 67.64268804 64.63116336 C67.74607981 49.36183863 67.83531654 34.0924645 67.9152832 18.82299805 C68.72787598 19.24814697 69.54046875 19.6732959 70.37768555 20.11132812 C71.44970215 20.66199951 72.52171875 21.2126709 73.6262207 21.7800293 C74.68631348 22.32892822 75.74640625 22.87782715 76.83862305 23.44335938 C82.02316799 25.76821761 85.78689981 25.71914954 91.1652832 24.1784668 C98.83031863 21.01411829 104.45786837 14.98989826 110.30200195 9.2956543 C110.90189941 8.72218262 111.50179687 8.14871094 112.11987305 7.55786133 C113.3312081 6.3873763 114.51892553 5.19201594 115.68334961 3.97485352 C116.26133301 3.40782715 116.83931641 2.84080078 117.43481445 2.2565918 C117.93730713 1.7402417 118.4397998 1.2238916 118.95751953 0.69189453 C122.18069535 -0.73861834 124.72731979 0.70406913 127.9152832 1.82299805 C127.92075165 2.84324066 127.92075165 2.84324066 127.92633057 3.88409424 C127.96810879 10.95701386 128.03742191 18.02928173 128.12280273 25.10180664 C128.15104573 27.74203984 128.17224358 30.38235812 128.1862793 33.02270508 C128.20766177 36.81595525 128.25429112 40.60817883 128.3059082 44.40112305 C128.30775116 46.17474213 128.30775116 46.17474213 128.30963135 47.98419189 C128.32934998 49.08503113 128.3490686 50.18587036 128.36938477 51.32006836 C128.37826721 52.288255 128.38714966 53.25644165 128.39630127 54.25396729 C129.06475027 57.56288022 130.30733834 58.74165388 132.9152832 60.82299805 C133.9052832 61.15299805 134.8952832 61.48299805 135.9152832 61.82299805 C136.07765066 64.40885009 136.19623807 66.98451759 136.2902832 69.57299805 C136.34055664 70.30260742 136.39083008 71.0322168 136.44262695 71.78393555 C136.5012207 73.93237305 136.5012207 73.93237305 135.9152832 77.82299805 C132.9543457 80.21362305 132.9543457 80.21362305 129.9152832 81.82299805 C128.62196174 84.40964097 128.77588083 86.29096416 128.75706482 89.18862915 C128.747276 90.32728928 128.73748718 91.4659494 128.72740173 92.63911438 C128.72164627 93.89427353 128.71589081 95.14943268 128.70996094 96.44262695 C128.70006134 97.75965103 128.69016174 99.07667511 128.67996216 100.43360901 C128.6528824 104.05112427 128.6318895 107.66865262 128.61196017 111.2862134 C128.59011953 115.06456174 128.56272146 118.8428696 128.53590393 122.6211853 C128.48595101 129.77866356 128.44102184 136.93616425 128.39788157 144.09368646 C128.33930867 153.7637432 128.27300786 163.43374672 128.20713139 173.10375595 C128.10351604 188.34346748 128.01025395 203.58322452 127.9152832 218.82299805 C108.1152832 218.82299805 88.3152832 218.82299805 67.9152832 218.82299805 C67.6027832 194.01049805 67.6027832 194.01049805 67.52734375 186.18310547 C67.49506434 184.13987379 67.46169212 182.09665896 67.42700195 180.0534668 C67.42075806 178.98922485 67.41451416 177.92498291 67.40808105 176.82849121 C67.37817078 175.30632996 67.37817078 175.30632996 67.34765625 173.75341797 C67.33655319 172.87183517 67.32545013 171.99025238 67.31401062 171.08195496 C66.83187475 168.3504544 66.13030112 167.45319329 63.9152832 165.82299805 C60.53491785 165.31953938 58.6902462 165.34325905 55.76196289 167.15600586 C52.79991291 171.43382633 53.31143586 175.84771658 53.3059082 180.93237305 C53.29027832 181.89159668 53.27464844 182.85082031 53.25854492 183.83911133 C53.20600629 187.41682287 53.18768874 190.99497091 53.1652832 194.57299805 C53.0415332 206.57674805 53.0415332 206.57674805 52.9152832 218.82299805 C33.1152832 218.82299805 13.3152832 218.82299805 -7.0847168 218.82299805 C-7.0847168 147.21299805 -7.0847168 75.60299805 -7.0847168 1.82299805 C-2.0847168 -0.17700195 -2.0847168 -0.17700195 0 0 Z " fill="#D2CDD3" transform="translate(135.084716796875,278.177001953125)"/>
<path d="M0 0 C13.71530158 4.39040093 28.62915711 10.79247747 39 21 C39.75796875 21.70640625 40.5159375 22.4128125 41.296875 23.140625 C45.8348405 27.49585364 49.8503512 32.12656864 53.71484375 37.08203125 C56.53164134 40.67886509 59.42217625 44.21219325 62.3125 47.75 C66.0782777 52.36856102 69.81192483 57.00782267 73.47607422 61.70751953 C74.83501347 63.44876421 76.20337731 65.18218056 77.57421875 66.9140625 C79.06101443 68.8054773 80.52726896 70.71354961 81.95703125 72.6484375 C84.59514281 76.0428474 86.59902259 78.48546982 91 79.125 C93.6013798 78.79734529 94.73155731 78.25438141 96.640625 76.4453125 C98.19272073 74.32813338 99.57369407 72.16087959 100.89550781 69.89355469 C102.21359133 67.63381645 103.57131419 65.39980853 104.9296875 63.1640625 C107.01491655 59.72106934 109.08175037 56.26813342 111.1328125 52.8046875 C113.69066888 48.49425789 116.32685965 44.23981601 119 40 C123.30952233 41.55077508 127.11089522 43.74228118 131 46.125 C131.6492041 46.52098389 132.2984082 46.91696777 132.96728516 47.32495117 C134.31116003 48.14482915 135.65441853 48.96571825 136.99707031 49.78759766 C138.9308804 50.9581609 140.87942132 52.09836148 142.8359375 53.23046875 C144.01563391 53.92446402 145.19532181 54.61847375 146.375 55.3125 C147.43460938 55.92738281 148.49421875 56.54226563 149.5859375 57.17578125 C152 59 152 59 152.80981445 60.83056641 C153.07224637 63.82410942 152.10334358 65.04419845 150.45703125 67.53515625 C149.59766968 68.85749268 149.59766968 68.85749268 148.72094727 70.20654297 C148.09115967 71.14900879 147.46137207 72.09147461 146.8125 73.0625 C145.50480065 75.06614023 144.19751553 77.07005087 142.890625 79.07421875 C141.9015918 80.57734619 141.9015918 80.57734619 140.89257812 82.11083984 C138.23431563 86.16887369 135.64426965 90.2680426 133.0625 94.375 C132.34586182 95.50989868 132.34586182 95.50989868 131.61474609 96.66772461 C128.18333883 102.10427216 124.77841984 107.55710514 121.37817383 113.01318359 C118.8502587 117.06662506 116.31558691 121.11579868 113.77783203 125.16308594 C112.63094316 126.99319424 111.4859443 128.82448899 110.34326172 130.65722656 C108.86279106 133.0272722 107.37090912 135.3896782 105.875 137.75 C105.45017334 138.43465332 105.02534668 139.11930664 104.58764648 139.82470703 C101.02494297 145.39931533 97.50368444 148.88663563 90.8984375 150.51953125 C81.03650564 151.66449238 74.7202704 145.52905604 67.37792969 139.83203125 C64.02069362 137.2455118 60.59953579 134.74939391 57.1796875 132.24658203 C54.047797 129.95213702 50.93061453 127.63817685 47.81494141 125.32177734 C44.08165107 122.46525707 44.08165107 122.46525707 39.4375 122.25 C35.95407388 122.6858444 35.95407388 122.6858444 34 125 C33.78773614 127.67356635 33.69905119 130.24624044 33.69702148 132.92211914 C33.68436249 134.14909767 33.68436249 134.14909767 33.67144775 135.40086365 C33.6455975 138.11230018 33.63351404 140.82362781 33.62109375 143.53515625 C33.60492854 145.4132118 33.58774959 147.29125888 33.56959534 149.16929626 C33.5238358 154.11890763 33.48906579 159.0685301 33.45739746 164.01824951 C33.40558435 171.9454963 33.34055716 179.87261889 33.26918221 187.79971123 C33.24626623 190.57675448 33.23004893 193.35378177 33.21446228 196.13087463 C33.20106113 197.82301002 33.18744681 199.51514373 33.17358398 201.20727539 C33.16966393 202.3753624 33.16966393 202.3753624 33.16566467 203.56704712 C33.11363476 208.88636524 33.11363476 208.88636524 32 210 C29.6243148 210.0883967 27.27791326 210.11530305 24.90234375 210.09765625 C23.83905602 210.09553383 23.83905602 210.09553383 22.75428772 210.09336853 C20.48198288 210.08775443 18.20977525 210.07519963 15.9375 210.0625 C14.40039204 210.05748681 12.86328255 210.05292359 11.32617188 210.04882812 C7.55074358 210.03778042 3.77538829 210.02050641 0 210 C-0.00331015 209.29578226 -0.00662029 208.59156452 -0.01003075 207.86600685 C-0.09116885 190.74922435 -0.18323083 173.63253577 -0.28752708 156.51587868 C-0.33769867 148.23846926 -0.38414095 139.96106998 -0.421875 131.68359375 C-0.45476445 124.47090541 -0.49457858 117.25829466 -0.54279006 110.04569185 C-0.56808552 106.22489834 -0.58985766 102.4041565 -0.60334396 98.58330154 C-0.61613687 94.98984736 -0.63816081 91.39657011 -0.66738319 87.80321312 C-0.68083129 85.84985628 -0.68438583 83.89643926 -0.68769836 81.94303894 C-0.69886185 80.78755051 -0.71002533 79.63206207 -0.7215271 78.44155884 C-0.72705786 77.43311731 -0.73258862 76.42467579 -0.73828697 75.38567543 C-0.76856429 72.81424795 -0.76856429 72.81424795 -3 71 C-4.98821313 70.60235737 -6.98944339 70.26224651 -9 70 C-8.01 69.505 -8.01 69.505 -7 69 C-7.06960938 67.89140625 -7.13921875 66.7828125 -7.2109375 65.640625 C-7.26722523 64.177144 -7.32182432 62.71359738 -7.375 61.25 C-7.42527344 60.52039063 -7.47554688 59.79078125 -7.52734375 59.0390625 C-7.5859375 56.890625 -7.5859375 56.890625 -7 53 C-6.01451172 52.48888672 -5.02902344 51.97777344 -4.01367188 51.45117188 C-0.86060586 49.38372672 -0.86060586 49.38372672 -0.42715454 46.7555542 C-0.20782414 43.78768639 -0.16956669 40.86659018 -0.1953125 37.890625 C-0.18160614 36.80867859 -0.16789978 35.72673218 -0.15377808 34.61199951 C-0.11639879 31.15757975 -0.12019862 27.70459373 -0.125 24.25 C-0.10687894 21.90752953 -0.08607813 19.56507815 -0.0625 17.22265625 C-0.01057482 11.48163 0.00754999 5.74123943 0 0 Z " fill="#DE741B" transform="translate(278,287)"/>
<path d="M0 0 C4.41250631 3.47367518 7.9788674 7.05269337 11.5 11.4375 C21.65426909 24.04514954 33.78140333 33.82283199 50.36206055 35.77905273 C56.5583837 36.29804139 62.78610283 36.38977424 69 36.5625 C70.45704157 36.60577365 71.91407299 36.6493905 73.37109375 36.69335938 C76.91395412 36.79953302 80.45692963 36.90105111 84 37 C84.12797382 44.55800049 84.21483829 52.11571626 84.2746582 59.67456055 C84.29962571 62.23977092 84.33361183 64.80491146 84.37719727 67.36987305 C84.82935776 94.6856866 84.82935776 94.6856866 79 107 C78.60039062 107.8755957 78.20078125 108.75119141 77.7890625 109.65332031 C71.68918278 122.32891623 59.8195957 131.77141151 47 137 C46.38398926 137.26329102 45.76797852 137.52658203 45.13330078 137.79785156 C37.0423969 140.76786331 28.741518 140.45332685 20.2421875 140.39111328 C17.63748445 140.37507686 15.03434249 140.39099715 12.4296875 140.41015625 C-5.45084392 140.43479463 -20.6424425 136.88517381 -34.0078125 124.15625 C-46.40861633 110.7342035 -50.35851048 96.06925478 -50.1953125 78.2109375 C-50.1924826 77.02650055 -50.18965271 75.8420636 -50.18673706 74.62173462 C-50.17562395 70.87271631 -50.1505358 67.12394499 -50.125 63.375 C-50.11495874 60.81901389 -50.1058349 58.263024 -50.09765625 55.70703125 C-50.07571371 49.4712712 -50.04232539 43.23565325 -50 37 C-49.12827148 36.94666504 -48.25654297 36.89333008 -47.35839844 36.83837891 C-46.2037207 36.76022949 -45.04904297 36.68208008 -43.859375 36.6015625 C-42.71952148 36.52760254 -41.57966797 36.45364258 -40.40527344 36.37744141 C-30.72283938 35.30423786 -21.99786988 31.05695629 -15.75341797 23.48925781 C-9.99600803 16.03233202 -4.93878123 8.01325431 0 0 Z " fill="#FDCBBC" transform="translate(179,80)"/>
<path d="M0 0 C0.85874725 -0.01283524 1.71749451 -0.02567047 2.6022644 -0.03889465 C3.53031891 -0.04628159 4.45837341 -0.05366852 5.41455078 -0.0612793 C6.3782962 -0.06935104 7.34204163 -0.07742279 8.33499146 -0.08573914 C10.38102422 -0.09957972 12.42708006 -0.11030199 14.47314453 -0.11816406 C16.54645649 -0.1296215 18.61974042 -0.14997285 20.69287109 -0.1796875 C48.44919621 -0.57741262 48.44919621 -0.57741262 59.60986328 7.80200195 C60.43228516 8.39239258 61.25470703 8.9827832 62.10205078 9.59106445 C69.0983541 16.46280451 73.71204358 25.35463612 78.42236328 33.86450195 C79.53037953 35.84760653 80.6384511 37.83068021 81.74658203 39.8137207 C82.25946777 40.74361816 82.77235352 41.67351563 83.30078125 42.6315918 C84.1683676 44.17150588 85.06163458 45.6978449 86.00097656 47.19506836 C89.85180597 53.34234254 89.5237674 59.15160313 88.73486328 66.17700195 C86.96860214 72.70398023 80.9560604 77.28655563 75.73486328 81.17700195 C75.10741211 81.69238525 74.47996094 82.20776855 73.83349609 82.73876953 C66.31295851 88.18253629 59.06911119 88.00418144 50.14892578 87.79443359 C47.73910013 87.73959836 45.33274908 87.73290651 42.92236328 87.73364258 C28.79667796 87.63756126 16.73684788 85.14017033 6.17236328 74.98950195 C3.44234093 72.08725856 0.93644964 69.01686683 -1.57763672 65.92700195 C-2.71652344 64.53094727 -2.71652344 64.53094727 -3.87841797 63.10668945 C-5.51266335 61.10065994 -7.13450194 59.08447684 -8.74560547 57.05981445 C-13.80968387 50.7062052 -13.80968387 50.7062052 -21.07763672 47.80200195 C-24.91853727 47.64346572 -27.16561002 48.97084473 -30.26513672 51.17700195 C-31.90920746 53.37356629 -33.35294906 55.49300082 -34.77685547 57.8215332 C-35.62586321 59.15199544 -36.47549282 60.48206101 -37.32568359 61.81176758 C-38.63928322 63.89324256 -39.94581296 65.97846881 -41.24047852 68.07177734 C-46.85087626 77.09868804 -51.65099638 84.64435624 -62.4050293 87.80615234 C-67.20651169 88.70610391 -71.58872102 88.37026092 -76.26513672 87.17700195 C-80.35860334 83.77919469 -82.67919036 79.77838692 -85.26513672 75.17700195 C-86.552452 73.25741001 -87.84385978 71.34055362 -89.14013672 69.42700195 C-94.7492044 60.27810502 -96.3791028 53.07884975 -95.26513672 42.17700195 C-92.50701211 31.72106064 -85.02565404 24.42191494 -76.39013672 18.48950195 C-75.62572266 17.94745117 -74.86130859 17.40540039 -74.07373047 16.84692383 C-63.22741127 9.21398782 -55.99741507 4.74592195 -42.26513672 6.17700195 C-39.03247995 7.28027145 -36.01875663 8.61743062 -32.92138672 10.05200195 C-28.3639822 11.98219681 -25.01429326 11.83779442 -20.45263672 10.11450195 C-16.67725201 7.81966027 -13.10548442 5.30038876 -9.53466797 2.70043945 C-6.32563644 0.54635633 -3.77415255 0.04930483 0 0 Z " fill="#355E7D" transform="translate(201.26513671875,14.822998046875)"/>
<path d="M0 0 C0 68.97 0 137.94 0 209 C-17.16 209 -34.32 209 -52 209 C-52.25 190.25 -52.25 190.25 -52.29785156 184.34863281 C-52.3272241 182.80009999 -52.3580504 181.25159377 -52.390625 179.703125 C-52.39231689 178.50308838 -52.39231689 178.50308838 -52.39404297 177.27880859 C-52.48693272 173.66517065 -52.65840282 171.45804666 -54.85058594 168.51855469 C-57.01434253 166.8345889 -57.01434253 166.8345889 -60 166 C-60.16216064 163.08110852 -60.28091202 160.17120775 -60.375 157.25 C-60.42527344 156.425 -60.47554687 155.6 -60.52734375 154.75 C-60.58516059 152.36023744 -60.56810281 150.32436497 -60 148 C-57.0390625 145.546875 -57.0390625 145.546875 -54 144 C-52.84897596 141.69795192 -52.87293652 140.40083693 -52.86869812 137.84057617 C-52.86468994 136.96879227 -52.86068176 136.09700836 -52.85655212 135.19880676 C-52.85708084 134.23988022 -52.85760956 133.28095367 -52.8581543 132.29296875 C-52.85467987 131.28461472 -52.85120544 130.27626068 -52.84762573 129.23735046 C-52.84025934 127.04111282 -52.83491868 124.84486768 -52.83133507 122.64862061 C-52.82417771 119.16754101 -52.80851438 115.68660305 -52.78999329 112.20556641 C-52.7375047 102.30552164 -52.68958802 92.40555185 -52.67407227 82.50537109 C-52.66396479 76.4534188 -52.63456385 70.40181891 -52.59275246 64.3500061 C-52.58047102 62.04727856 -52.57531595 59.74450115 -52.57755089 57.44174194 C-52.57991582 54.20817808 -52.55764379 50.97561558 -52.5300293 47.7421875 C-52.53663071 46.7994548 -52.54323212 45.85672211 -52.55003357 44.88542175 C-52.43212049 36.42715874 -50.11265142 28.54699516 -44.3125 22.1875 C-43.71050781 21.50042969 -43.10851562 20.81335938 -42.48828125 20.10546875 C-35.33070787 14.04906051 -26.07478456 10.61059586 -17.625 6.75 C-16.45066406 6.20859375 -15.27632812 5.6671875 -14.06640625 5.109375 C-2.94074219 0 -2.94074219 0 0 0 Z " fill="#E0751B" transform="translate(113,288)"/>
<path d="M0 0 C2.15743637 1.06346607 2.15743637 1.06346607 4 3 C4.39287542 5.61334165 4.52361576 7.80806539 4.48101807 10.42204285 C4.48443577 11.18414686 4.48785347 11.94625087 4.49137473 12.73144895 C4.49797946 15.29294325 4.47593576 17.85339669 4.45410156 20.41479492 C4.45297364 22.24772619 4.45360586 24.08065926 4.45587158 25.91358948 C4.45702182 30.89688145 4.43346248 35.87979028 4.40557575 40.862993 C4.38061359 46.06801026 4.3782242 51.27303576 4.37347412 56.47810364 C4.36102908 66.33789397 4.32818678 76.19750744 4.28807616 86.0572198 C4.243406 97.280751 4.22138338 108.50429054 4.20129442 119.72788846 C4.1594555 142.81869046 4.08907374 165.90933533 4 189 C2.9267749 188.83701416 1.8535498 188.67402832 0.74780273 188.50610352 C-3.19728459 187.97335868 -6.9589006 187.90229116 -10.9375 187.9375 C-11.96327148 187.94426758 -11.96327148 187.94426758 -13.00976562 187.95117188 C-14.67321604 187.9628044 -16.3366205 187.98073306 -18 188 C-18 185.03 -18 182.06 -18 179 C-17.030625 178.54625 -16.06125 178.0925 -15.0625 177.625 C-11.92920418 176.34213779 -11.92920418 176.34213779 -11 174 C-10.90202751 171.77924583 -10.87094007 169.55546315 -10.86869812 167.33255005 C-10.86552455 166.29291432 -10.86552455 166.29291432 -10.86228687 165.23227584 C-10.85627201 162.89848724 -10.85728807 160.56475247 -10.8581543 158.23095703 C-10.8551238 156.56229561 -10.85160265 154.89363502 -10.84762573 153.22497559 C-10.83972821 149.62581413 -10.83458863 146.02666263 -10.83133507 142.42749405 C-10.82543414 136.73856814 -10.80890283 131.04970509 -10.78999329 125.36080933 C-10.78365569 123.4147282 -10.77733007 121.46864704 -10.77101612 119.52256584 C-10.76785031 118.54788156 -10.7646845 117.57319728 -10.76142275 116.56897712 C-10.71931069 103.32057271 -10.68636296 90.07219735 -10.67407227 76.82373047 C-10.66570156 67.89261456 -10.64324762 58.96165392 -10.6047166 50.03061569 C-10.58492219 45.30204659 -10.57256252 40.57370978 -10.57755089 35.84509659 C-10.58218514 31.3979177 -10.56845931 26.95117939 -10.54053879 22.50408936 C-10.5336063 20.87064942 -10.53352249 19.23716413 -10.54073906 17.60372543 C-10.54958917 15.37576129 -10.53399872 13.14926211 -10.51225281 10.92141724 C-10.50986445 9.67406359 -10.5074761 8.42670994 -10.50501537 7.14155769 C-9.51083099 0.95701805 -5.95545313 -0.86850358 0 0 Z " fill="#FBCB07" transform="translate(436,90)"/>
<path d="M0 0 C0 2.97 0 5.94 0 9 C-0.64437012 9.28609131 -1.28874023 9.57218262 -1.95263672 9.86694336 C-24.98949899 19.90241872 -24.98949899 19.90241872 -39 40 C-41.55666421 47.7719389 -41.30796597 55.5957496 -41.31884766 63.6875 C-41.32815635 65.27487188 -41.33832642 66.8622389 -41.34928894 68.44960022 C-41.37649692 72.7403017 -41.39171095 77.03097051 -41.40471697 81.32173538 C-41.42038792 85.8127541 -41.44716545 90.30370651 -41.4727478 94.79467773 C-41.51946555 103.29067685 -41.55624349 111.78668853 -41.58942068 120.28275013 C-41.62769164 129.95872974 -41.67708873 139.63464264 -41.72740483 149.31056595 C-41.83062047 169.20699465 -41.9199145 189.10346563 -42 209 C-45.3 209 -48.6 209 -52 209 C-52.0093457 207.86981445 -52.01869141 206.73962891 -52.02832031 205.57519531 C-52.06822392 201.37785579 -52.13398326 197.18124896 -52.20751953 192.984375 C-52.2357271 191.16871561 -52.25694274 189.35293348 -52.27099609 187.53710938 C-52.29242909 184.92514211 -52.33907885 182.31465026 -52.390625 179.703125 C-52.39185364 178.89256653 -52.39308228 178.08200806 -52.39434814 177.24688721 C-52.48777263 173.64379379 -52.66549449 171.44853746 -54.85058594 168.51855469 C-57.01434253 166.8345889 -57.01434253 166.8345889 -60 166 C-60.16216064 163.08110852 -60.28091202 160.17120775 -60.375 157.25 C-60.42527344 156.425 -60.47554687 155.6 -60.52734375 154.75 C-60.58516059 152.36023744 -60.56810281 150.32436497 -60 148 C-57.0390625 145.546875 -57.0390625 145.546875 -54 144 C-52.84897596 141.69795192 -52.87293652 140.40083693 -52.86869812 137.84057617 C-52.86468994 136.96879227 -52.86068176 136.09700836 -52.85655212 135.19880676 C-52.85708084 134.23988022 -52.85760956 133.28095367 -52.8581543 132.29296875 C-52.85467987 131.28461472 -52.85120544 130.27626068 -52.84762573 129.23735046 C-52.84025934 127.04111282 -52.83491868 124.84486768 -52.83133507 122.64862061 C-52.82417771 119.16754101 -52.80851438 115.68660305 -52.78999329 112.20556641 C-52.7375047 102.30552164 -52.68958802 92.40555185 -52.67407227 82.50537109 C-52.66396479 76.4534188 -52.63456385 70.40181891 -52.59275246 64.3500061 C-52.58047102 62.04727856 -52.57531595 59.74450115 -52.57755089 57.44174194 C-52.57991582 54.20817808 -52.55764379 50.97561558 -52.5300293 47.7421875 C-52.53663071 46.7994548 -52.54323212 45.85672211 -52.55003357 44.88542175 C-52.43212049 36.42715874 -50.11265142 28.54699516 -44.3125 22.1875 C-43.71050781 21.50042969 -43.10851562 20.81335938 -42.48828125 20.10546875 C-35.33070787 14.04906051 -26.07478456 10.61059586 -17.625 6.75 C-16.45066406 6.20859375 -15.27632812 5.6671875 -14.06640625 5.109375 C-2.94074219 0 -2.94074219 0 0 0 Z " fill="#D56617" transform="translate(113,288)"/>
<path d="M0 0 C11.98891654 6.60008395 11.98891654 6.60008395 14.89453125 13.04296875 C16.76821161 22.39335437 11.52315241 29.67999892 6.58203125 37.16796875 C5.69206641 38.46368582 4.79846595 39.75695856 3.89453125 41.04296875 C-7.56843571 34.59030523 -18.84591283 27.84299102 -30.10546875 21.04296875 C-28.77299881 16.4647387 -26.94068725 12.87689011 -24.29296875 8.91796875 C-23.62652344 7.90476562 -22.96007812 6.8915625 -22.2734375 5.84765625 C-16.37411836 -1.78425572 -9.04092182 -4.3469895 0 0 Z " fill="#FBCABB" transform="translate(436.10546875,293.95703125)"/>
<path d="M0 0 C1.51682679 15.62331598 1.51682679 15.62331598 -1.83984375 20.8828125 C-4.43745517 23.17265005 -7.12503411 25.07190203 -10 27 C-11.9670801 28.69825443 -13.92559763 30.40648243 -15.875 32.125 C-20.33817893 35.98961849 -20.33817893 35.98961849 -22.9921875 36.03125 C-26.40662061 34.27753338 -28.95048093 31.62414163 -31.69848633 28.98266602 C-33.87753961 26.90625062 -35.96718563 25.02131137 -38.49609375 23.37890625 C-41.04921853 21.69957819 -42.35525041 20.60340064 -44 18 C-44.40503809 15.07365643 -44.31218704 12.20086287 -44.20703125 9.25390625 C-44.19208618 8.46085083 -44.17714111 7.66779541 -44.16174316 6.85070801 C-44.12283408 4.90011494 -44.0634249 2.94994987 -44 1 C-38.53737477 0.856758 -33.07472827 0.71436614 -27.61206055 0.57275391 C-25.75463262 0.52448378 -23.89721065 0.47598343 -22.03979492 0.42724609 C-19.36638916 0.35713805 -16.69296286 0.28786439 -14.01953125 0.21875 C-13.19226028 0.19687622 -12.36498932 0.17500244 -11.51264954 0.15246582 C-7.6738819 0.05398825 -3.84045369 -0.02711706 0 0 Z " fill="#F8A48C" transform="translate(218,234)"/>
<path d="M0 0 C3.83191503 0.52854 6.25120051 1.66641332 9.625 3.5 C17.4089379 5.75324518 23.03195975 4.5023829 30.23046875 1.40625 C33.55491909 0.14805672 36.12257136 -0.06038858 39.625 0.5 C42.0625 2.125 42.0625 2.125 43.625 4.5 C44.1875 7.4375 44.1875 7.4375 43.625 10.5 C38.46993371 17.01964266 31.59451243 19.38598213 23.625 20.5 C13.88648645 21.40246253 4.00807982 20.07681185 -4.0625 14.125 C-6.75687104 11.06652477 -7.54479607 9.57510578 -7.375 5.5 C-5.36705188 1.65143276 -4.33204924 0.64178507 0 0 Z " fill="#070505" transform="translate(176.375,176.5)"/>
<path d="M0 0 C2.64 0 5.28 0 8 0 C8.00364563 0.61370956 8.00729126 1.22741913 8.01104736 1.85972595 C8.05334735 8.33450179 8.12301265 14.80859966 8.20751953 21.28295898 C8.23548524 23.68881397 8.25681905 26.09475667 8.27099609 28.50073242 C8.41778825 52.02172911 10.28640094 72.90696762 27 91 C29.26099922 93.1370503 31.55742031 95.06629108 34 97 C33.01 97.495 33.01 97.495 32 98 C18.07305869 91.58014601 9.36676787 80.67166313 3.04296875 67.03125 C0.10537267 58.49351758 -0.2772489 50.17701808 -0.1953125 41.2109375 C-0.1924826 40.02650055 -0.18965271 38.8420636 -0.18673706 37.62173462 C-0.17562395 33.87271631 -0.1505358 30.12394499 -0.125 26.375 C-0.11495874 23.81901389 -0.1058349 21.263024 -0.09765625 18.70703125 C-0.07571371 12.4712712 -0.04232539 6.23565325 0 0 Z " fill="#E9AC9B" transform="translate(129,117)"/>
<path d="M0 0 C-0.94101563 0.66386719 -1.88203125 1.32773437 -2.8515625 2.01171875 C-4.1094667 2.9035165 -5.36727403 3.7954509 -6.625 4.6875 C-7.24246094 5.12255859 -7.85992187 5.55761719 -8.49609375 6.00585938 C-18.59334468 13.18022188 -26.65727681 21.2907267 -29 34 C-30.19318872 48.10282777 -26.98819174 57.21069429 -19.25390625 68.60546875 C-16.97462391 71.96965398 -14.97923352 75.45180688 -13 79 C-16.35264997 79.73148727 -17.80164745 80.02538545 -21 79 C-24.59736756 75.40877129 -27.25956189 71.24973721 -30 67 C-30.66644531 66.02160156 -31.33289063 65.04320313 -32.01953125 64.03515625 C-38.74193499 53.94447443 -41.26070494 46.33791011 -40 34 C-37.24187539 23.54405868 -29.76051732 16.24491298 -21.125 10.3125 C-20.36058594 9.77044922 -19.59617187 9.22839844 -18.80859375 8.66992188 C-16.55687218 7.08530627 -14.28330248 5.53866059 -12 4 C-10.90510254 3.23695557 -10.90510254 3.23695557 -9.78808594 2.45849609 C-9.09231445 1.99137207 -8.39654297 1.52424805 -7.6796875 1.04296875 C-6.75905518 0.41491333 -6.75905518 0.41491333 -5.81982422 -0.22583008 C-3.5053741 -1.21041839 -2.32548216 -0.82466409 0 0 Z " fill="#2B4B64" transform="translate(146,23)"/>
<path d="M0 0 C0 5.94 0 11.88 0 18 C-0.33 18 -0.66 18 -1 18 C-1 15.03 -1 12.06 -1 9 C-12.55 9 -24.1 9 -36 9 C-36 13.95 -36 18.9 -36 24 C-41.70558376 21.14720812 -41.70558376 21.14720812 -44 18 C-44.48149962 15.06614207 -44.37774685 12.21274427 -44.25 9.25 C-44.23195312 8.45722656 -44.21390625 7.66445312 -44.1953125 6.84765625 C-44.14833082 4.89791652 -44.07659044 2.94880122 -44 1 C-38.53737477 0.856758 -33.07472827 0.71436614 -27.61206055 0.57275391 C-25.75463262 0.52448378 -23.89721065 0.47598343 -22.03979492 0.42724609 C-19.36638916 0.35713805 -16.69296286 0.28786439 -14.01953125 0.21875 C-13.19226028 0.19687622 -12.36498932 0.17500244 -11.51264954 0.15246582 C-10.73221786 0.13244507 -9.95178619 0.11242432 -9.14770508 0.09179688 C-8.46597733 0.07403198 -7.78424957 0.05626709 -7.0818634 0.03796387 C-4.72160075 -0.00507676 -2.36065505 0 0 0 Z " fill="#DA8F7C" transform="translate(218,234)"/>
<path d="M0 0 C0 10.89 0 21.78 0 33 C-9.27152318 31.8410596 -9.27152318 31.8410596 -14 27 C-17.44438297 21.75085472 -16.56407144 14.99587048 -16 9 C-14.7800412 5.37968983 -12.64291033 3.52127864 -9.6875 1.125 C-7 0 -7 0 0 0 Z " fill="#EE9E87" transform="translate(114,117)"/>
<path d="M0 0 C9.27152318 1.1589404 9.27152318 1.1589404 14 6 C17.08917467 10.88766677 16.59059085 16.42948873 16 22 C14.75987709 25.83432596 12.79432347 28.33448574 9.6875 30.9375 C7 32 7 32 0 32 C0 21.44 0 10.88 0 0 Z " fill="#F5A38B" transform="translate(278,117)"/>
<path d="M0 0 C2.36384717 1.81947572 4.56919888 3.73333073 6.7578125 5.76171875 C10.39321269 9.09596153 14.0611064 12.33151115 17.8828125 15.44921875 C11.23764456 23.9930061 11.23764456 23.9930061 5.52734375 24.76953125 C1.95318083 24.33661935 0.65349403 22.91972516 -1.9296875 20.44921875 C-2.78949219 19.63324219 -3.64929688 18.81726563 -4.53515625 17.9765625 C-5.81326172 16.72552734 -5.81326172 16.72552734 -7.1171875 15.44921875 C-7.91769531 14.68738281 -8.71820313 13.92554688 -9.54296875 13.140625 C-13.61596779 9.19784618 -13.61596779 9.19784618 -15.1171875 7.44921875 C-15.1171875 6.78921875 -15.1171875 6.12921875 -15.1171875 5.44921875 C-13.0435316 4.3884179 -10.95783664 3.35112351 -8.8671875 2.32421875 C-7.70703125 1.74414062 -6.546875 1.1640625 -5.3515625 0.56640625 C-2.1171875 -0.55078125 -2.1171875 -0.55078125 0 0 Z " fill="#EFEAEA" transform="translate(166.1171875,264.55078125)"/>
<path d="M0 0 C1.14210937 0.48984375 2.28421875 0.9796875 3.4609375 1.484375 C5.18183594 2.20367187 5.18183594 2.20367187 6.9375 2.9375 C8.58363461 3.67404541 10.22292583 4.42786917 11.8359375 5.234375 C9.72301871 9.96371938 6.367103 12.91159848 2.6484375 16.421875 C2.00068359 17.06318359 1.35292969 17.70449219 0.68554688 18.36523438 C-2.47287449 21.35327137 -4.6327665 23.06968452 -8.84375 24.375 C-12.79469916 24.20766568 -14.16018033 23.3762409 -17.1015625 20.796875 C-17.87371094 20.13816406 -18.64585937 19.47945313 -19.44140625 18.80078125 C-20.00988281 18.28386719 -20.57835937 17.76695312 -21.1640625 17.234375 C-19.57498725 13.08512296 -16.52873951 10.55029306 -13.2890625 7.671875 C-12.75925781 7.19041016 -12.22945312 6.70894531 -11.68359375 6.21289062 C-10.1932269 4.86860192 -8.67925275 3.55062117 -7.1640625 2.234375 C-6.514375 1.58082031 -5.8646875 0.92726563 -5.1953125 0.25390625 C-3.1640625 -0.765625 -3.1640625 -0.765625 0 0 Z " fill="#EFEAEA" transform="translate(229.1640625,264.765625)"/>
<path d="M0 0 C3.0625 1.625 3.0625 1.625 5 4 C5.625 6.9375 5.625 6.9375 5 10 C2.95882914 13.02883418 1.46257223 14.70071921 -2.1953125 15.44921875 C-5.96315344 15.62952797 -8.30902755 15.42132466 -11.5625 13.4375 C-13.56331202 10.04481874 -13.55326548 7.87285839 -13 4 C-10.01697824 -1.05816733 -5.31244927 -0.92637016 0 0 Z " fill="#060504" transform="translate(167,128)"/>
<path d="M0 0 C3.125 2.0625 3.125 2.0625 5 5 C5.06475903 8.75602354 4.819425 10.94157604 2.5 13.9375 C-1.33475631 15.56727143 -4.90320577 15.66150072 -9 15 C-11.5625 13.4375 -11.5625 13.4375 -13 11 C-13.55326548 7.12714161 -13.56331202 4.95518126 -11.5625 1.5625 C-7.74459121 -0.76549316 -4.35045304 -0.88090879 0 0 Z " fill="#060404" transform="translate(233,128)"/>
<path d="M0 0 C2.84820505 1.33509612 4.1921829 3.41946904 6 5.9375 C4.37750059 6.77569158 2.75191503 7.6079116 1.125 8.4375 C0.22007812 8.9015625 -0.68484375 9.365625 -1.6171875 9.84375 C-4 10.9375 -4 10.9375 -6 10.9375 C-6 7.9675 -6 4.9975 -6 1.9375 C-2 -0.0625 -2 -0.0625 0 0 Z " fill="#C1BCC4" transform="translate(135,278.0625)"/>
</svg>
